<?xml version="1.0" encoding="UTF-8"?>
<!DOCTYPE svg PUBLIC "-//W3C//DTD SVG 1.1//EN" "http://www.w3.org/Graphics/SVG/1.1/DTD/svg11.dtd">
<!-- Creator: CorelDRAW 2017 -->
<svg xmlns="http://www.w3.org/2000/svg" xml:space="preserve" width="1080px" height="1080px" version="1.1" style="shape-rendering:geometricPrecision; text-rendering:geometricPrecision; image-rendering:optimizeQuality; fill-rule:evenodd; clip-rule:evenodd"
viewBox="0 0 1080 1080"
 xmlns:xlink="http://www.w3.org/1999/xlink">
 <defs>
  <style type="text/css">
   <![CDATA[
    .str0 {stroke:#005090;stroke-width:0.9;stroke-miterlimit:22.9256}
    .str1 {stroke:#005DA2;stroke-width:0.9;stroke-miterlimit:22.9256}
    .fil0 {fill:none}
    .fil2 {fill:#005090}
    .fil3 {fill:#005DA2}
    .fil6 {fill:#0099CB}
    .fil4 {fill:#91BD3C}
    .fil5 {fill:#E12761}
    .fil7 {fill:#F7B91B}
    .fil1 {fill:#0F3769;fill-rule:nonzero}
    .fil11 {fill:url(#id0)}
    .fil9 {fill:url(#id1)}
    .fil8 {fill:url(#id2)}
    .fil10 {fill:url(#id3)}
   ]]>
  </style>
  <radialGradient id="id0" gradientUnits="userSpaceOnUse" gradientTransform="matrix(1.60975 -0 -0 1.60975 -268 -215)" cx="439.86" cy="352.16" r="397.7" fx="439.86" fy="352.16">
   <stop offset="0" style="stop-opacity:1; stop-color:white"/>
   <stop offset="1" style="stop-opacity:1; stop-color:#E12761"/>
  </radialGradient>
  <radialGradient id="id1" gradientUnits="userSpaceOnUse" gradientTransform="matrix(1.31999 -0 -0 1.32 -212 -151)" cx="660.98" cy="471.29" r="504.43" fx="660.98" fy="471.29">
   <stop offset="0" style="stop-opacity:1; stop-color:white"/>
   <stop offset="1" style="stop-opacity:1; stop-color:#F7B91B"/>
  </radialGradient>
  <radialGradient id="id2" gradientUnits="userSpaceOnUse" gradientTransform="matrix(1.32 -0 -0 1.32 -146 -179)" cx="455.16" cy="560.54" r="543.13" fx="455.16" fy="560.54">
   <stop offset="0" style="stop-opacity:1; stop-color:white"/>
   <stop offset="1" style="stop-opacity:1; stop-color:#0099CB"/>
  </radialGradient>
  <radialGradient id="id3" gradientUnits="userSpaceOnUse" gradientTransform="matrix(1.32 -0 -0 1.32 -193 -99)" cx="602.66" cy="308.81" r="545.94" fx="602.66" fy="308.81">
   <stop offset="0" style="stop-opacity:1; stop-color:white"/>
   <stop offset="1" style="stop-opacity:1; stop-color:#91BD3C"/>
  </radialGradient>
 </defs>
 <g id="Camada_x0020_1">
  <metadata id="CorelCorpID_0Corel-Layer"/>
  <rect class="fil0" transform="matrix(2.64845E-14 -0.5625 1 1.48976E-14 -2.54659E-11 1080)" width="1920" height="1080"/>
  <g id="Logo_x0020_vertical">
   <path class="fil1" d="M321.4 993.77c0,-1.03 -0.22,-1.83 -0.66,-2.38 -0.43,-0.56 -1.22,-1.09 -2.36,-1.62 -1.15,-0.52 -2.02,-1.08 -2.62,-1.65 -0.6,-0.58 -1.05,-1.24 -1.35,-1.98 -0.3,-0.74 -0.45,-1.59 -0.45,-2.54 0,-1.66 0.42,-3.02 1.28,-4.09 0.85,-1.07 1.98,-1.6 3.36,-1.6 0.95,0 1.79,0.27 2.53,0.82 0.74,0.55 1.31,1.31 1.71,2.28 0.4,0.98 0.6,2.05 0.6,3.21l-2.04 0c0,-1.29 -0.24,-2.29 -0.72,-2.99 -0.48,-0.71 -1.18,-1.06 -2.08,-1.06 -0.82,0 -1.46,0.29 -1.91,0.89 -0.45,0.59 -0.68,1.42 -0.68,2.49 0,0.88 0.25,1.62 0.74,2.21 0.48,0.59 1.24,1.12 2.26,1.59 1.59,0.68 2.73,1.51 3.41,2.51 0.69,0.99 1.03,2.29 1.03,3.9 0,1.69 -0.42,3.04 -1.28,4.06 -0.85,1.01 -2.01,1.52 -3.47,1.52 -0.94,0 -1.81,-0.26 -2.61,-0.8 -0.79,-0.53 -1.42,-1.28 -1.87,-2.23 -0.46,-0.97 -0.68,-2.07 -0.68,-3.31l2.04 0c0,1.29 0.28,2.29 0.84,3.01 0.56,0.72 1.32,1.07 2.28,1.07 0.9,0 1.57,-0.29 2.02,-0.89 0.45,-0.59 0.68,-1.39 0.68,-2.42z"/>
   <path id="1" class="fil1" d="M331.96 997.69c-0.65,1.1 -1.6,1.65 -2.85,1.65 -1.09,0 -1.91,-0.48 -2.47,-1.45 -0.55,-0.97 -0.83,-2.38 -0.84,-4.23l0 -10.09 1.95 0 0 9.89c0,2.42 0.57,3.62 1.69,3.62 1.19,0 2.02,-0.69 2.47,-2.06l0 -11.45 1.96 0 0 15.48 -1.86 0 -0.05 -1.36z"/>
   <path id="2" class="fil1" d="M345.51 992.05c0,2.45 -0.34,4.29 -1.03,5.49 -0.68,1.2 -1.65,1.8 -2.9,1.8 -1.21,0 -2.13,-0.59 -2.79,-1.76l0 7.42 -1.95 0 0 -21.43 1.78 0 0.09 1.71c0.66,-1.34 1.61,-2.01 2.84,-2.01 1.31,0 2.3,0.6 2.95,1.78 0.65,1.19 0.99,2.95 1.01,5.31l0 1.69zm-1.95 -1.44c0,-1.74 -0.21,-3.02 -0.62,-3.84 -0.42,-0.83 -1.09,-1.24 -2.01,-1.24 -0.94,0 -1.65,0.61 -2.14,1.82l0 8.05c0.49,1.18 1.2,1.77 2.17,1.77 0.88,0 1.54,-0.41 1.96,-1.23 0.42,-0.83 0.63,-2.09 0.64,-3.79l0 -1.54z"/>
   <path id="3" class="fil1" d="M352.34 999.34c-1.5,0 -2.65,-0.58 -3.45,-1.72 -0.79,-1.16 -1.2,-2.84 -1.22,-5.07l0 -1.87c0,-2.31 0.39,-4.12 1.18,-5.44 0.78,-1.31 1.87,-1.97 3.27,-1.97 1.4,0 2.45,0.58 3.15,1.74 0.7,1.15 1.05,2.95 1.07,5.4l0 1.66 -6.71 0 0 0.36c0,1.65 0.24,2.86 0.73,3.61 0.48,0.75 1.18,1.13 2.09,1.13 0.58,0 1.09,-0.14 1.53,-0.42 0.44,-0.28 0.85,-0.72 1.24,-1.33l1.02 1.6c-0.86,1.55 -2.15,2.32 -3.9,2.32zm-0.22 -13.9c-0.82,0 -1.42,0.37 -1.81,1.09 -0.4,0.72 -0.62,1.85 -0.67,3.37l4.73 0 0 -0.35c-0.05,-1.47 -0.26,-2.52 -0.62,-3.16 -0.35,-0.63 -0.9,-0.95 -1.63,-0.95z"/>
   <path id="4" class="fil1" d="M363.66 985.93c-0.28,-0.07 -0.57,-0.11 -0.89,-0.11 -1.01,0 -1.71,0.72 -2.11,2.14l0 11.09 -1.97 0 0 -15.48 1.91 0 0.04 1.57c0.52,-1.25 1.27,-1.87 2.23,-1.87 0.31,0 0.57,0.07 0.78,0.2l0.01 2.46z"/>
   <path id="5" class="fil1" d="M367.73 999.05l-1.96 0 0 -15.48 1.96 0 0 15.48zm0.16 -19.6c0,0.43 -0.09,0.79 -0.28,1.08 -0.18,0.29 -0.47,0.43 -0.84,0.43 -0.37,0 -0.65,-0.14 -0.83,-0.43 -0.19,-0.29 -0.28,-0.65 -0.28,-1.08 0,-0.43 0.09,-0.8 0.28,-1.1 0.18,-0.29 0.46,-0.44 0.83,-0.44 0.37,0 0.65,0.15 0.84,0.45 0.18,0.31 0.28,0.67 0.28,1.09z"/>
   <path id="6" class="fil1" d="M372.67 983.57l0.06 1.66c0.76,-1.3 1.74,-1.96 2.92,-1.96 2.13,0 3.2,1.83 3.23,5.49l0 10.29 -1.95 0 0 -10.17c0,-1.21 -0.16,-2.07 -0.47,-2.58 -0.32,-0.51 -0.79,-0.77 -1.42,-0.77 -0.49,0 -0.93,0.21 -1.32,0.63 -0.38,0.42 -0.7,0.97 -0.93,1.64l0 11.25 -1.97 0 0 -15.48 1.85 0z"/>
   <path id="7" class="fil1" d="M384.39 979.82l0 3.75 1.82 0 0 2.05 -1.82 0 0 9.6c0,0.61 0.08,1.08 0.24,1.39 0.15,0.32 0.42,0.47 0.8,0.47 0.26,0 0.52,-0.06 0.79,-0.17l-0.03 2.15c-0.44,0.18 -0.89,0.28 -1.36,0.28 -0.78,0 -1.37,-0.36 -1.78,-1.07 -0.41,-0.72 -0.61,-1.73 -0.61,-3.03l0 -9.62 -1.83 0 0 -2.05 1.83 0 0 -3.75 1.95 0z"/>
   <path id="8" class="fil1" d="M392.83 999.34c-1.49,0 -2.64,-0.58 -3.44,-1.72 -0.8,-1.16 -1.21,-2.84 -1.22,-5.07l0 -1.87c0,-2.31 0.39,-4.12 1.17,-5.44 0.78,-1.31 1.87,-1.97 3.27,-1.97 1.41,0 2.46,0.58 3.15,1.74 0.7,1.15 1.05,2.95 1.07,5.4l0 1.66 -6.7 0 0 0.36c0,1.65 0.24,2.86 0.72,3.61 0.49,0.75 1.19,1.13 2.09,1.13 0.58,0 1.09,-0.14 1.53,-0.42 0.44,-0.28 0.86,-0.72 1.24,-1.33l1.02 1.6c-0.85,1.55 -2.15,2.32 -3.9,2.32zm-0.22 -13.9c-0.81,0 -1.42,0.37 -1.81,1.09 -0.39,0.72 -0.61,1.85 -0.66,3.37l4.73 0 0 -0.35c-0.06,-1.47 -0.26,-2.52 -0.62,-3.16 -0.36,-0.63 -0.91,-0.95 -1.64,-0.95z"/>
   <path id="9" class="fil1" d="M401.04 983.57l0.06 1.66c0.76,-1.3 1.74,-1.96 2.92,-1.96 2.13,0 3.2,1.83 3.23,5.49l0 10.29 -1.95 0 0 -10.17c0,-1.21 -0.16,-2.07 -0.47,-2.58 -0.32,-0.51 -0.79,-0.77 -1.42,-0.77 -0.49,0 -0.92,0.21 -1.32,0.63 -0.38,0.42 -0.7,0.97 -0.93,1.64l0 11.25 -1.97 0 0 -15.48 1.85 0z"/>
   <path id="10" class="fil1" d="M409.78 990.6c0,-2.38 0.35,-4.2 1.04,-5.45 0.69,-1.25 1.69,-1.88 2.98,-1.88 1.15,0 2.05,0.61 2.69,1.81l0 -8.02 1.96 0 0 21.99 -1.79 0 -0.11 -1.66c-0.64,1.3 -1.56,1.95 -2.76,1.95 -1.24,0 -2.22,-0.62 -2.92,-1.87 -0.71,-1.24 -1.07,-3 -1.09,-5.27l0 -1.6zm1.97 1.44c0,1.73 0.2,3.01 0.6,3.82 0.4,0.82 1.05,1.22 1.95,1.22 0.98,0 1.71,-0.63 2.19,-1.9l0 -7.79c-0.5,-1.24 -1.23,-1.86 -2.18,-1.86 -0.9,0 -1.55,0.41 -1.95,1.22 -0.4,0.81 -0.6,2.07 -0.61,3.75l0 1.54z"/>
   <path id="11" class="fil1" d="M425.77 999.34c-1.49,0 -2.64,-0.58 -3.44,-1.72 -0.8,-1.16 -1.21,-2.84 -1.22,-5.07l0 -1.87c0,-2.31 0.39,-4.12 1.17,-5.44 0.78,-1.31 1.87,-1.97 3.27,-1.97 1.41,0 2.46,0.58 3.15,1.74 0.7,1.15 1.05,2.95 1.07,5.4l0 1.66 -6.71 0 0 0.36c0,1.65 0.25,2.86 0.73,3.61 0.49,0.75 1.18,1.13 2.09,1.13 0.58,0 1.09,-0.14 1.53,-0.42 0.44,-0.28 0.85,-0.72 1.24,-1.33l1.02 1.6c-0.85,1.55 -2.15,2.32 -3.9,2.32zm-0.22 -13.9c-0.81,0 -1.42,0.37 -1.81,1.09 -0.39,0.72 -0.62,1.85 -0.67,3.37l4.73 0 0 -0.35c-0.05,-1.47 -0.25,-2.52 -0.61,-3.16 -0.36,-0.63 -0.91,-0.95 -1.64,-0.95zm2.87 -4.46l0 0.14 -1.58 0.01 -1.34 -2.43 -1.33 2.43 -1.58 -0.01 0 -0.17 2.33 -3.89 1.16 0 2.34 3.92z"/>
   <path id="12" class="fil1" d="M433.98 983.57l0.06 1.66c0.76,-1.3 1.74,-1.96 2.92,-1.96 2.12,0 3.2,1.83 3.23,5.49l0 10.29 -1.95 0 0 -10.17c0,-1.21 -0.16,-2.07 -0.47,-2.58 -0.32,-0.51 -0.79,-0.77 -1.42,-0.77 -0.49,0 -0.93,0.21 -1.32,0.63 -0.38,0.42 -0.7,0.97 -0.93,1.64l0 11.25 -1.97 0 0 -15.48 1.85 0z"/>
   <path id="13" class="fil1" d="M447.31 997.17c0.65,0 1.17,-0.26 1.57,-0.78 0.39,-0.52 0.6,-1.26 0.64,-2.22l1.85 0c-0.04,1.49 -0.45,2.72 -1.23,3.7 -0.77,0.98 -1.71,1.47 -2.83,1.47 -1.49,0 -2.62,-0.61 -3.4,-1.81 -0.79,-1.21 -1.17,-3.01 -1.17,-5.39l0 -1.71c0,-2.33 0.38,-4.11 1.16,-5.33 0.78,-1.21 1.91,-1.83 3.4,-1.83 1.23,0 2.2,0.51 2.92,1.51 0.72,1 1.11,2.37 1.15,4.11l-1.85 0c-0.05,-1.15 -0.26,-2.01 -0.64,-2.59 -0.38,-0.57 -0.91,-0.86 -1.58,-0.86 -0.88,0 -1.52,0.38 -1.95,1.11 -0.42,0.75 -0.64,1.96 -0.65,3.65l0 1.97c0,1.82 0.21,3.12 0.63,3.87 0.41,0.75 1.07,1.13 1.98,1.13z"/>
   <path id="14" class="fil1" d="M455.75 999.05l-1.96 0 0 -15.48 1.96 0 0 15.48zm0.16 -19.6c0,0.43 -0.09,0.79 -0.28,1.08 -0.18,0.29 -0.46,0.43 -0.84,0.43 -0.37,0 -0.65,-0.14 -0.83,-0.43 -0.19,-0.29 -0.28,-0.65 -0.28,-1.08 0,-0.43 0.09,-0.8 0.28,-1.1 0.18,-0.29 0.46,-0.44 0.83,-0.44 0.37,0 0.65,0.15 0.84,0.45 0.19,0.31 0.28,0.67 0.28,1.09z"/>
   <path id="15" class="fil1" d="M465.03 999.05c-0.12,-0.33 -0.21,-0.9 -0.26,-1.68 -0.69,1.31 -1.58,1.97 -2.66,1.97 -1.09,0 -1.94,-0.4 -2.55,-1.18 -0.61,-0.79 -0.92,-1.9 -0.92,-3.33 0,-1.57 0.42,-2.82 1.25,-3.75 0.83,-0.92 1.96,-1.39 3.41,-1.41l1.44 0 0 -1.66c0,-0.92 -0.16,-1.58 -0.48,-1.98 -0.32,-0.39 -0.8,-0.59 -1.45,-0.59 -0.6,0 -1.08,0.23 -1.45,0.69 -0.37,0.45 -0.55,1.03 -0.55,1.73l-1.97 0c0,-0.79 0.19,-1.55 0.55,-2.27 0.36,-0.72 0.85,-1.29 1.46,-1.7 0.62,-0.41 1.3,-0.62 2.06,-0.62 1.22,0 2.16,0.4 2.8,1.19 0.64,0.78 0.97,1.93 0.98,3.44l0 7.81c0.01,1.2 0.14,2.23 0.38,3.11l0 0.23 -2.04 0zm-2.62 -2.03c0.48,0 0.94,-0.17 1.37,-0.51 0.44,-0.34 0.76,-0.77 0.96,-1.28l0 -3.69 -1.11 0c-0.94,0.02 -1.67,0.29 -2.21,0.81 -0.54,0.52 -0.81,1.24 -0.81,2.18 0,0.87 0.14,1.51 0.41,1.9 0.27,0.4 0.73,0.59 1.39,0.59z"/>
   <path id="16" class="fil1" d="M474.53 990.6c0,-2.38 0.35,-4.2 1.04,-5.45 0.69,-1.25 1.69,-1.88 2.98,-1.88 1.15,0 2.05,0.61 2.69,1.81l0 -8.02 1.96 0 0 21.99 -1.79 0 -0.1 -1.66c-0.65,1.3 -1.57,1.95 -2.77,1.95 -1.24,0 -2.22,-0.62 -2.93,-1.87 -0.7,-1.24 -1.06,-3 -1.08,-5.27l0 -1.6zm1.97 1.44c0,1.73 0.2,3.01 0.6,3.82 0.39,0.82 1.05,1.22 1.95,1.22 0.98,0 1.71,-0.63 2.19,-1.9l0 -7.79c-0.5,-1.24 -1.23,-1.86 -2.18,-1.86 -0.9,0 -1.55,0.41 -1.95,1.22 -0.4,0.81 -0.6,2.07 -0.61,3.75l0 1.54z"/>
   <path id="17" class="fil1" d="M490.52 999.34c-1.5,0 -2.64,-0.58 -3.44,-1.72 -0.8,-1.16 -1.21,-2.84 -1.22,-5.07l0 -1.87c0,-2.31 0.39,-4.12 1.17,-5.44 0.78,-1.31 1.87,-1.97 3.27,-1.97 1.4,0 2.45,0.58 3.15,1.74 0.7,1.15 1.05,2.95 1.07,5.4l0 1.66 -6.71 0 0 0.36c0,1.65 0.25,2.86 0.73,3.61 0.48,0.75 1.18,1.13 2.09,1.13 0.58,0 1.09,-0.14 1.53,-0.42 0.44,-0.28 0.85,-0.72 1.24,-1.33l1.02 1.6c-0.85,1.55 -2.15,2.32 -3.9,2.32zm-0.22 -13.9c-0.82,0 -1.42,0.37 -1.81,1.09 -0.39,0.72 -0.62,1.85 -0.67,3.37l4.73 0 0 -0.35c-0.05,-1.47 -0.25,-2.52 -0.61,-3.16 -0.36,-0.63 -0.91,-0.95 -1.64,-0.95z"/>
   <path id="18" class="fil1" d="M509.9 993.59l-5.46 0 -1.26 5.46 -2.08 0 5.21 -20.85 1.73 0 5.22 20.85 -2.08 0 -1.28 -5.46zm-4.93 -2.25l4.41 0 -2.21 -9.47 -2.2 9.47z"/>
   <path id="19" class="fil1" d="M521.03 995.08c0,-0.54 -0.15,-1.01 -0.47,-1.4 -0.32,-0.39 -0.94,-0.85 -1.85,-1.37 -1.06,-0.56 -1.8,-1.05 -2.24,-1.45 -0.43,-0.4 -0.75,-0.85 -0.97,-1.37 -0.21,-0.5 -0.32,-1.11 -0.32,-1.82 0,-1.26 0.36,-2.31 1.08,-3.14 0.71,-0.84 1.62,-1.26 2.73,-1.26 1.17,0 2.11,0.44 2.82,1.32 0.71,0.88 1.07,2.01 1.07,3.38l-1.96 0c0,-0.7 -0.18,-1.29 -0.54,-1.79 -0.36,-0.49 -0.83,-0.74 -1.39,-0.74 -0.57,0 -1.03,0.19 -1.36,0.58 -0.33,0.39 -0.49,0.9 -0.49,1.55 0,0.51 0.12,0.93 0.36,1.24 0.24,0.31 0.82,0.73 1.73,1.24 1.46,0.74 2.46,1.46 2.98,2.16 0.53,0.7 0.79,1.6 0.79,2.68 0,1.35 -0.36,2.43 -1.08,3.24 -0.72,0.81 -1.68,1.21 -2.88,1.21 -1.25,0 -2.27,-0.46 -3.05,-1.39 -0.77,-0.93 -1.16,-2.1 -1.16,-3.52l1.97 0c0.03,0.86 0.23,1.53 0.61,2.01 0.39,0.49 0.93,0.73 1.63,0.73 0.65,0 1.14,-0.19 1.48,-0.57 0.34,-0.37 0.51,-0.88 0.51,-1.52z"/>
   <path id="20" class="fil1" d="M531.39 995.08c0,-0.54 -0.16,-1.01 -0.48,-1.4 -0.31,-0.39 -0.93,-0.85 -1.84,-1.37 -1.06,-0.56 -1.8,-1.05 -2.24,-1.45 -0.43,-0.4 -0.75,-0.85 -0.97,-1.37 -0.21,-0.5 -0.32,-1.11 -0.32,-1.82 0,-1.26 0.36,-2.31 1.07,-3.14 0.72,-0.84 1.63,-1.26 2.74,-1.26 1.17,0 2.11,0.44 2.82,1.32 0.71,0.88 1.06,2.01 1.06,3.38l-1.95 0c0,-0.7 -0.18,-1.29 -0.54,-1.79 -0.36,-0.49 -0.83,-0.74 -1.39,-0.74 -0.58,0 -1.03,0.19 -1.36,0.58 -0.33,0.39 -0.49,0.9 -0.49,1.55 0,0.51 0.11,0.93 0.36,1.24 0.24,0.31 0.82,0.73 1.73,1.24 1.46,0.74 2.46,1.46 2.98,2.16 0.53,0.7 0.79,1.6 0.79,2.68 0,1.35 -0.36,2.43 -1.08,3.24 -0.72,0.81 -1.68,1.21 -2.89,1.21 -1.25,0 -2.26,-0.46 -3.04,-1.39 -0.77,-0.93 -1.17,-2.1 -1.17,-3.52l1.98 0c0.03,0.86 0.23,1.53 0.61,2.01 0.39,0.49 0.93,0.73 1.62,0.73 0.66,0 1.15,-0.19 1.49,-0.57 0.34,-0.37 0.51,-0.88 0.51,-1.52z"/>
   <path id="21" class="fil1" d="M538.03 999.05l-1.97 0 0 -15.48 1.97 0 0 15.48zm0.15 -19.6c0,0.43 -0.09,0.79 -0.28,1.08 -0.18,0.29 -0.46,0.43 -0.84,0.43 -0.37,0 -0.65,-0.14 -0.83,-0.43 -0.19,-0.29 -0.28,-0.65 -0.28,-1.08 0,-0.43 0.09,-0.8 0.28,-1.1 0.18,-0.29 0.46,-0.44 0.83,-0.44 0.37,0 0.65,0.15 0.84,0.45 0.19,0.31 0.28,0.67 0.28,1.09z"/>
   <path id="22" class="fil1" d="M546.96 995.08c0,-0.54 -0.16,-1.01 -0.48,-1.4 -0.32,-0.39 -0.93,-0.85 -1.84,-1.37 -1.06,-0.56 -1.81,-1.05 -2.24,-1.45 -0.43,-0.4 -0.76,-0.85 -0.97,-1.37 -0.22,-0.5 -0.32,-1.11 -0.32,-1.82 0,-1.26 0.35,-2.31 1.07,-3.14 0.71,-0.84 1.63,-1.26 2.74,-1.26 1.17,0 2.11,0.44 2.82,1.32 0.71,0.88 1.06,2.01 1.06,3.38l-1.95 0c0,-0.7 -0.18,-1.29 -0.55,-1.79 -0.36,-0.49 -0.82,-0.74 -1.38,-0.74 -0.58,0 -1.04,0.19 -1.36,0.58 -0.33,0.39 -0.5,0.9 -0.5,1.55 0,0.51 0.12,0.93 0.36,1.24 0.24,0.31 0.82,0.73 1.74,1.24 1.46,0.74 2.45,1.46 2.98,2.16 0.52,0.7 0.79,1.6 0.79,2.68 0,1.35 -0.36,2.43 -1.09,3.24 -0.71,0.81 -1.67,1.21 -2.88,1.21 -1.25,0 -2.27,-0.46 -3.04,-1.39 -0.78,-0.93 -1.17,-2.1 -1.17,-3.52l1.98 0c0.02,0.86 0.22,1.53 0.61,2.01 0.39,0.49 0.92,0.73 1.62,0.73 0.65,0 1.15,-0.19 1.49,-0.57 0.34,-0.37 0.51,-0.88 0.51,-1.52z"/>
   <path id="23" class="fil1" d="M554.04 979.82l0 3.75 1.81 0 0 2.05 -1.81 0 0 9.6c0,0.61 0.08,1.08 0.24,1.39 0.15,0.32 0.42,0.47 0.8,0.47 0.26,0 0.52,-0.06 0.79,-0.17l-0.03 2.15c-0.44,0.18 -0.9,0.28 -1.37,0.28 -0.77,0 -1.36,-0.36 -1.77,-1.07 -0.41,-0.72 -0.61,-1.73 -0.61,-3.03l0 -9.62 -1.83 0 0 -2.05 1.83 0 0 -3.75 1.95 0z"/>
   <path id="24" class="fil1" d="M562.48 999.34c-1.49,0 -2.64,-0.58 -3.44,-1.72 -0.8,-1.16 -1.21,-2.84 -1.22,-5.07l0 -1.87c0,-2.31 0.39,-4.12 1.17,-5.44 0.78,-1.31 1.87,-1.97 3.27,-1.97 1.41,0 2.46,0.58 3.15,1.74 0.7,1.15 1.05,2.95 1.07,5.4l0 1.66 -6.71 0 0 0.36c0,1.65 0.25,2.86 0.73,3.61 0.49,0.75 1.18,1.13 2.09,1.13 0.58,0 1.09,-0.14 1.53,-0.42 0.44,-0.28 0.85,-0.72 1.24,-1.33l1.02 1.6c-0.85,1.55 -2.15,2.32 -3.9,2.32zm-0.22 -13.9c-0.81,0 -1.42,0.37 -1.81,1.09 -0.39,0.72 -0.62,1.85 -0.67,3.37l4.73 0 0 -0.35c-0.05,-1.47 -0.25,-2.52 -0.61,-3.16 -0.36,-0.63 -0.91,-0.95 -1.64,-0.95zm2.87 -4.46l0 0.14 -1.58 0.01 -1.33 -2.43 -1.34 2.43 -1.58 -0.01 0 -0.17 2.33 -3.89 1.16 0 2.34 3.92z"/>
   <path id="25" class="fil1" d="M570.69 983.57l0.06 1.66c0.76,-1.3 1.74,-1.96 2.92,-1.96 2.12,0 3.2,1.83 3.23,5.49l0 10.29 -1.95 0 0 -10.17c0,-1.21 -0.16,-2.07 -0.47,-2.58 -0.32,-0.51 -0.79,-0.77 -1.42,-0.77 -0.49,0 -0.93,0.21 -1.32,0.63 -0.38,0.42 -0.7,0.97 -0.93,1.64l0 11.25 -1.97 0 0 -15.48 1.85 0z"/>
   <path id="26" class="fil1" d="M584.02 997.17c0.65,0 1.17,-0.26 1.57,-0.78 0.39,-0.52 0.6,-1.26 0.64,-2.22l1.85 0c-0.04,1.49 -0.45,2.72 -1.23,3.7 -0.77,0.98 -1.71,1.47 -2.83,1.47 -1.49,0 -2.62,-0.61 -3.4,-1.81 -0.78,-1.21 -1.17,-3.01 -1.17,-5.39l0 -1.71c0,-2.33 0.38,-4.11 1.16,-5.33 0.78,-1.21 1.91,-1.83 3.4,-1.83 1.23,0 2.2,0.51 2.92,1.51 0.73,1 1.11,2.37 1.15,4.11l-1.85 0c-0.05,-1.15 -0.26,-2.01 -0.64,-2.59 -0.38,-0.57 -0.91,-0.86 -1.58,-0.86 -0.88,0 -1.52,0.38 -1.95,1.11 -0.42,0.75 -0.64,1.96 -0.65,3.65l0 1.97c0,1.82 0.21,3.12 0.63,3.87 0.41,0.75 1.07,1.13 1.98,1.13z"/>
   <path id="27" class="fil1" d="M592.47 999.05l-1.97 0 0 -15.48 1.97 0 0 15.48zm0.15 -19.6c0,0.43 -0.09,0.79 -0.28,1.08 -0.18,0.29 -0.46,0.43 -0.84,0.43 -0.37,0 -0.65,-0.14 -0.83,-0.43 -0.19,-0.29 -0.28,-0.65 -0.28,-1.08 0,-0.43 0.09,-0.8 0.28,-1.1 0.18,-0.29 0.46,-0.44 0.83,-0.44 0.37,0 0.65,0.15 0.84,0.45 0.19,0.31 0.28,0.67 0.28,1.09z"/>
   <path id="28" class="fil1" d="M601.74 999.05c-0.12,-0.33 -0.21,-0.9 -0.26,-1.68 -0.69,1.31 -1.58,1.97 -2.66,1.97 -1.09,0 -1.94,-0.4 -2.55,-1.18 -0.61,-0.79 -0.92,-1.9 -0.92,-3.33 0,-1.57 0.42,-2.82 1.25,-3.75 0.83,-0.92 1.96,-1.39 3.41,-1.41l1.44 0 0 -1.66c0,-0.92 -0.16,-1.58 -0.48,-1.98 -0.32,-0.39 -0.8,-0.59 -1.45,-0.59 -0.6,0 -1.08,0.23 -1.45,0.69 -0.37,0.45 -0.55,1.03 -0.55,1.73l-1.97 0c0,-0.79 0.19,-1.55 0.55,-2.27 0.36,-0.72 0.85,-1.29 1.46,-1.7 0.62,-0.41 1.3,-0.62 2.06,-0.62 1.22,0 2.16,0.4 2.8,1.19 0.64,0.78 0.97,1.93 0.98,3.44l0 7.81c0.01,1.2 0.14,2.23 0.38,3.11l0 0.23 -2.04 0zm-2.62 -2.03c0.48,0 0.94,-0.17 1.37,-0.51 0.44,-0.34 0.76,-0.77 0.96,-1.28l0 -3.69 -1.11 0c-0.94,0.02 -1.67,0.29 -2.21,0.81 -0.54,0.52 -0.81,1.24 -0.81,2.18 0,0.87 0.14,1.51 0.41,1.9 0.27,0.4 0.73,0.59 1.39,0.59z"/>
   <polygon id="29" class="fil1" points="619.68,989.43 613.96,989.43 613.96,996.79 620.63,996.79 620.63,999.05 611.93,999.05 611.93,978.2 620.52,978.2 620.52,980.46 613.96,980.46 613.96,987.17 619.68,987.17 "/>
   <path id="30" class="fil1" d="M628.79 995.08c0,-0.54 -0.16,-1.01 -0.48,-1.4 -0.31,-0.39 -0.93,-0.85 -1.84,-1.37 -1.06,-0.56 -1.8,-1.05 -2.24,-1.45 -0.43,-0.4 -0.75,-0.85 -0.97,-1.37 -0.22,-0.5 -0.32,-1.11 -0.32,-1.82 0,-1.26 0.35,-2.31 1.07,-3.14 0.71,-0.84 1.63,-1.26 2.74,-1.26 1.17,0 2.11,0.44 2.82,1.32 0.71,0.88 1.06,2.01 1.06,3.38l-1.95 0c0,-0.7 -0.18,-1.29 -0.54,-1.79 -0.37,-0.49 -0.83,-0.74 -1.39,-0.74 -0.58,0 -1.03,0.19 -1.36,0.58 -0.33,0.39 -0.5,0.9 -0.5,1.55 0,0.51 0.12,0.93 0.36,1.24 0.24,0.31 0.82,0.73 1.74,1.24 1.46,0.74 2.45,1.46 2.98,2.16 0.52,0.7 0.79,1.6 0.79,2.68 0,1.35 -0.36,2.43 -1.08,3.24 -0.72,0.81 -1.68,1.21 -2.89,1.21 -1.25,0 -2.26,-0.46 -3.04,-1.39 -0.78,-0.93 -1.17,-2.1 -1.17,-3.52l1.98 0c0.02,0.86 0.22,1.53 0.61,2.01 0.39,0.49 0.93,0.73 1.62,0.73 0.66,0 1.15,-0.19 1.49,-0.57 0.34,-0.37 0.51,-0.88 0.51,-1.52z"/>
   <path id="31" class="fil1" d="M635.87 979.82l0 3.75 1.82 0 0 2.05 -1.82 0 0 9.6c0,0.61 0.08,1.08 0.24,1.39 0.15,0.32 0.42,0.47 0.8,0.47 0.26,0 0.52,-0.06 0.79,-0.17l-0.03 2.15c-0.44,0.18 -0.89,0.28 -1.36,0.28 -0.78,0 -1.37,-0.36 -1.78,-1.07 -0.41,-0.72 -0.61,-1.73 -0.61,-3.03l0 -9.62 -1.83 0 0 -2.05 1.83 0 0 -3.75 1.95 0z"/>
   <path id="32" class="fil1" d="M646.15 997.69c-0.66,1.1 -1.61,1.65 -2.86,1.65 -1.09,0 -1.91,-0.48 -2.47,-1.45 -0.55,-0.97 -0.83,-2.38 -0.84,-4.23l0 -10.09 1.96 0 0 9.89c0,2.42 0.56,3.62 1.69,3.62 1.19,0 2.01,-0.69 2.46,-2.06l0 -11.45 1.97 0 0 15.48 -1.87 0 -0.04 -1.36z"/>
   <path id="33" class="fil1" d="M650.6 990.6c0,-2.38 0.34,-4.2 1.04,-5.45 0.69,-1.25 1.68,-1.88 2.98,-1.88 1.15,0 2.04,0.61 2.69,1.81l0 -8.02 1.96 0 0 21.99 -1.8 0 -0.1 -1.66c-0.64,1.3 -1.56,1.95 -2.76,1.95 -1.24,0 -2.22,-0.62 -2.93,-1.87 -0.7,-1.24 -1.07,-3 -1.08,-5.27l0 -1.6zm1.97 1.44c0,1.73 0.19,3.01 0.59,3.82 0.4,0.82 1.05,1.22 1.96,1.22 0.98,0 1.71,-0.63 2.19,-1.9l0 -7.79c-0.51,-1.24 -1.23,-1.86 -2.18,-1.86 -0.9,0 -1.56,0.41 -1.95,1.22 -0.4,0.81 -0.61,2.07 -0.61,3.75l0 1.54z"/>
   <path id="34" class="fil1" d="M668.48 999.05c-0.12,-0.33 -0.2,-0.9 -0.26,-1.68 -0.69,1.31 -1.58,1.97 -2.66,1.97 -1.09,0 -1.94,-0.4 -2.55,-1.18 -0.61,-0.79 -0.91,-1.9 -0.91,-3.33 0,-1.57 0.41,-2.82 1.24,-3.75 0.83,-0.92 1.97,-1.39 3.41,-1.41l1.44 0 0 -1.66c0,-0.92 -0.16,-1.58 -0.48,-1.98 -0.32,-0.39 -0.8,-0.59 -1.45,-0.59 -0.59,0 -1.08,0.23 -1.44,0.69 -0.37,0.45 -0.56,1.03 -0.56,1.73l-1.96 0c0,-0.79 0.18,-1.55 0.54,-2.27 0.36,-0.72 0.85,-1.29 1.47,-1.7 0.61,-0.41 1.3,-0.62 2.05,-0.62 1.23,0 2.16,0.4 2.8,1.19 0.64,0.78 0.97,1.93 0.99,3.44l0 7.81c0,1.2 0.13,2.23 0.37,3.11l0 0.23 -2.04 0zm-2.62 -2.03c0.48,0 0.94,-0.17 1.38,-0.51 0.43,-0.34 0.75,-0.77 0.95,-1.28l0 -3.69 -1.11 0c-0.93,0.02 -1.67,0.29 -2.21,0.81 -0.54,0.52 -0.81,1.24 -0.81,2.18 0,0.87 0.14,1.51 0.41,1.9 0.28,0.4 0.74,0.59 1.39,0.59z"/>
   <path id="35" class="fil1" d="M675.04 983.57l0.06 1.66c0.76,-1.3 1.74,-1.96 2.92,-1.96 2.12,0 3.2,1.83 3.23,5.49l0 10.29 -1.95 0 0 -10.17c0,-1.21 -0.16,-2.07 -0.47,-2.58 -0.32,-0.51 -0.79,-0.77 -1.42,-0.77 -0.49,0 -0.93,0.21 -1.32,0.63 -0.38,0.42 -0.7,0.97 -0.93,1.64l0 11.25 -1.97 0 0 -15.48 1.85 0z"/>
   <path id="36" class="fil1" d="M686.76 979.82l0 3.75 1.81 0 0 2.05 -1.81 0 0 9.6c0,0.61 0.08,1.08 0.24,1.39 0.15,0.32 0.42,0.47 0.8,0.47 0.26,0 0.52,-0.06 0.79,-0.17l-0.03 2.15c-0.44,0.18 -0.9,0.28 -1.37,0.28 -0.77,0 -1.36,-0.36 -1.77,-1.07 -0.41,-0.72 -0.61,-1.73 -0.61,-3.03l0 -9.62 -1.83 0 0 -2.05 1.83 0 0 -3.75 1.95 0z"/>
   <path id="37" class="fil1" d="M693.03 999.05l-1.96 0 0 -15.48 1.96 0 0 15.48zm0.15 -19.6c0,0.43 -0.09,0.79 -0.27,1.08 -0.19,0.29 -0.47,0.43 -0.85,0.43 -0.37,0 -0.64,-0.14 -0.83,-0.43 -0.18,-0.29 -0.28,-0.65 -0.28,-1.08 0,-0.43 0.1,-0.8 0.28,-1.1 0.19,-0.29 0.46,-0.44 0.83,-0.44 0.37,0 0.65,0.15 0.84,0.45 0.19,0.31 0.28,0.67 0.28,1.09z"/>
   <polygon id="38" class="fil1" points="698.24,999.05 696.27,999.05 696.27,977.06 698.24,977.06 "/>
   <polygon id="39" class="fil1" points="708.66,1002.92 707.01,1002.92 707.01,978.2 708.66,978.2 "/>
   <path id="40" class="fil1" d="M727.2 978.2l0 14.82c-0.02,1.98 -0.46,3.53 -1.33,4.64 -0.88,1.12 -2.09,1.68 -3.65,1.68 -1.6,0 -2.82,-0.55 -3.67,-1.64 -0.84,-1.09 -1.27,-2.65 -1.29,-4.68l0 -14.82 2.02 0 0 14.71c0,1.4 0.24,2.44 0.7,3.14 0.46,0.69 1.2,1.03 2.24,1.03 1.03,0 1.78,-0.34 2.24,-1.03 0.47,-0.7 0.7,-1.74 0.7,-3.14l0 -14.71 2.04 0z"/>
   <polygon id="41" class="fil1" points="737.83,989.84 732.36,989.84 732.36,999.05 730.33,999.05 730.33,978.2 738.75,978.2 738.75,980.46 732.36,980.46 732.36,987.58 737.83,987.58 "/>
   <path id="42" class="fil1" d="M743.28 990.9l0 8.15 -2.03 0 0 -20.85 5.16 0c1.5,0 2.68,0.58 3.54,1.74 0.86,1.17 1.29,2.71 1.29,4.64 0,2 -0.41,3.55 -1.23,4.63 -0.82,1.09 -1.97,1.65 -3.46,1.69l-3.27 0zm0 -2.26l3.13 0c0.9,0 1.59,-0.35 2.07,-1.05 0.48,-0.7 0.72,-1.69 0.72,-2.99 0,-1.25 -0.24,-2.25 -0.74,-3.01 -0.5,-0.75 -1.18,-1.13 -2.04,-1.13l-3.14 0 0 8.18z"/>
   <path id="43" class="fil1" d="M759.87 993.59l-5.47 0 -1.25 5.46 -2.09 0 5.21 -20.85 1.74 0 5.22 20.85 -2.09 0 -1.27 -5.46zm-4.94 -2.25l4.41 0 -2.21 -9.47 -2.2 9.47z"/>
   <g id="Tipo">
    <path class="fil2 str0" d="M315.16 861.01l27.24 -9.73c-4.62,-4.56 -7.9,-9.13 -9.84,-13.69l-25.89 12.79c2.13,3.74 4.96,7.29 8.49,10.63z"/>
    <path class="fil2 str0" d="M363.34 826.63l0 17.17 29.28 -10.45 0 -8.22c-0.86,-6.3 -2.44,-10.99 -4.68,-14.91l-25.41 12.56c0.34,1.19 0.62,2.47 0.81,3.85z"/>
    <path class="fil2 str0" d="M427.44 793.85l-5.73 29.11 46.63 -16.65 -2.95 -15.79 -33.43 0 -0.45 0c-2.22,0.07 -3.58,1.18 -4.07,3.33z"/>
    <polygon class="fil2 str0" points="506.3,790.52 506.3,792.76 512.57,790.52 "/>
    <path class="fil2 str0" d="M379.89 887.09c-4.52,-5.96 -10.22,-12.18 -17.13,-18.65l-32.64 7.3c4.89,4.6 10.35,9.56 16.38,14.87l33.39 -3.52z"/>
    <polygon class="fil2 str0" points="415.06,856.74 409.71,883.94 440.53,880.68 446.57,850.06 452.42,879.43 481.43,876.36 475.25,843.28 "/>
    <polygon class="fil2 str0" points="506.3,836.33 506.3,873.73 571.16,866.88 571.16,864.03 535.57,864.03 535.57,829.78 "/>
    <path class="fil2 str0" d="M592.95 834c0.4,10.63 5.02,20.03 13.85,28.19 0.27,0.28 0.53,0.56 0.81,0.84l34.58 -3.65c-13.38,-10.06 -20.24,-20.13 -20.59,-30.2 0.91,-10.72 6.51,-16.49 16.8,-17.3 9.3,0.4 14.83,6.39 16.25,16.3l0 23.46 29.11 -1.5 0 -24.29c-2.91,-18.54 -5.61,-20.04 -13.07,-26.29l-75.43 16.87c-1.02,2.71 -1.79,5.8 -2.31,9.42l0 8.15z"/>
    <polygon class="fil2 str0" points="717.61,814.14 717.61,851.41 747.21,848.29 747.21,814.14 774.82,814.14 774.82,790.52 711.1,790.52 690,795.24 690,814.14 "/>
    <path class="fil2 str0" d="M392.18 912.71c-1.09,-6.77 -4.23,-13.97 -9.42,-21.61l-34.71 0.88c0.07,0.06 0.14,0.12 0.21,0.18 6.93,5.88 11.66,11.89 14.19,18l29.73 2.55z"/>
    <path class="fil2 str0" d="M408.43 890.44l-4.58 23.27 85.94 7.35 -6.08 -32.53 -29.32 0.75 0.61 3.1c0.2,2.6 -0.85,3.91 -3.16,3.92 -0.01,0 -0.03,0 -0.05,0l-10.48 0c-2.47,0.04 -3.5,-1.28 -3.09,-3.96l0.53 -2.67 -30.32 0.77z"/>
    <polygon class="fil2 str0" points="506.3,887.96 506.3,922.48 535.57,924.98 535.57,887.98 571.16,887.98 571.16,886.31 "/>
    <path class="fil2 str0" d="M639.4 892.88c10.89,9.24 16.35,18.78 16.38,28.6 -0.18,5.71 -1.35,10.2 -3.52,13.49l29.53 2.53c1.97,-4.65 3.27,-9.96 3.63,-16.1l0 -2.91c0.14,-10.56 -5.8,-21.99 -16.92,-34.65l-38.17 0.97c2.87,2.59 5.9,5.28 9.07,8.07z"/>
    <path class="fil2 str0" d="M621.56 921.98l0 -24.97 -23.52 2.21 -1.03 0.1c-2.97,0.49 -3.96,2.69 -4.06,6.55l0 16.03c0.26,2.72 0.66,5.44 1.2,8.1l29.85 2.55c-1.26,-2.85 -2.07,-6.38 -2.44,-10.57z"/>
    <polygon class="fil2 str0" points="717.61,882.59 717.61,940.56 747.21,943.1 747.21,881.84 "/>
    <path class="fil2 str0" d="M661.34 959.95l-53.24 -3.66c0.23,0.16 0.47,0.31 0.71,0.45 5.78,4.04 13.59,7.84 30.08,8.29 11.53,-0.56 17.65,-2.44 22.45,-5.08z"/>
    <polygon class="fil2 str0" points="586.13,962.33 586.13,954.78 506.3,949.29 506.3,962.33 "/>
    <polygon class="fil2 str0" points="497.5,962.33 494.92,948.51 465.79,946.51 468.94,962.33 "/>
    <path class="fil2 str0" d="M424.4 962.33l3.64 -18.42 -29.73 -2.04 -2.5 12.68 -0.39 1.98c-0.41,3.44 0.94,5.37 4.06,5.8l24.92 0z"/>
    <path class="fil2 str0" d="M377.36 956.07c5.13,-3.77 9.03,-8.55 11.62,-14.84l-33 -2.27c-2.51,1.33 -5.55,2 -9.14,2.01 -3.99,-0.02 -7.27,-1.12 -9.83,-3.32l-33.59 -2.3c2.48,9.77 7.44,16.63 14.25,20.68 5.15,3.06 11.23,6.83 28.42,8.37 17.52,-0.86 20.69,-2.07 31.27,-8.33z"/>
    <path class="fil2 str0" d="M301.81 904.97l28.6 2.45 0 -10.52 -22.77 1.65 -0.72 0.05c-3.25,0.37 -4.96,2.49 -5.11,6.37z"/>
    <path class="fil3 str1" d="M306.67 850.38l25.89 -12.79c-1.3,-3.04 -1.99,-6.09 -2.1,-9.13 0.91,-10.72 6.51,-16.48 16.8,-17.3 8.01,0.35 13.1,4.22 15.27,11.62l25.41 -12.56c-2.87,-4.99 -6.81,-8.73 -11.7,-12.95 -8.26,-5.97 -11.93,-8.71 -27.73,-9.21 -16.74,0.5 -20.62,3.24 -29.36,9.21 -9.24,7.53 -15.28,13.51 -17.34,27.86l0 8.15c0.23,6.11 1.85,11.81 4.86,17.1z"/>
    <path class="fil3 str1" d="M342.4 851.28l-27.24 9.73c0.16,0.15 0.33,0.31 0.5,0.46 4.09,4.29 8.91,9.05 14.46,14.27l32.64 -7.3c-2.42,-2.27 -4.98,-4.56 -7.68,-6.88 -4.98,-3.43 -9.21,-6.85 -12.68,-10.28z"/>
    <polygon class="fil3 str1" points="363.34,843.8 363.34,852.43 392.62,849.42 392.62,833.35 "/>
    <polygon class="fil3 str1" points="421.71,822.96 415.06,856.74 475.25,843.28 468.34,806.31 "/>
    <polygon class="fil3 str1" points="506.3,792.76 506.3,836.33 535.57,829.78 535.57,814.14 583.8,814.14 583.8,790.52 512.57,790.52 "/>
    <path class="fil3 str1" d="M610.29 797.99c-6.91,5.63 -12.03,10.39 -15.03,18.44l75.43 -16.87c-0.53,-0.44 -1.07,-0.91 -1.65,-1.4 -8.25,-5.98 -13.58,-8.88 -29.39,-9.38 -16.74,0.5 -20.62,3.24 -29.36,9.21z"/>
    <polygon class="fil3 str1" points="571.16,866.88 506.3,873.73 506.3,887.96 571.16,886.31 "/>
    <polygon class="fil3 str1" points="483.71,888.53 481.43,876.36 452.42,879.43 454.39,889.28 "/>
    <polygon class="fil3 str1" points="438.75,889.67 440.53,880.68 409.71,883.94 408.43,890.44 "/>
    <path class="fil3 str1" d="M382.76 891.1c-0.89,-1.33 -1.85,-2.66 -2.87,-4.01l-33.39 3.52c0.51,0.46 1.03,0.91 1.55,1.37l34.71 -0.88z"/>
    <path class="fil3 str1" d="M330.41 921.26l0 -13.84 -28.6 -2.45c0,0.06 0,0.12 0,0.18l0 19.63c0.26,3.84 0.8,7.36 1.61,10.57l33.59 2.3c-3.71,-3.17 -5.91,-8.64 -6.6,-16.39z"/>
    <path class="fil3 str1" d="M364.64 920.77c-0.29,9.21 -3.17,15.28 -8.66,18.19l33 2.27c2.01,-4.87 3.23,-10.64 3.64,-17.55l0 -5.24c0.02,-1.88 -0.12,-3.78 -0.44,-5.73l-29.73 -2.55c1.45,3.5 2.18,7.03 2.19,10.61z"/>
    <path class="fil3 str1" d="M403.85 913.71l-5.54 28.16 29.73 2.04 3.74 -18.95 0 0c0.03,-0.14 0.05,-0.27 0.08,-0.4 0.42,-1.89 1.32,-2.88 2.72,-2.98 0.16,-0.01 0.32,-0.01 0.49,0l22.46 0c0.12,-0.01 0.23,-0.01 0.34,0 1.77,0.06 2.98,1.19 3.62,3.38l4.3 21.55 29.13 2 -5.13 -27.45 -85.94 -7.35z"/>
    <polygon class="fil3 str1" points="506.3,922.48 506.3,949.29 586.13,954.78 586.13,938.92 535.57,938.92 535.57,924.98 "/>
    <path class="fil3 str1" d="M594.15 930c2.34,11.47 7.24,21.81 13.95,26.29l53.24 3.66c2.49,-1.37 4.63,-2.95 7,-4.66 5.51,-4.76 10.33,-10.46 13.45,-17.79l-29.53 -2.53c-2.93,4.45 -7.69,6.69 -14.27,6.72 -6.66,-0.03 -11.32,-3.08 -13.99,-9.14l-29.85 -2.55z"/>
    <path class="fil3 str1" d="M630.33 884.81l38.17 -0.97c-5.98,-6.81 -13.45,-13.98 -22.28,-21.57 -1.4,-0.96 -2.75,-1.93 -4.03,-2.89l-34.58 3.65c6.04,6.29 13.62,13.55 22.72,21.78z"/>
    <polygon class="fil3 str1" points="717.61,851.41 717.61,882.59 747.21,881.84 747.21,848.29 "/>
    <polygon class="fil3 str1" points="747.21,943.1 717.61,940.56 717.61,962.33 747.21,962.33 "/>
    <polygon class="fil3 str1" points="690,795.24 711.1,790.52 690,790.52 "/>
   </g>
   <g id="Simbolo">
    <path class="fil4" d="M630.45 399.7c19.67,-7.14 35.15,-19.25 46.45,-36.33 10.75,-14.89 16.29,-37.01 16.64,-66.36 -0.93,-28.35 -6.42,-52.52 -16.47,-72.51 -5.68,-11.71 -11.11,-21.52 -16.3,-29.44 -6.15,28.13 -19.11,43.22 -29.27,49.89 -9.77,6.67 -26.24,12.95 -50.89,17.47 -8.81,1.49 -18.89,3.94 -30.23,7.36 -9.31,3.12 -16.87,6.77 -22.77,10.91 14.27,8.53 25.56,19.57 33.87,33.12 12.76,25.69 14.09,52.04 3.96,79.03 11.67,-3.27 23.22,-4.44 34.63,-3.52 11.49,0.93 21.62,4.39 30.38,10.38z"/>
    <path class="fil5" d="M565.44 392.84c10.13,-26.99 8.8,-53.34 -3.96,-79.03 -8.31,-13.55 -19.6,-24.59 -33.87,-33.12 -2.97,-1.77 -6.07,-3.44 -9.3,-4.99 -16.38,-7.9 -36.09,-13 -59.12,-15.28 -40.08,-2.47 -72.4,2.3 -96.85,14.3 17.29,6.72 29.93,14.65 37.81,23.79 12.76,12.96 18.47,36.13 17.13,69.52 1.46,27.74 6.4,45.08 14.51,52.09 16.94,-3.64 33.39,-4.04 49.36,-1.2 21.37,4.38 37.44,11.54 48.22,21.49 13.29,-8.95 22.74,-19.31 28.45,-30.97 3.02,-5.56 5.56,-11.09 7.62,-16.6z"/>
    <path class="fil6" d="M529.37 440.41c-10.78,-9.95 -26.85,-17.11 -48.22,-21.49 -15.97,-2.84 -32.42,-2.44 -49.36,1.2 -6.64,1.43 -13.36,3.36 -20.16,5.79 -23.3,10.53 -39.27,26.82 -47.9,48.89 -8.22,23.21 -10.66,47.16 -7.32,71.85 3.92,28.73 14.67,56.22 32.27,82.5 1.9,-7.57 3.56,-13.56 4.99,-17.97 5.77,-17.08 14.42,-28.61 25.94,-34.59 7.99,-5.53 19.08,-9.74 33.27,-12.64 6.67,-1.25 13.99,-2.81 21.95,-4.66 19.48,-4.2 34.67,-9.42 45.57,-15.63 3.54,-2.04 6.77,-4.27 9.7,-6.69 0.29,-0.24 0.59,-0.49 0.88,-0.74 13.02,-11.14 19.81,-26.13 20.36,-44.96 -0.2,-18.34 -6.85,-34.63 -19.96,-48.9 -0.65,-0.66 -1.32,-1.32 -2.01,-1.96z"/>
    <path class="fil7" d="M557.82 409.44c-5.71,11.66 -15.16,22.02 -28.45,30.97 0.69,0.64 1.36,1.3 2.01,1.96 13.11,14.27 19.76,30.56 19.96,48.9 -0.55,18.83 -7.34,33.82 -20.36,44.96 19.53,22.53 50.1,35.1 91.71,37.7 40.35,0.86 76.94,-7.4 109.77,-24.78 -26.66,-6.37 -44.51,-17.45 -53.56,-33.27 -6.54,-12.2 -11.31,-29.05 -14.3,-50.56 -4.5,-25.22 -11.59,-43.18 -21.29,-53.88 -3.9,-4.63 -8.18,-8.54 -12.86,-11.74 -8.76,-5.99 -18.89,-9.45 -30.38,-10.38 -11.41,-0.92 -22.96,0.25 -34.63,3.52 -2.06,5.51 -4.6,11.04 -7.62,16.6z"/>
    <path class="fil8" d="M530.1 536.97c-2.93,2.42 -6.16,4.65 -9.7,6.69 -10.9,6.21 -26.09,11.43 -45.57,15.63 -7.96,1.85 -15.28,3.41 -21.95,4.66 -14.19,2.9 -25.28,7.11 -33.27,12.64 -11.52,5.98 -20.17,17.51 -25.94,34.59 -1.43,4.41 -3.09,10.4 -4.99,17.97 7.98,19.32 25.67,37.73 53.05,55.21 26.61,16.91 58.2,27.72 94.8,32.44 38.36,3.86 70.85,0.14 97.47,-11.15 29.35,-11.28 43.93,-23.81 43.74,-37.59 -0.58,-13.78 -15.55,-23.73 -44.91,-29.85 -12.95,-2.55 -22.65,-4.72 -29.1,-6.49 -14.98,-4.65 -32.28,-13.16 -49.73,-30.18 -16.29,-20.36 -24.25,-41.89 -23.9,-64.57z"/>
    <path class="fil9" d="M664.6 465.32c2.99,21.51 7.76,38.36 14.3,50.56 9.05,15.82 26.9,26.9 53.56,33.27 27.43,-10.84 50.22,-28.42 68.35,-52.72 19.5,-25.65 31.92,-56.7 37.26,-93.14 4.53,-34.78 -0.68,-66.6 -15.64,-95.47 -7.83,-16.07 -17.92,-25.1 -30.27,-27.11 -10.32,-0.56 -19.74,7.2 -28.27,23.29 -3.9,8.74 -9.66,24.76 -17.3,48.06 -6.64,14.44 -16.29,26.75 -28.94,36.92 -10.96,8.78 -23.88,15.16 -38.75,19.13 -10.78,2.75 -22.64,3.86 -35.59,3.33 9.7,10.7 16.79,28.66 21.29,53.88z"/>
    <path class="fil10" d="M580.61 262.42c24.65,-4.52 41.12,-10.8 50.89,-17.47 10.16,-6.67 23.12,-21.76 29.27,-49.89 -12.17,-24.28 -32.73,-44.72 -61.66,-61.33 -29.21,-16.16 -62.75,-25.7 -100.63,-28.61 -36.53,-1.05 -68.08,4.66 -94.63,17.13 -23.21,11.68 -34.41,22.99 -33.6,33.93 -0.1,11.92 13.15,21.29 39.75,28.11 8.76,1.91 21.01,4.51 36.76,7.82 23.53,8.68 41.66,21.48 54.39,38.42 9.51,13.82 15.23,28.87 17.16,45.17 3.23,1.55 6.33,3.22 9.3,4.99 5.9,-4.14 13.46,-7.79 22.77,-10.91 11.34,-3.42 21.42,-5.87 30.23,-7.36z"/>
    <path class="fil11" d="M417.28 368.03c1.34,-33.39 -4.37,-56.56 -17.13,-69.52 -7.88,-9.14 -20.52,-17.07 -37.81,-23.79 -11.92,0.37 -29.75,8.24 -53.5,23.62 -22.45,16.85 -40.14,36.97 -53.05,60.37 -14.28,24.06 -22.88,52.39 -25.78,84.99 -0.19,23.27 2.86,43 9.15,59.21 7.7,19.27 17.29,29.25 28.77,29.94 9.52,-0.33 18.28,-5.88 26.28,-16.63 5.9,-7.99 11.45,-18.08 16.63,-30.27 6.23,-16.11 15.27,-29.25 27.11,-39.42 23.04,-22.03 54.43,-30.85 93.84,-26.41 -8.11,-7.01 -13.05,-24.35 -14.51,-52.09z"/>
   </g>
  </g>
 </g>
</svg>
