<?xml version="1.0" encoding="UTF-8"?>
<!DOCTYPE svg PUBLIC "-//W3C//DTD SVG 1.1//EN" "http://www.w3.org/Graphics/SVG/1.1/DTD/svg11.dtd">
<!-- Creator: CorelDRAW 2017 -->
<svg xmlns="http://www.w3.org/2000/svg" xml:space="preserve" width="1920px" height="1080px" version="1.1" style="shape-rendering:geometricPrecision; text-rendering:geometricPrecision; image-rendering:optimizeQuality; fill-rule:evenodd; clip-rule:evenodd"
viewBox="0 0 1920 1080"
 xmlns:xlink="http://www.w3.org/1999/xlink">
 <defs>
  <style type="text/css">
   <![CDATA[
    .str0 {stroke:#005090;stroke-width:0.9;stroke-miterlimit:22.9256}
    .str1 {stroke:#005DA2;stroke-width:0.9;stroke-miterlimit:22.9256}
    .fil0 {fill:none}
    .fil9 {fill:#005090}
    .fil10 {fill:#005DA2}
    .fil3 {fill:#0099CB}
    .fil1 {fill:#91BD3C}
    .fil2 {fill:#E12761}
    .fil4 {fill:#F7B91B}
    .fil11 {fill:#0F3769;fill-rule:nonzero}
    .fil8 {fill:url(#id0)}
    .fil6 {fill:url(#id1)}
    .fil5 {fill:url(#id2)}
    .fil7 {fill:url(#id3)}
   ]]>
  </style>
  <radialGradient id="id0" gradientUnits="userSpaceOnUse" gradientTransform="matrix(1.60975 -0 -0 1.60975 -892 -248)" cx="1463.5" cy="406.65" r="397.7" fx="1463.5" fy="406.65">
   <stop offset="0" style="stop-opacity:1; stop-color:white"/>
   <stop offset="1" style="stop-opacity:1; stop-color:#E12761"/>
  </radialGradient>
  <radialGradient id="id1" gradientUnits="userSpaceOnUse" gradientTransform="matrix(1.31999 -0 -0 1.32 -517 -157)" cx="1616.68" cy="489.17" r="504.43" fx="1616.68" fy="489.17">
   <stop offset="0" style="stop-opacity:1; stop-color:white"/>
   <stop offset="1" style="stop-opacity:1; stop-color:#F7B91B"/>
  </radialGradient>
  <radialGradient id="id2" gradientUnits="userSpaceOnUse" gradientTransform="matrix(1.31999 -0 -0 1.31999 -472 -176)" cx="1474.1" cy="551" r="543.13" fx="1474.1" fy="551">
   <stop offset="0" style="stop-opacity:1; stop-color:white"/>
   <stop offset="1" style="stop-opacity:1; stop-color:#0099CB"/>
  </radialGradient>
  <radialGradient id="id3" gradientUnits="userSpaceOnUse" gradientTransform="matrix(1.32 -0 -0 1.32 -504 -121)" cx="1576.28" cy="376.61" r="545.94" fx="1576.28" fy="376.61">
   <stop offset="0" style="stop-opacity:1; stop-color:white"/>
   <stop offset="1" style="stop-opacity:1; stop-color:#91BD3C"/>
  </radialGradient>
 </defs>
 <g id="Camada_x0020_1">
  <metadata id="CorelCorpID_0Corel-Layer"/>
  <rect class="fil0" width="1920" height="1080"/>
  <g id="Logo_x0020_horizontal">
   <g id="Simbolo">
    <path class="fil1" d="M1595.53 439.58c13.63,-4.95 24.35,-13.34 32.18,-25.17 7.45,-10.31 11.29,-25.64 11.52,-45.97 -0.64,-19.64 -4.44,-36.38 -11.4,-50.23 -3.94,-8.11 -7.7,-14.91 -11.29,-20.4 -4.26,19.49 -13.24,29.95 -20.28,34.57 -6.77,4.62 -18.18,8.97 -35.26,12.1 -6.1,1.03 -13.08,2.73 -20.94,5.1 -6.44,2.16 -11.68,4.69 -15.77,7.56 9.88,5.9 17.7,13.55 23.46,22.94 8.84,17.8 9.76,36.05 2.75,54.75 8.08,-2.27 16.08,-3.08 23.98,-2.44 7.96,0.64 14.98,3.04 21.05,7.19z"/>
    <path class="fil2" d="M1550.5 434.83c7.01,-18.7 6.09,-36.95 -2.75,-54.75 -5.76,-9.39 -13.58,-17.04 -23.46,-22.94 -2.06,-1.23 -4.21,-2.39 -6.44,-3.46 -11.35,-5.48 -25,-9 -40.95,-10.59 -27.77,-1.71 -50.16,1.6 -67.1,9.91 11.98,4.66 20.74,10.15 26.19,16.48 8.84,8.98 12.8,25.03 11.87,48.16 1.01,19.22 4.44,31.23 10.05,36.08 11.74,-2.52 23.13,-2.8 34.2,-0.83 14.8,3.03 25.93,8 33.4,14.89 9.2,-6.2 15.75,-13.38 19.71,-21.45 2.09,-3.86 3.85,-7.69 5.28,-11.5z"/>
    <path class="fil3" d="M1525.51 467.78c-7.47,-6.89 -18.6,-11.86 -33.4,-14.89 -11.07,-1.97 -22.46,-1.69 -34.2,0.83 -4.6,0.99 -9.26,2.33 -13.96,4.01 -16.14,7.3 -27.2,18.59 -33.18,33.87 -5.7,16.08 -7.39,32.67 -5.07,49.78 2.71,19.9 10.16,38.94 22.35,57.14 1.31,-5.24 2.47,-9.38 3.45,-12.44 4,-11.83 9.99,-19.82 17.98,-23.96 5.53,-3.83 13.21,-6.75 23.04,-8.76 4.62,-0.87 9.69,-1.94 15.21,-3.23 13.49,-2.91 24.01,-6.52 31.57,-10.83 2.45,-1.41 4.68,-2.96 6.71,-4.63 0.21,-0.17 0.41,-0.34 0.61,-0.51 9.03,-7.72 13.73,-18.1 14.11,-31.15 -0.14,-12.7 -4.75,-23.99 -13.83,-33.87 -0.45,-0.46 -0.91,-0.92 -1.39,-1.36z"/>
    <path class="fil4" d="M1545.22 446.33c-3.96,8.07 -10.51,15.25 -19.71,21.45 0.48,0.44 0.94,0.9 1.39,1.36 9.08,9.88 13.69,21.17 13.83,33.87 -0.38,13.05 -5.08,23.43 -14.11,31.15 13.53,15.61 34.71,24.31 63.53,26.11 27.95,0.6 53.3,-5.13 76.05,-17.16 -18.47,-4.41 -30.84,-12.09 -37.1,-23.05 -4.54,-8.45 -7.84,-20.12 -9.91,-35.02 -3.12,-17.48 -8.03,-29.92 -14.75,-37.33 -2.7,-3.21 -5.67,-5.92 -8.91,-8.13 -6.07,-4.15 -13.09,-6.55 -21.05,-7.19 -7.9,-0.64 -15.9,0.17 -23.98,2.44 -1.43,3.81 -3.19,7.64 -5.28,11.5z"/>
    <path class="fil5" d="M1526.01 534.67c-2.03,1.67 -4.26,3.22 -6.71,4.63 -7.56,4.31 -18.08,7.92 -31.57,10.83 -5.52,1.29 -10.59,2.36 -15.21,3.23 -9.83,2.01 -17.51,4.93 -23.04,8.76 -7.99,4.14 -13.98,12.13 -17.98,23.96 -0.98,3.06 -2.14,7.2 -3.45,12.44 5.53,13.39 17.78,26.14 36.75,38.25 18.43,11.72 40.32,19.2 65.67,22.47 26.57,2.68 49.08,0.1 67.52,-7.72 20.33,-7.81 30.43,-16.49 30.3,-26.04 -0.4,-9.54 -10.77,-16.44 -31.11,-20.68 -8.97,-1.77 -15.69,-3.26 -20.16,-4.49 -10.38,-3.22 -22.36,-9.12 -34.45,-20.91 -11.28,-14.1 -16.8,-29.02 -16.56,-44.73z"/>
    <path class="fil6" d="M1619.19 485.04c2.07,14.9 5.37,26.57 9.91,35.02 6.26,10.96 18.63,18.64 37.1,23.05 19,-7.51 34.79,-19.69 47.35,-36.53 13.5,-17.76 22.1,-39.27 25.81,-64.52 3.14,-24.09 -0.47,-46.13 -10.83,-66.13 -5.43,-11.13 -12.42,-17.39 -20.97,-18.78 -7.15,-0.39 -13.68,4.99 -19.59,16.13 -2.7,6.05 -6.69,17.15 -11.98,33.3 -4.61,10 -11.29,18.52 -20.05,25.57 -7.6,6.09 -16.55,10.5 -26.85,13.25 -7.46,1.91 -15.68,2.68 -24.65,2.31 6.72,7.41 11.63,19.85 14.75,37.33z"/>
    <path class="fil7" d="M1561 344.48c17.08,-3.13 28.49,-7.48 35.26,-12.1 7.04,-4.62 16.02,-15.08 20.28,-34.57 -8.44,-16.82 -22.68,-30.98 -42.72,-42.48 -20.24,-11.19 -43.47,-17.8 -69.71,-19.82 -25.31,-0.73 -47.16,3.23 -65.55,11.87 -16.09,8.09 -23.84,15.93 -23.28,23.5 -0.07,8.26 9.11,14.75 27.54,19.48 6.06,1.32 14.55,3.12 25.46,5.41 16.3,6.01 28.86,14.88 37.68,26.61 6.59,9.58 10.55,20.01 11.89,31.3 2.23,1.07 4.38,2.23 6.44,3.46 4.09,-2.87 9.33,-5.4 15.77,-7.56 7.86,-2.37 14.84,-4.07 20.94,-5.1z"/>
    <path class="fil8" d="M1447.86 417.64c0.93,-23.13 -3.03,-39.18 -11.87,-48.16 -5.45,-6.33 -14.21,-11.82 -26.19,-16.48 -8.26,0.25 -20.61,5.71 -37.06,16.36 -15.55,11.67 -27.8,25.61 -36.75,41.83 -9.9,16.66 -15.85,36.29 -17.86,58.87 -0.13,16.12 1.98,29.79 6.34,41.02 5.34,13.34 11.98,20.25 19.93,20.73 6.6,-0.22 12.66,-4.06 18.2,-11.52 4.09,-5.53 7.93,-12.52 11.52,-20.97 4.32,-11.16 10.58,-20.26 18.78,-27.3 15.97,-15.26 37.71,-21.37 65.01,-18.3 -5.61,-4.85 -9.04,-16.86 -10.05,-36.08z"/>
   </g>
   <g id="Tipo">
    <path class="fil9 str0" d="M208.89 414.6l66.39 -23.7c-11.26,-11.12 -19.26,-22.24 -23.99,-33.37l-63.08 31.17c5.19,9.13 12.09,17.76 20.68,25.9z"/>
    <path class="fil9 str0" d="M326.32 330.82l0 41.85 71.33 -25.47 0 -20.02c-2.08,-15.37 -5.94,-26.8 -11.41,-36.34l-61.92 30.6c0.85,2.9 1.52,6.03 2,9.38z"/>
    <path class="fil9 str0" d="M482.51 250.94l-13.97 70.95 113.64 -40.58 -7.19 -38.49 -81.47 0 -1.08 0c-5.42,0.17 -8.73,2.87 -9.93,8.12z"/>
    <polygon class="fil9 str0" points="674.69,242.82 674.69,248.28 689.98,242.82 "/>
    <path class="fil9 str0" d="M366.63 478.16c-11,-14.53 -24.91,-29.68 -41.74,-45.45l-79.54 17.79c11.92,11.21 25.23,23.29 39.92,36.25l81.36 -8.59z"/>
    <polygon class="fil9 str0" points="452.35,404.2 439.3,470.48 514.41,462.55 529.14,387.93 543.4,459.49 614.09,452.02 599.02,371.39 "/>
    <polygon class="fil9 str0" points="674.69,354.46 674.69,445.62 832.76,428.92 832.76,421.97 746.03,421.97 746.03,338.51 "/>
    <path class="fil9 str0" d="M885.86 348.78c0.97,25.91 12.23,48.81 33.75,68.7 0.65,0.68 1.3,1.37 1.96,2.06l84.28 -8.9c-32.61,-24.52 -49.33,-49.06 -50.17,-73.61 2.21,-26.12 15.86,-40.17 40.94,-42.15 22.66,0.97 36.13,15.56 39.6,39.72l0 57.17 70.93 -3.66 0 -59.19c-7.08,-45.18 -13.67,-48.83 -31.85,-64.07l-183.83 41.12c-2.46,6.61 -4.35,14.13 -5.61,22.95l0 19.86z"/>
    <polygon class="fil9 str0" points="1189.63,300.38 1189.63,391.22 1261.78,383.6 1261.78,300.38 1329.06,300.38 1329.06,242.82 1173.78,242.82 1122.35,254.33 1122.35,300.38 "/>
    <path class="fil9 str0" d="M396.6 540.6c-2.67,-16.49 -10.32,-34.05 -22.96,-52.67l-84.59 2.15c0.16,0.14 0.33,0.29 0.5,0.44 16.88,14.34 28.41,28.96 34.59,43.87l72.46 6.21z"/>
    <path class="fil9 str0" d="M436.18 486.34l-11.16 56.69 209.43 17.93 -14.82 -79.28 -71.45 1.81 1.51 7.57c0.48,6.34 -2.09,9.52 -7.7,9.54 -0.05,0 -0.09,0 -0.13,0l-25.54 0c-6.03,0.1 -8.54,-3.11 -7.53,-9.64l1.29 -6.5 -73.9 1.88z"/>
    <polygon class="fil9 str0" points="674.69,480.28 674.69,564.4 746.03,570.51 746.03,480.34 832.76,480.34 832.76,476.26 "/>
    <path class="fil9 str0" d="M999.05 492.26c26.53,22.54 39.84,45.78 39.92,69.72 -0.43,13.9 -3.29,24.85 -8.57,32.87l71.95 6.16c4.82,-11.33 7.97,-24.27 8.86,-39.24l0 -7.09c0.33,-25.74 -14.15,-53.59 -41.24,-84.44l-93.01 2.36c6.99,6.32 14.35,12.88 22.09,19.66z"/>
    <path class="fil9 str0" d="M955.57 563.19l0 -60.86 -57.31 5.4 -2.51 0.24c-7.24,1.18 -9.65,6.55 -9.89,15.96l0 39.07c0.62,6.63 1.61,13.25 2.93,19.73l72.73 6.22c-3.06,-6.95 -5.05,-15.54 -5.95,-25.76z"/>
    <polygon class="fil9 str0" points="1189.63,467.2 1189.63,608.48 1261.78,614.65 1261.78,465.37 "/>
    <path class="fil9 str0" d="M1052.52 655.72l-129.75 -8.92c0.57,0.39 1.15,0.75 1.74,1.1 14.08,9.85 33.12,19.1 73.3,20.2 28.1,-1.37 43,-5.94 54.71,-12.38z"/>
    <polygon class="fil9 str0" points="869.24,661.51 869.24,643.13 674.69,629.75 674.69,661.51 "/>
    <polygon class="fil9 str0" points="653.25,661.51 646.95,627.84 575.96,622.96 583.65,661.51 "/>
    <path class="fil9 str0" d="M475.11 661.51l8.86 -44.87 -72.45 -4.98 -6.08 30.89 -0.95 4.84c-1.01,8.37 2.29,13.08 9.9,14.12l60.72 0z"/>
    <path class="fil9 str0" d="M360.47 646.26c12.5,-9.19 22,-20.84 28.32,-36.17l-80.43 -5.53c-6.1,3.24 -13.52,4.88 -22.26,4.91 -9.74,-0.04 -17.73,-2.74 -23.96,-8.08l-81.85 -5.63c6.04,23.81 18.11,40.53 34.72,50.4 12.55,7.46 27.37,16.64 69.26,20.4 42.69,-2.09 50.43,-5.05 76.2,-20.3z"/>
    <path class="fil9 str0" d="M176.37 521.74l69.7 5.97 0 -25.63 -55.49 4 -1.76 0.13c-7.94,0.9 -12.09,6.08 -12.45,15.53z"/>
    <path class="fil10 str1" d="M188.21 388.7l63.08 -31.17c-3.15,-7.42 -4.86,-14.83 -5.11,-22.25 2.21,-26.12 15.86,-40.17 40.94,-42.15 19.52,0.84 31.92,10.28 37.2,28.31l61.92 -30.6c-6.98,-12.17 -16.59,-21.27 -28.51,-31.55 -20.12,-14.56 -29.05,-21.23 -67.57,-22.45 -40.79,1.22 -50.25,7.89 -71.54,22.45 -22.52,18.34 -37.24,32.9 -42.27,67.89l0 19.86c0.57,14.88 4.52,28.76 11.86,41.66z"/>
    <path class="fil10 str1" d="M275.28 390.9l-66.39 23.7c0.4,0.38 0.81,0.76 1.22,1.14 9.96,10.45 21.71,22.04 35.24,34.76l79.54 -17.79c-5.88,-5.52 -12.12,-11.1 -18.72,-16.77 -12.14,-8.35 -22.44,-16.69 -30.89,-25.04z"/>
    <polygon class="fil10 str1" points="326.32,372.67 326.32,393.69 397.65,386.36 397.65,347.2 "/>
    <polygon class="fil10 str1" points="468.54,321.89 452.35,404.2 599.02,371.39 582.18,281.31 "/>
    <polygon class="fil10 str1" points="674.69,248.28 674.69,354.46 746.03,338.51 746.03,300.38 863.57,300.38 863.57,242.82 689.98,242.82 "/>
    <path class="fil10 str1" d="M928.12 261.03c-16.84,13.72 -29.32,25.33 -36.65,44.94l183.83 -41.12c-1.28,-1.07 -2.62,-2.2 -4.02,-3.41 -20.11,-14.56 -33.1,-21.64 -71.62,-22.85 -40.79,1.21 -50.25,7.89 -71.54,22.44z"/>
    <polygon class="fil10 str1" points="832.76,428.92 674.69,445.62 674.69,480.28 832.76,476.26 "/>
    <polygon class="fil10 str1" points="619.63,481.68 614.09,452.02 543.4,459.49 548.18,483.49 "/>
    <polygon class="fil10 str1" points="510.08,484.46 514.41,462.55 439.3,470.48 436.18,486.34 "/>
    <path class="fil10 str1" d="M373.64 487.93c-2.19,-3.23 -4.53,-6.48 -7.01,-9.77l-81.36 8.59c1.25,1.1 2.51,2.21 3.78,3.33l84.59 -2.15z"/>
    <path class="fil10 str1" d="M246.07 561.45l0 -33.74 -69.7 -5.97c-0.01,0.15 -0.01,0.3 -0.02,0.44l0 47.83c0.63,9.35 1.96,17.93 3.94,25.75l81.85 5.63c-9.04,-7.75 -14.4,-21.06 -16.07,-39.94z"/>
    <path class="fil10 str1" d="M329.47 560.23c-0.7,22.46 -7.73,37.24 -21.11,44.33l80.43 5.53c4.89,-11.86 7.87,-25.93 8.86,-42.77l0 -12.77c0.06,-4.56 -0.29,-9.21 -1.05,-13.95l-72.46 -6.21c3.52,8.52 5.3,17.14 5.33,25.84z"/>
    <path class="fil10 str1" d="M425.02 543.03l-13.5 68.63 72.45 4.98 9.12 -46.18 0.01 -0.02c0.06,-0.33 0.12,-0.65 0.19,-0.96 1.01,-4.6 3.22,-7.02 6.62,-7.27 0.39,-0.03 0.79,-0.03 1.21,0l54.72 0c0.28,-0.01 0.56,-0.01 0.84,0 4.31,0.16 7.25,2.91 8.82,8.25l10.46 52.5 70.99 4.88 -12.5 -66.88 -209.43 -17.93z"/>
    <polygon class="fil10 str1" points="674.69,564.4 674.69,629.75 869.24,643.13 869.24,604.46 746.03,604.46 746.03,570.51 "/>
    <path class="fil10 str1" d="M888.79 582.73c5.7,27.95 17.64,53.16 33.98,64.07l129.75 8.92c6.07,-3.34 11.29,-7.19 17.05,-11.36 13.45,-11.59 25.18,-25.48 32.78,-43.35l-71.95 -6.16c-7.16,10.84 -18.75,16.3 -34.8,16.37 -16.22,-0.08 -27.58,-7.5 -34.08,-22.27l-72.73 -6.22z"/>
    <path class="fil10 str1" d="M976.96 472.6l93.01 -2.36c-14.57,-16.6 -32.78,-34.07 -54.3,-52.55 -3.42,-2.35 -6.69,-4.7 -9.82,-7.05l-84.28 8.9c14.74,15.33 33.2,33.01 55.39,53.06z"/>
    <polygon class="fil10 str1" points="1189.63,391.22 1189.63,467.2 1261.78,465.37 1261.78,383.6 "/>
    <polygon class="fil10 str1" points="1261.78,614.65 1189.63,608.48 1189.63,661.51 1261.78,661.51 "/>
    <polygon class="fil10 str1" points="1122.35,254.33 1173.78,242.82 1122.35,242.82 "/>
   </g>
   <path class="fil11" d="M295.84 752.88c0,-3.11 -0.66,-5.51 -1.97,-7.18 -1.31,-1.66 -3.68,-3.28 -7.11,-4.87 -3.44,-1.57 -6.06,-3.23 -7.87,-4.96 -1.81,-1.74 -3.17,-3.72 -4.07,-5.96 -0.9,-2.22 -1.36,-4.77 -1.36,-7.64 0,-4.97 1.29,-9.06 3.87,-12.28 2.56,-3.22 5.94,-4.82 10.1,-4.82 2.85,0 5.38,0.82 7.61,2.47 2.23,1.64 3.94,3.93 5.15,6.86 1.19,2.92 1.8,6.14 1.8,9.64l-6.15 0c0,-3.88 -0.72,-6.88 -2.16,-9 -1.45,-2.13 -3.54,-3.18 -6.25,-3.18 -2.47,0 -4.39,0.89 -5.75,2.67 -1.35,1.78 -2.04,4.28 -2.04,7.49 0,2.65 0.74,4.87 2.21,6.65 1.46,1.79 3.74,3.38 6.81,4.79 4.79,2.04 8.21,4.55 10.27,7.54 2.06,2.98 3.09,6.89 3.09,11.73 0,5.08 -1.28,9.15 -3.84,12.21 -2.55,3.06 -6.04,4.58 -10.46,4.58 -2.82,0 -5.43,-0.79 -7.83,-2.39 -2.39,-1.6 -4.27,-3.85 -5.64,-6.73 -1.37,-2.9 -2.05,-6.2 -2.05,-9.94l6.14 0c0,3.88 0.85,6.9 2.52,9.04 1.69,2.16 3.97,3.23 6.86,3.23 2.71,0 4.73,-0.89 6.08,-2.67 1.36,-1.78 2.04,-4.2 2.04,-7.28z"/>
   <path id="1" class="fil11" d="M327.62 764.67c-1.96,3.31 -4.82,4.95 -8.58,4.95 -3.27,0 -5.75,-1.45 -7.42,-4.36 -1.66,-2.93 -2.51,-7.16 -2.53,-12.73l0 -30.35 5.87 0 0 29.76c0,7.26 1.7,10.89 5.08,10.89 3.58,0 6.06,-2.07 7.41,-6.2l0 -34.45 5.92 0 0 46.56 -5.61 0 -0.14 -4.07z"/>
   <path id="2" class="fil11" d="M368.37 747.7c0,7.37 -1.03,12.89 -3.09,16.5 -2.05,3.62 -4.97,5.42 -8.73,5.42 -3.63,0 -6.42,-1.76 -8.38,-5.29l0 22.31 -5.89 0 0 -64.46 5.35 0 0.3 5.15c1.98,-4.01 4.82,-6.03 8.51,-6.03 3.97,0 6.94,1.78 8.9,5.34 1.96,3.57 2.96,8.89 3.03,15.99l0 5.07zm-5.87 -4.34c0,-5.22 -0.63,-9.07 -1.87,-11.55 -1.26,-2.48 -3.26,-3.72 -6.02,-3.72 -2.83,0 -4.97,1.82 -6.44,5.47l0 24.2c1.45,3.56 3.61,5.34 6.51,5.34 2.66,0 4.64,-1.24 5.89,-3.72 1.27,-2.48 1.9,-6.27 1.93,-11.37l0 -4.65z"/>
   <path id="3" class="fil11" d="M388.91 769.62c-4.5,0 -7.96,-1.73 -10.36,-5.18 -2.4,-3.47 -3.63,-8.54 -3.67,-15.23l0 -5.64c0,-6.95 1.17,-12.39 3.52,-16.35 2.35,-3.95 5.63,-5.92 9.84,-5.92 4.23,0 7.39,1.74 9.48,5.22 2.1,3.47 3.16,8.89 3.21,16.24l0 5 -20.17 0 0 1.07c0,4.98 0.73,8.61 2.19,10.87 1.46,2.27 3.56,3.4 6.29,3.4 1.73,0 3.27,-0.43 4.6,-1.27 1.32,-0.85 2.56,-2.17 3.72,-4.01l3.07 4.82c-2.57,4.66 -6.46,6.98 -11.72,6.98zm-0.67 -41.79c-2.45,0 -4.27,1.08 -5.44,3.26 -1.18,2.17 -1.86,5.56 -2.01,10.14l14.23 0 0 -1.04c-0.16,-4.44 -0.78,-7.6 -1.86,-9.51 -1.07,-1.9 -2.72,-2.85 -4.92,-2.85z"/>
   <path id="4" class="fil11" d="M422.95 729.28c-0.82,-0.2 -1.72,-0.31 -2.68,-0.31 -3.02,0 -5.14,2.15 -6.34,6.43l0 33.34 -5.91 0 0 -46.56 5.74 0 0.1 4.72c1.59,-3.73 3.82,-5.6 6.72,-5.6 0.93,0 1.71,0.21 2.34,0.61l0.03 7.37z"/>
   <path id="5" class="fil11" d="M435.21 768.74l-5.91 0 0 -46.56 5.91 0 0 46.56zm0.46 -58.94c0,1.29 -0.27,2.38 -0.83,3.24 -0.56,0.87 -1.4,1.3 -2.54,1.3 -1.11,0 -1.94,-0.43 -2.5,-1.3 -0.56,-0.86 -0.84,-1.95 -0.84,-3.24 0,-1.3 0.28,-2.4 0.84,-3.3 0.56,-0.89 1.39,-1.33 2.5,-1.33 1.11,0 1.96,0.45 2.53,1.36 0.56,0.91 0.84,2 0.84,3.27z"/>
   <path id="6" class="fil11" d="M450.07 722.18l0.17 5.02c2.29,-3.93 5.22,-5.9 8.79,-5.9 6.38,0 9.62,5.5 9.71,16.49l0 30.95 -5.88 0 0 -30.58c0,-3.65 -0.47,-6.23 -1.41,-7.76 -0.95,-1.54 -2.37,-2.31 -4.27,-2.31 -1.46,0 -2.78,0.63 -3.95,1.9 -1.17,1.26 -2.11,2.91 -2.82,4.94l0 33.81 -5.92 0 0 -46.56 5.58 0z"/>
   <path id="7" class="fil11" d="M485.32 710.9l0 11.28 5.45 0 0 6.18 -5.45 0 0 28.87c0,1.84 0.24,3.24 0.71,4.18 0.46,0.95 1.26,1.42 2.4,1.42 0.78,0 1.56,-0.17 2.37,-0.51l-0.07 6.45c-1.33,0.56 -2.7,0.85 -4.11,0.85 -2.34,0 -4.12,-1.07 -5.34,-3.23 -1.23,-2.15 -1.83,-5.19 -1.83,-9.11l0 -28.92 -5.52 0 0 -6.18 5.52 0 0 -11.28 5.87 0z"/>
   <path id="8" class="fil11" d="M510.71 769.62c-4.51,0 -7.96,-1.73 -10.36,-5.18 -2.4,-3.47 -3.63,-8.54 -3.68,-15.23l0 -5.64c0,-6.95 1.18,-12.39 3.53,-16.35 2.34,-3.95 5.63,-5.92 9.83,-5.92 4.23,0 7.39,1.74 9.49,5.22 2.1,3.47 3.16,8.89 3.2,16.24l0 5 -20.16 0 0 1.07c0,4.98 0.73,8.61 2.19,10.87 1.45,2.27 3.55,3.4 6.29,3.4 1.73,0 3.27,-0.43 4.59,-1.27 1.32,-0.85 2.57,-2.17 3.73,-4.01l3.07 4.82c-2.57,4.66 -6.47,6.98 -11.72,6.98zm-0.68 -41.79c-2.45,0 -4.26,1.08 -5.43,3.26 -1.19,2.17 -1.86,5.56 -2.01,10.14l14.23 0 0 -1.04c-0.16,-4.44 -0.78,-7.6 -1.86,-9.51 -1.07,-1.9 -2.73,-2.85 -4.93,-2.85z"/>
   <path id="9" class="fil11" d="M535.4 722.18l0.17 5.02c2.29,-3.93 5.22,-5.9 8.79,-5.9 6.38,0 9.62,5.5 9.71,16.49l0 30.95 -5.88 0 0 -30.58c0,-3.65 -0.47,-6.23 -1.41,-7.76 -0.95,-1.54 -2.37,-2.31 -4.27,-2.31 -1.46,0 -2.78,0.63 -3.95,1.9 -1.17,1.26 -2.11,2.91 -2.82,4.94l0 33.81 -5.92 0 0 -46.56 5.58 0z"/>
   <path id="10" class="fil11" d="M561.68 743.35c0,-7.17 1.03,-12.64 3.12,-16.4 2.09,-3.77 5.07,-5.65 8.97,-5.65 3.45,0 6.15,1.81 8.08,5.43l0 -24.12 5.91 0 0 66.13 -5.4 0 -0.31 -4.98c-1.94,3.91 -4.71,5.86 -8.31,5.86 -3.74,0 -6.68,-1.86 -8.8,-5.61 -2.14,-3.75 -3.22,-9.04 -3.26,-15.87l0 -4.79zm5.91 4.32c0,5.21 0.6,9.05 1.8,11.49 1.2,2.45 3.16,3.67 5.88,3.67 2.94,0 5.14,-1.91 6.58,-5.71l0 -23.44c-1.51,-3.72 -3.7,-5.59 -6.55,-5.59 -2.71,0 -4.67,1.22 -5.87,3.68 -1.21,2.44 -1.81,6.2 -1.84,11.27l0 4.63z"/>
   <path id="11" class="fil11" d="M609.77 769.62c-4.5,0 -7.95,-1.73 -10.36,-5.18 -2.39,-3.47 -3.63,-8.54 -3.67,-15.23l0 -5.64c0,-6.95 1.17,-12.39 3.52,-16.35 2.35,-3.95 5.63,-5.92 9.84,-5.92 4.23,0 7.39,1.74 9.48,5.22 2.1,3.47 3.16,8.89 3.21,16.24l0 5 -20.17 0 0 1.07c0,4.98 0.73,8.61 2.19,10.87 1.46,2.27 3.56,3.4 6.29,3.4 1.74,0 3.27,-0.43 4.6,-1.27 1.32,-0.85 2.56,-2.17 3.73,-4.01l3.06 4.82c-2.56,4.66 -6.46,6.98 -11.72,6.98zm-0.67 -41.79c-2.45,0 -4.26,1.08 -5.44,3.26 -1.18,2.17 -1.86,5.56 -2,10.14l14.22 0 0 -1.04c-0.16,-4.44 -0.77,-7.6 -1.86,-9.51 -1.07,-1.9 -2.72,-2.85 -4.92,-2.85zm8.62 -13.44l0 0.43 -4.74 0.05 -4.02 -7.34 -4.01 7.34 -4.74 -0.05 0 -0.51 6.99 -11.7 3.5 0 7.02 11.78z"/>
   <path id="12" class="fil11" d="M634.46 722.18l0.18 5.02c2.29,-3.93 5.22,-5.9 8.78,-5.9 6.39,0 9.63,5.5 9.72,16.49l0 30.95 -5.88 0 0 -30.58c0,-3.65 -0.47,-6.23 -1.42,-7.76 -0.95,-1.54 -2.37,-2.31 -4.26,-2.31 -1.46,0 -2.78,0.63 -3.96,1.9 -1.16,1.26 -2.11,2.91 -2.81,4.94l0 33.81 -5.92 0 0 -46.56 5.57 0z"/>
   <path id="13" class="fil11" d="M674.55 763.1c1.95,0 3.52,-0.78 4.71,-2.34 1.17,-1.57 1.82,-3.79 1.93,-6.69l5.58 0c-0.14,4.49 -1.37,8.19 -3.69,11.14 -2.33,2.94 -5.17,4.41 -8.53,4.41 -4.48,0 -7.89,-1.82 -10.24,-5.45 -2.35,-3.63 -3.52,-9.04 -3.52,-16.21l0 -5.13c0,-7.02 1.16,-12.37 3.5,-16.03 2.33,-3.66 5.74,-5.5 10.22,-5.5 3.7,0 6.63,1.52 8.8,4.53 2.17,3.01 3.32,7.13 3.46,12.36l-5.58 0c-0.13,-3.46 -0.77,-6.04 -1.92,-7.78 -1.14,-1.72 -2.74,-2.58 -4.76,-2.58 -2.63,0 -4.58,1.11 -5.85,3.33 -1.26,2.24 -1.92,5.88 -1.97,10.97l0 5.93c0,5.49 0.63,9.37 1.9,11.63 1.25,2.28 3.23,3.41 5.96,3.41z"/>
   <path id="14" class="fil11" d="M699.95 768.74l-5.91 0 0 -46.56 5.91 0 0 46.56zm0.46 -58.94c0,1.29 -0.27,2.38 -0.83,3.24 -0.56,0.87 -1.4,1.3 -2.54,1.3 -1.11,0 -1.94,-0.43 -2.5,-1.3 -0.56,-0.86 -0.84,-1.95 -0.84,-3.24 0,-1.3 0.28,-2.4 0.84,-3.3 0.56,-0.89 1.39,-1.33 2.5,-1.33 1.12,0 1.96,0.45 2.53,1.36 0.56,0.91 0.84,2 0.84,3.27z"/>
   <path id="15" class="fil11" d="M727.84 768.74c-0.36,-1 -0.61,-2.69 -0.77,-5.05 -2.09,3.95 -4.77,5.93 -8.02,5.93 -3.27,0 -5.82,-1.19 -7.66,-3.55 -1.83,-2.37 -2.76,-5.7 -2.76,-10.01 0,-4.73 1.25,-8.5 3.74,-11.27 2.5,-2.78 5.92,-4.21 10.26,-4.26l4.33 0 0 -4.97c0,-2.79 -0.48,-4.78 -1.43,-5.97 -0.96,-1.17 -2.42,-1.76 -4.37,-1.76 -1.79,0 -3.24,0.69 -4.34,2.05 -1.12,1.37 -1.68,3.11 -1.68,5.21l-5.9 0c0,-2.38 0.54,-4.66 1.63,-6.82 1.09,-2.18 2.56,-3.88 4.41,-5.12 1.85,-1.23 3.91,-1.85 6.18,-1.85 3.69,0 6.51,1.19 8.43,3.56 1.93,2.36 2.91,5.82 2.96,10.34l0 23.5c0.02,3.6 0.39,6.71 1.14,9.35l0 0.69 -6.15 0zm-7.89 -6.08c1.45,0 2.83,-0.52 4.14,-1.55 1.32,-1.02 2.28,-2.32 2.87,-3.86l0 -11.08 -3.34 0c-2.8,0.06 -5.01,0.87 -6.64,2.42 -1.62,1.56 -2.44,3.75 -2.44,6.56 0,2.63 0.42,4.54 1.24,5.73 0.82,1.19 2.21,1.78 4.17,1.78z"/>
   <path id="16" class="fil11" d="M756.42 743.35c0,-7.17 1.04,-12.64 3.12,-16.4 2.09,-3.77 5.08,-5.65 8.98,-5.65 3.44,0 6.14,1.81 8.08,5.43l0 -24.12 5.9 0 0 66.13 -5.4 0 -0.31 -4.98c-1.93,3.91 -4.7,5.86 -8.31,5.86 -3.74,0 -6.68,-1.86 -8.8,-5.61 -2.13,-3.75 -3.21,-9.04 -3.26,-15.87l0 -4.79zm5.92 4.32c0,5.21 0.59,9.05 1.8,11.49 1.2,2.45 3.16,3.67 5.87,3.67 2.94,0 5.14,-1.91 6.59,-5.71l0 -23.44c-1.52,-3.72 -3.71,-5.59 -6.56,-5.59 -2.71,0 -4.67,1.22 -5.87,3.68 -1.21,2.44 -1.81,6.2 -1.83,11.27l0 4.63z"/>
   <path id="17" class="fil11" d="M804.52 769.62c-4.51,0 -7.96,-1.73 -10.36,-5.18 -2.4,-3.47 -3.63,-8.54 -3.68,-15.23l0 -5.64c0,-6.95 1.18,-12.39 3.53,-16.35 2.34,-3.95 5.63,-5.92 9.83,-5.92 4.23,0 7.39,1.74 9.49,5.22 2.1,3.47 3.16,8.89 3.2,16.24l0 5 -20.16 0 0 1.07c0,4.98 0.73,8.61 2.19,10.87 1.45,2.27 3.55,3.4 6.29,3.4 1.73,0 3.27,-0.43 4.59,-1.27 1.32,-0.85 2.57,-2.17 3.73,-4.01l3.07 4.82c-2.57,4.66 -6.47,6.98 -11.72,6.98zm-0.68 -41.79c-2.45,0 -4.26,1.08 -5.43,3.26 -1.19,2.17 -1.86,5.56 -2.01,10.14l14.23 0 0 -1.04c-0.16,-4.44 -0.78,-7.6 -1.86,-9.51 -1.07,-1.9 -2.73,-2.85 -4.93,-2.85z"/>
   <path id="18" class="fil11" d="M862.8 752.34l-16.43 0 -3.78 16.4 -6.27 0 15.67 -62.69 5.23 0 15.7 62.69 -6.27 0 -3.85 -16.4zm-14.83 -6.79l13.26 0 -6.65 -28.48 -6.61 28.48z"/>
   <path id="19" class="fil11" d="M896.29 756.82c0,-1.63 -0.48,-3.04 -1.44,-4.21 -0.96,-1.18 -2.8,-2.56 -5.54,-4.13 -3.19,-1.69 -5.43,-3.15 -6.74,-4.35 -1.3,-1.21 -2.27,-2.58 -2.92,-4.12 -0.65,-1.53 -0.97,-3.36 -0.97,-5.48 0,-3.79 1.08,-6.95 3.23,-9.47 2.14,-2.51 4.89,-3.76 8.23,-3.76 3.52,0 6.35,1.32 8.48,3.97 2.15,2.63 3.21,6.03 3.21,10.16l-5.88 0c0,-2.11 -0.54,-3.9 -1.64,-5.38 -1.08,-1.49 -2.48,-2.22 -4.17,-2.22 -1.73,0 -3.1,0.57 -4.09,1.73 -0.99,1.16 -1.48,2.72 -1.48,4.66 0,1.54 0.35,2.79 1.08,3.73 0.72,0.94 2.46,2.19 5.22,3.74 4.39,2.22 7.38,4.38 8.96,6.49 1.57,2.12 2.37,4.81 2.37,8.06 0,4.05 -1.08,7.3 -3.25,9.74 -2.15,2.42 -5.05,3.64 -8.67,3.64 -3.76,0 -6.82,-1.39 -9.16,-4.17 -2.33,-2.79 -3.51,-6.32 -3.51,-10.6l5.95 0c0.07,2.58 0.68,4.6 1.84,6.06 1.16,1.45 2.78,2.19 4.88,2.19 1.96,0 3.44,-0.57 4.47,-1.71 1.02,-1.13 1.54,-2.66 1.54,-4.57z"/>
   <path id="20" class="fil11" d="M927.44 756.82c0,-1.63 -0.48,-3.04 -1.43,-4.21 -0.96,-1.18 -2.81,-2.56 -5.55,-4.13 -3.19,-1.69 -5.42,-3.15 -6.73,-4.35 -1.3,-1.21 -2.27,-2.58 -2.92,-4.12 -0.65,-1.53 -0.97,-3.36 -0.97,-5.48 0,-3.79 1.07,-6.95 3.23,-9.47 2.14,-2.51 4.89,-3.76 8.23,-3.76 3.52,0 6.35,1.32 8.48,3.97 2.14,2.63 3.2,6.03 3.2,10.16l-5.87 0c0,-2.11 -0.55,-3.9 -1.64,-5.38 -1.08,-1.49 -2.49,-2.22 -4.17,-2.22 -1.74,0 -3.1,0.57 -4.09,1.73 -1,1.16 -1.49,2.72 -1.49,4.66 0,1.54 0.36,2.79 1.09,3.73 0.71,0.94 2.46,2.19 5.22,3.74 4.39,2.22 7.37,4.38 8.96,6.49 1.57,2.12 2.37,4.81 2.37,8.06 0,4.05 -1.08,7.3 -3.25,9.74 -2.16,2.42 -5.05,3.64 -8.68,3.64 -3.76,0 -6.81,-1.39 -9.15,-4.17 -2.34,-2.79 -3.51,-6.32 -3.51,-10.6l5.95 0c0.07,2.58 0.67,4.6 1.83,6.06 1.17,1.45 2.79,2.19 4.88,2.19 1.97,0 3.45,-0.57 4.47,-1.71 1.03,-1.13 1.54,-2.66 1.54,-4.57z"/>
   <path id="21" class="fil11" d="M947.39 768.74l-5.9 0 0 -46.56 5.9 0 0 46.56zm0.47 -58.94c0,1.29 -0.27,2.38 -0.83,3.24 -0.56,0.87 -1.41,1.3 -2.54,1.3 -1.11,0 -1.94,-0.43 -2.5,-1.3 -0.56,-0.86 -0.85,-1.95 -0.85,-3.24 0,-1.3 0.29,-2.4 0.85,-3.3 0.56,-0.89 1.39,-1.33 2.5,-1.33 1.11,0 1.96,0.45 2.52,1.36 0.56,0.91 0.85,2 0.85,3.27z"/>
   <path id="22" class="fil11" d="M974.26 756.82c0,-1.63 -0.48,-3.04 -1.44,-4.21 -0.95,-1.18 -2.8,-2.56 -5.54,-4.13 -3.19,-1.69 -5.42,-3.15 -6.73,-4.35 -1.3,-1.21 -2.27,-2.58 -2.92,-4.12 -0.65,-1.53 -0.97,-3.36 -0.97,-5.48 0,-3.79 1.07,-6.95 3.23,-9.47 2.14,-2.51 4.89,-3.76 8.23,-3.76 3.52,0 6.35,1.32 8.48,3.97 2.14,2.63 3.2,6.03 3.2,10.16l-5.87 0c0,-2.11 -0.55,-3.9 -1.64,-5.38 -1.08,-1.49 -2.49,-2.22 -4.17,-2.22 -1.74,0 -3.11,0.57 -4.1,1.73 -0.99,1.16 -1.48,2.72 -1.48,4.66 0,1.54 0.35,2.79 1.08,3.73 0.72,0.94 2.47,2.19 5.23,3.74 4.38,2.22 7.37,4.38 8.96,6.49 1.57,2.12 2.37,4.81 2.37,8.06 0,4.05 -1.09,7.3 -3.25,9.74 -2.16,2.42 -5.05,3.64 -8.68,3.64 -3.76,0 -6.81,-1.39 -9.15,-4.17 -2.34,-2.79 -3.51,-6.32 -3.51,-10.6l5.95 0c0.07,2.58 0.67,4.6 1.83,6.06 1.17,1.45 2.78,2.19 4.88,2.19 1.96,0 3.45,-0.57 4.47,-1.71 1.03,-1.13 1.54,-2.66 1.54,-4.57z"/>
   <path id="23" class="fil11" d="M995.57 710.9l0 11.28 5.45 0 0 6.18 -5.45 0 0 28.87c0,1.84 0.24,3.24 0.7,4.18 0.47,0.95 1.27,1.42 2.41,1.42 0.77,0 1.56,-0.17 2.37,-0.51l-0.07 6.45c-1.33,0.56 -2.7,0.85 -4.11,0.85 -2.34,0 -4.12,-1.07 -5.34,-3.23 -1.23,-2.15 -1.83,-5.19 -1.83,-9.11l0 -28.92 -5.52 0 0 -6.18 5.52 0 0 -11.28 5.87 0z"/>
   <path id="24" class="fil11" d="M1020.96 769.62c-4.51,0 -7.96,-1.73 -10.37,-5.18 -2.39,-3.47 -3.62,-8.54 -3.67,-15.23l0 -5.64c0,-6.95 1.18,-12.39 3.52,-16.35 2.35,-3.95 5.64,-5.92 9.84,-5.92 4.23,0 7.39,1.74 9.49,5.22 2.1,3.47 3.15,8.89 3.2,16.24l0 5 -20.17 0 0 1.07c0,4.98 0.73,8.61 2.19,10.87 1.46,2.27 3.56,3.4 6.3,3.4 1.73,0 3.27,-0.43 4.59,-1.27 1.32,-0.85 2.56,-2.17 3.73,-4.01l3.06 4.82c-2.56,4.66 -6.46,6.98 -11.71,6.98zm-0.68 -41.79c-2.45,0 -4.26,1.08 -5.44,3.26 -1.18,2.17 -1.85,5.56 -2,10.14l14.23 0 0 -1.04c-0.16,-4.44 -0.78,-7.6 -1.86,-9.51 -1.07,-1.9 -2.73,-2.85 -4.93,-2.85zm8.62 -13.44l0 0.43 -4.74 0.05 -4.01 -7.34 -4.02 7.34 -4.74 -0.05 0 -0.51 6.99 -11.7 3.5 0 7.02 11.78z"/>
   <path id="25" class="fil11" d="M1045.65 722.18l0.17 5.02c2.29,-3.93 5.22,-5.9 8.79,-5.9 6.38,0 9.62,5.5 9.71,16.49l0 30.95 -5.88 0 0 -30.58c0,-3.65 -0.47,-6.23 -1.42,-7.76 -0.94,-1.54 -2.37,-2.31 -4.26,-2.31 -1.46,0 -2.78,0.63 -3.96,1.9 -1.16,1.26 -2.1,2.91 -2.81,4.94l0 33.81 -5.92 0 0 -46.56 5.58 0z"/>
   <path id="26" class="fil11" d="M1085.73 763.1c1.95,0 3.52,-0.78 4.71,-2.34 1.17,-1.57 1.82,-3.79 1.94,-6.69l5.57 0c-0.14,4.49 -1.37,8.19 -3.69,11.14 -2.33,2.94 -5.17,4.41 -8.53,4.41 -4.48,0 -7.89,-1.82 -10.24,-5.45 -2.35,-3.63 -3.52,-9.04 -3.52,-16.21l0 -5.13c0,-7.02 1.16,-12.37 3.5,-16.03 2.34,-3.66 5.75,-5.5 10.23,-5.5 3.69,0 6.62,1.52 8.8,4.53 2.16,3.01 3.31,7.13 3.45,12.36l-5.57 0c-0.14,-3.46 -0.78,-6.04 -1.93,-7.78 -1.14,-1.72 -2.74,-2.58 -4.75,-2.58 -2.64,0 -4.59,1.11 -5.85,3.33 -1.27,2.24 -1.93,5.88 -1.97,10.97l0 5.93c0,5.49 0.62,9.37 1.89,11.63 1.25,2.28 3.24,3.41 5.96,3.41z"/>
   <path id="27" class="fil11" d="M1111.13 768.74l-5.91 0 0 -46.56 5.91 0 0 46.56zm0.47 -58.94c0,1.29 -0.28,2.38 -0.84,3.24 -0.55,0.87 -1.4,1.3 -2.54,1.3 -1.1,0 -1.94,-0.43 -2.49,-1.3 -0.56,-0.86 -0.85,-1.95 -0.85,-3.24 0,-1.3 0.29,-2.4 0.85,-3.3 0.55,-0.89 1.39,-1.33 2.49,-1.33 1.12,0 1.96,0.45 2.53,1.36 0.56,0.91 0.85,2 0.85,3.27z"/>
   <path id="28" class="fil11" d="M1139.02 768.74c-0.36,-1 -0.61,-2.69 -0.77,-5.05 -2.09,3.95 -4.77,5.93 -8.02,5.93 -3.27,0 -5.82,-1.19 -7.66,-3.55 -1.83,-2.37 -2.76,-5.7 -2.76,-10.01 0,-4.73 1.25,-8.5 3.74,-11.27 2.5,-2.78 5.92,-4.21 10.26,-4.26l4.34 0 0 -4.97c0,-2.79 -0.48,-4.78 -1.44,-5.97 -0.96,-1.17 -2.42,-1.76 -4.37,-1.76 -1.79,0 -3.23,0.69 -4.34,2.05 -1.12,1.37 -1.68,3.11 -1.68,5.21l-5.9 0c0,-2.38 0.55,-4.66 1.63,-6.82 1.09,-2.18 2.56,-3.88 4.41,-5.12 1.85,-1.23 3.91,-1.85 6.18,-1.85 3.69,0 6.51,1.19 8.44,3.56 1.92,2.36 2.9,5.82 2.95,10.34l0 23.5c0.02,3.6 0.4,6.71 1.14,9.35l0 0.69 -6.15 0zm-7.88 -6.08c1.44,0 2.82,-0.52 4.13,-1.55 1.33,-1.02 2.28,-2.32 2.88,-3.86l0 -11.08 -3.34 0c-2.81,0.06 -5.02,0.87 -6.65,2.42 -1.62,1.56 -2.44,3.75 -2.44,6.56 0,2.63 0.42,4.54 1.24,5.73 0.82,1.19 2.21,1.78 4.18,1.78z"/>
   <polygon id="29" class="fil11" points="1192.99,739.82 1175.79,739.82 1175.79,761.95 1195.83,761.95 1195.83,768.74 1169.68,768.74 1169.68,706.05 1195.5,706.05 1195.5,712.84 1175.79,712.84 1175.79,733.03 1192.99,733.03 "/>
   <path id="30" class="fil11" d="M1220.38 756.82c0,-1.63 -0.47,-3.04 -1.43,-4.21 -0.96,-1.18 -2.81,-2.56 -5.54,-4.13 -3.19,-1.69 -5.43,-3.15 -6.74,-4.35 -1.3,-1.21 -2.27,-2.58 -2.92,-4.12 -0.65,-1.53 -0.97,-3.36 -0.97,-5.48 0,-3.79 1.08,-6.95 3.23,-9.47 2.14,-2.51 4.89,-3.76 8.23,-3.76 3.52,0 6.35,1.32 8.48,3.97 2.14,2.63 3.21,6.03 3.21,10.16l-5.88 0c0,-2.11 -0.54,-3.9 -1.64,-5.38 -1.08,-1.49 -2.48,-2.22 -4.17,-2.22 -1.73,0 -3.1,0.57 -4.09,1.73 -0.99,1.16 -1.48,2.72 -1.48,4.66 0,1.54 0.35,2.79 1.08,3.73 0.72,0.94 2.46,2.19 5.22,3.74 4.39,2.22 7.38,4.38 8.96,6.49 1.57,2.12 2.37,4.81 2.37,8.06 0,4.05 -1.08,7.3 -3.25,9.74 -2.15,2.42 -5.05,3.64 -8.67,3.64 -3.76,0 -6.82,-1.39 -9.16,-4.17 -2.33,-2.79 -3.51,-6.32 -3.51,-10.6l5.95 0c0.07,2.58 0.68,4.6 1.84,6.06 1.16,1.45 2.78,2.19 4.88,2.19 1.96,0 3.44,-0.57 4.47,-1.71 1.02,-1.13 1.53,-2.66 1.53,-4.57z"/>
   <path id="31" class="fil11" d="M1241.69 710.9l0 11.28 5.45 0 0 6.18 -5.45 0 0 28.87c0,1.84 0.24,3.24 0.71,4.18 0.47,0.95 1.26,1.42 2.4,1.42 0.78,0 1.57,-0.17 2.37,-0.51l-0.06 6.45c-1.34,0.56 -2.71,0.85 -4.12,0.85 -2.34,0 -4.12,-1.07 -5.33,-3.23 -1.24,-2.15 -1.84,-5.19 -1.84,-9.11l0 -28.92 -5.52 0 0 -6.18 5.52 0 0 -11.28 5.87 0z"/>
   <path id="32" class="fil11" d="M1272.59 764.67c-1.96,3.31 -4.83,4.95 -8.59,4.95 -3.27,0 -5.74,-1.45 -7.42,-4.36 -1.66,-2.93 -2.51,-7.16 -2.53,-12.73l0 -30.35 5.87 0 0 29.76c0,7.26 1.7,10.89 5.08,10.89 3.58,0 6.06,-2.07 7.41,-6.2l0 -34.45 5.92 0 0 46.56 -5.61 0 -0.13 -4.07z"/>
   <path id="33" class="fil11" d="M1285.98 743.35c0,-7.17 1.04,-12.64 3.12,-16.4 2.09,-3.77 5.08,-5.65 8.98,-5.65 3.44,0 6.14,1.81 8.08,5.43l0 -24.12 5.9 0 0 66.13 -5.4 0 -0.31 -4.98c-1.94,3.91 -4.71,5.86 -8.31,5.86 -3.74,0 -6.68,-1.86 -8.8,-5.61 -2.13,-3.75 -3.21,-9.04 -3.26,-15.87l0 -4.79zm5.92 4.32c0,5.21 0.59,9.05 1.8,11.49 1.19,2.45 3.16,3.67 5.87,3.67 2.94,0 5.14,-1.91 6.59,-5.71l0 -23.44c-1.52,-3.72 -3.71,-5.59 -6.56,-5.59 -2.71,0 -4.67,1.22 -5.87,3.68 -1.21,2.44 -1.81,6.2 -1.83,11.27l0 4.63z"/>
   <path id="34" class="fil11" d="M1339.76 768.74c-0.36,-1 -0.61,-2.69 -0.77,-5.05 -2.09,3.95 -4.77,5.93 -8.01,5.93 -3.28,0 -5.83,-1.19 -7.67,-3.55 -1.83,-2.37 -2.75,-5.7 -2.75,-10.01 0,-4.73 1.24,-8.5 3.73,-11.27 2.5,-2.78 5.92,-4.21 10.26,-4.26l4.34 0 0 -4.97c0,-2.79 -0.48,-4.78 -1.44,-5.97 -0.96,-1.17 -2.42,-1.76 -4.37,-1.76 -1.79,0 -3.23,0.69 -4.34,2.05 -1.12,1.37 -1.67,3.11 -1.67,5.21l-5.91 0c0,-2.38 0.55,-4.66 1.63,-6.82 1.09,-2.18 2.57,-3.88 4.41,-5.12 1.85,-1.23 3.91,-1.85 6.18,-1.85 3.7,0 6.51,1.19 8.44,3.56 1.92,2.36 2.9,5.82 2.95,10.34l0 23.5c0.02,3.6 0.4,6.71 1.14,9.35l0 0.69 -6.15 0zm-7.88 -6.08c1.44,0 2.82,-0.52 4.13,-1.55 1.33,-1.02 2.28,-2.32 2.88,-3.86l0 -11.08 -3.34 0c-2.81,0.06 -5.02,0.87 -6.65,2.42 -1.62,1.56 -2.44,3.75 -2.44,6.56 0,2.63 0.42,4.54 1.24,5.73 0.82,1.19 2.22,1.78 4.18,1.78z"/>
   <path id="35" class="fil11" d="M1359.5 722.18l0.17 5.02c2.29,-3.93 5.22,-5.9 8.79,-5.9 6.38,0 9.62,5.5 9.71,16.49l0 30.95 -5.88 0 0 -30.58c0,-3.65 -0.47,-6.23 -1.41,-7.76 -0.95,-1.54 -2.38,-2.31 -4.27,-2.31 -1.46,0 -2.78,0.63 -3.95,1.9 -1.17,1.26 -2.11,2.91 -2.82,4.94l0 33.81 -5.92 0 0 -46.56 5.58 0z"/>
   <path id="36" class="fil11" d="M1394.75 710.9l0 11.28 5.45 0 0 6.18 -5.45 0 0 28.87c0,1.84 0.24,3.24 0.7,4.18 0.47,0.95 1.27,1.42 2.41,1.42 0.78,0 1.56,-0.17 2.37,-0.51l-0.07 6.45c-1.33,0.56 -2.7,0.85 -4.11,0.85 -2.34,0 -4.12,-1.07 -5.34,-3.23 -1.23,-2.15 -1.83,-5.19 -1.83,-9.11l0 -28.92 -5.52 0 0 -6.18 5.52 0 0 -11.28 5.87 0z"/>
   <path id="37" class="fil11" d="M1413.59 768.74l-5.9 0 0 -46.56 5.9 0 0 46.56zm0.47 -58.94c0,1.29 -0.27,2.38 -0.83,3.24 -0.56,0.87 -1.41,1.3 -2.54,1.3 -1.11,0 -1.94,-0.43 -2.5,-1.3 -0.56,-0.86 -0.85,-1.95 -0.85,-3.24 0,-1.3 0.29,-2.4 0.85,-3.3 0.56,-0.89 1.39,-1.33 2.5,-1.33 1.11,0 1.96,0.45 2.52,1.36 0.56,0.91 0.85,2 0.85,3.27z"/>
   <polygon id="38" class="fil11" points="1429.26,768.74 1423.35,768.74 1423.35,702.61 1429.26,702.61 "/>
   <polygon id="39" class="fil11" points="1460.61,780.38 1455.64,780.38 1455.64,706.05 1460.61,706.05 "/>
   <path id="40" class="fil11" d="M1516.37 706.05l0 44.57c-0.04,5.95 -1.38,10.6 -4,13.96 -2.63,3.37 -6.29,5.04 -10.99,5.04 -4.81,0 -8.48,-1.64 -11.02,-4.93 -2.55,-3.28 -3.83,-7.97 -3.88,-14.07l0 -44.57 6.08 0 0 44.22c0,4.22 0.7,7.36 2.1,9.45 1.39,2.07 3.62,3.11 6.72,3.11 3.11,0 5.37,-1.04 6.76,-3.11 1.39,-2.09 2.09,-5.23 2.09,-9.45l0 -44.22 6.14 0z"/>
   <polygon id="41" class="fil11" points="1548.33,741.05 1531.89,741.05 1531.89,768.74 1525.78,768.74 1525.78,706.05 1551.1,706.05 1551.1,712.84 1531.89,712.84 1531.89,734.26 1548.33,734.26 "/>
   <path id="42" class="fil11" d="M1564.74 744.23l0 24.51 -6.11 0 0 -62.69 15.51 0c4.51,0 8.07,1.75 10.64,5.23 2.59,3.5 3.88,8.14 3.88,13.95 0,6.02 -1.23,10.68 -3.7,13.93 -2.46,3.26 -5.92,4.95 -10.39,5.07l-9.83 0zm0 -6.79l9.4 0c2.71,0 4.8,-1.05 6.24,-3.15 1.44,-2.1 2.17,-5.1 2.17,-9 0,-3.77 -0.74,-6.78 -2.24,-9.04 -1.49,-2.28 -3.54,-3.41 -6.14,-3.41l-9.43 0 0 24.6z"/>
   <path id="43" class="fil11" d="M1614.62 752.34l-16.44 0 -3.78 16.4 -6.26 0 15.66 -62.69 5.23 0 15.7 62.69 -6.27 0 -3.84 -16.4zm-14.83 -6.79l13.25 0 -6.64 -28.48 -6.61 28.48z"/>
  </g>
 </g>
</svg>
