<?xml version="1.0" encoding="UTF-8"?>
<!DOCTYPE svg PUBLIC "-//W3C//DTD SVG 1.1//EN" "http://www.w3.org/Graphics/SVG/1.1/DTD/svg11.dtd">
<!-- Creator: CorelDRAW 2017 -->
<svg xmlns="http://www.w3.org/2000/svg" xml:space="preserve" width="1920px" height="1080px" version="1.1" style="shape-rendering:geometricPrecision; text-rendering:geometricPrecision; image-rendering:optimizeQuality; fill-rule:evenodd; clip-rule:evenodd"
viewBox="0 0 1920 1080"
 xmlns:xlink="http://www.w3.org/1999/xlink">
 <defs>
  <style type="text/css">
   <![CDATA[
    .fil0 {fill:none}
    .fil1 {fill:#005B8A}
    .fil3 {fill:#1F1A17}
    .fil2 {fill:#FEFEFE}
    .fil4 {fill:#1F1A17;fill-rule:nonzero}
   ]]>
  </style>
 </defs>
 <g id="Camada_x0020_1">
  <metadata id="CorelCorpID_0Corel-Layer"/>
  <rect class="fil0" x="0.01" width="1920" height="1080"/>
  <g id="Logo_x0020_PROPESP">
   <path id="PRO_x0020_bg" class="fil1" d="M658.38 375.51c-16.86,14.4 -25.32,35.77 -25.36,64.11 0.54,27.24 9.3,48.34 26.28,63.3 17.45,15.52 41.36,23 71.72,22.44 29.98,-0.1 53.3,-7.68 69.96,-22.73 16.75,-15.47 25.31,-36.47 25.69,-63.01 -0.03,-27.91 -8.37,-49.11 -25.01,-63.61 -16.4,-14.47 -39.95,-21.92 -70.64,-22.36 -32.42,-0.12 -56.63,7.17 -72.64,21.86zm-262.34 -22.81l0 74.04 86.23 0c35.38,-2.07 53.83,-14.41 55.36,-37.02 0.85,-24.51 -17.11,-36.85 -53.86,-37.02l-1.5 0 -86.23 0zm-147.38 76.62c33.47,-3.15 50.33,-15.92 50.56,-38.31 -0.55,-23.98 -17.4,-36.75 -50.56,-38.31l-90.17 0 0 76.62 90.17 0zm385.96 -74.78c22.57,-19.78 52.68,-29.93 90.34,-30.44 2,-0.03 4.02,-0.03 6.06,0 40.39,0.51 71.77,10.75 94.16,30.72 22.7,19.87 34.07,48.01 34.11,84.41 0,0.13 0,0.26 0,0.39 -0.47,35.58 -12.18,63.55 -35.12,83.89 -22.85,20.5 -53.9,31.05 -93.15,31.63 -40.98,-0.2 -72.88,-10.54 -95.72,-31.04 -22.47,-19.03 -34.19,-47.19 -35.17,-84.48 -0.01,-1.19 -0.01,-2.37 0,-3.55 0.37,-34.99 11.87,-62.16 34.49,-81.53zm253.11 247.9l0 -329.38 -795.41 0 0 329.38 795.41 0zm-524.03 -279.16l118.57 0c0.72,-0.01 1.44,-0.01 2.16,0 58.55,0.26 87.14,22.41 85.75,66.44 -1.02,23.09 -10.96,40.02 -29.82,50.8 7.25,4.39 12.94,9.75 17.06,16.08 5.12,7.44 8.26,17.09 9.43,28.96l0 66.99 -32.56 0 0 -62.32c-0.67,-21.61 -18.01,-32.82 -52.02,-33.63l-86.23 0 0 95.95 -32.34 0 0 -229.27zm-115.04 0.02c36.4,1.53 60.51,11.33 72.33,29.4 6.92,8.93 10.6,21.7 11.05,38.31 0.32,15.14 -3.97,27.91 -12.89,38.31 -15.53,18.02 -40.54,27.9 -75.02,29.67l-85.64 0 0 93.65 -32.36 0 0 -229.34 122.53 0z"/>
   <path id="PRO" class="fil2" d="M600.13 439.62c0.98,37.29 12.7,65.45 35.17,84.48 22.84,20.5 54.74,30.84 95.72,31.04 39.25,-0.58 70.3,-11.13 93.15,-31.63 22.94,-20.34 34.65,-48.31 35.12,-83.89 0.04,-36.59 -11.33,-64.85 -34.11,-84.8 -22.39,-19.97 -53.77,-30.21 -94.16,-30.72l-6.06 0c-37.66,0.51 -67.77,10.66 -90.34,30.44 -22.62,19.37 -34.12,46.54 -34.49,81.53l0 3.55zm32.89 0c0.04,-28.34 8.5,-49.71 25.36,-64.11 16.01,-14.69 40.22,-21.98 72.64,-21.86 30.69,0.44 54.24,7.89 70.64,22.36 16.64,14.5 24.98,35.7 25.01,63.61 -0.38,26.54 -8.94,47.54 -25.69,63.01 -16.66,15.05 -39.98,22.63 -69.96,22.73 -30.36,0.56 -54.27,-6.92 -71.72,-22.44 -16.98,-14.96 -25.74,-36.06 -26.28,-63.3zm-388.89 19.37c34.48,-1.77 59.49,-11.65 75.02,-29.67 8.92,-10.4 13.21,-23.17 12.89,-38.31 -0.45,-16.61 -4.13,-29.38 -11.05,-38.31 -11.82,-18.07 -35.93,-27.87 -72.33,-29.4l-122.53 0 0 229.34 32.36 0 0 -93.65 85.64 0zm4.53 -29.67l-90.17 0 0 -76.62 90.17 0c33.16,1.56 50.01,14.33 50.56,38.31 -0.23,22.39 -17.09,35.16 -50.56,38.31zm147.38 -2.58l0 -74.04 86.23 0 1.5 0c36.75,0.17 54.71,12.51 53.86,37.02 -1.53,22.61 -19.98,34.95 -55.36,37.02l-86.23 0zm144.32 13.78c18.86,-10.78 28.8,-27.71 29.82,-50.8 1.39,-44.03 -27.2,-66.18 -85.75,-66.44 -0.72,-0.01 -1.44,-0.01 -2.16,0l-118.57 0 0 229.27 32.34 0 0 -95.95 86.23 0c34.01,0.81 51.35,12.02 52.02,33.63l0 62.32 32.56 0 0 -66.99c-1.17,-11.87 -4.31,-21.52 -9.43,-28.96 -4.12,-6.33 -9.81,-11.69 -17.06,-16.08z"/>
   <path id="PESP_x0020_" class="fil3" d="M918.19 323.28l0 229.27 32.35 0 0 -93.91 88.48 0c32.45,-2.55 56.25,-12.22 71.39,-29.01 8.85,-10.17 13.26,-23.12 13.22,-38.86 -0.34,-43.02 -28.55,-65.52 -84.61,-67.49l-120.83 0zm32.35 106.35l0 -77.17 88.48 0c33.99,1.21 51.28,13.98 51.86,38.31 0.31,22.84 -16.98,35.8 -51.86,38.86l-88.48 0zm204.97 -106.35l0 229.27 191.27 0 0 -29.25 -159.41 0 0 -75.44 139.67 0 0 -29.07 -139.67 0 0 -66.33 157.57 0 0 -29.18 -189.43 0zm316.23 -2.45c-65.08,0.01 -97.74,20.79 -97.98,62.34 0.48,23.73 13.35,40.92 38.61,51.56 15.9,5.96 35.69,11.07 59.37,15.32 30.6,5.95 48.1,9.95 52.5,12 16.2,4.19 24.07,13.42 23.59,27.69 -1.5,23.5 -24.67,35.38 -69.52,35.65 -50.32,0.81 -76.86,-14.51 -79.62,-45.95l0 -18.55 -32.79 0 0 18.15c3.03,49.63 40.5,74.83 112.41,75.61 23.59,0.17 44.09,-3.55 61.5,-11.18 26.87,-11.2 40.3,-29.11 40.27,-53.73 -0.77,-29.69 -17.4,-48.79 -49.89,-57.28 -14.21,-4.77 -33.69,-9.25 -58.45,-13.45 -15.03,-2.41 -28.38,-5.29 -40.05,-8.62 -17.08,-5.03 -25.53,-14.1 -25.34,-27.22 -0.61,-21.76 21.18,-32.8 65.39,-33.12 22.89,0.35 39.6,3.18 50.11,8.48 12.89,6.05 20.13,21.31 21.73,45.8l31.57 0c-0.57,-31.81 -12.01,-54.47 -34.32,-67.98 -16.45,-9.96 -39.48,-15.13 -69.09,-15.52zm145.74 2.45l0 229.27 32.49 0 0 -93.91 90.24 0c31.61,-2.88 54.67,-12.55 69.19,-29.01 8.75,-9.91 13.22,-22.2 13.41,-36.86l0 -2c-0.31,-15.52 -3.96,-28.29 -10.95,-38.31 -13.31,-18.15 -37.19,-27.88 -71.65,-29.18l-122.73 0zm32.49 106.35l0 -77.17 90.24 0c32.99,1.93 49.7,14.7 50.11,38.31 -0.09,22.46 -16.8,35.41 -50.11,38.86l-90.24 0z"/>
   <path class="fil4" d="M108.41 696.05l14.9 0c5.19,0 8.79,-0.83 10.85,-2.49 2.05,-1.66 3.08,-4.5 3.08,-8.53 0,-3.9 -1.01,-6.67 -3.06,-8.37 -2.03,-1.68 -5.44,-2.53 -10.2,-2.53l-15.57 0 0 21.92zm-8.91 35.47l0 -65.39 24.09 0c3.91,0 6.88,0.2 8.92,0.57 2.05,0.38 3.87,1.02 5.47,1.91 2.67,1.46 4.7,3.6 6.13,6.45 1.42,2.83 2.14,6.17 2.14,9.99 0,3.63 -0.72,6.85 -2.14,9.63 -1.43,2.78 -3.49,5.01 -6.22,6.66 -1.57,0.95 -3.41,1.62 -5.53,2.01 -2.12,0.41 -5.61,0.61 -10.46,0.61l-13.49 0 0 27.56 -8.91 0z"/>
   <path id="1" class="fil4" d="M155.87 731.52l0 -47.57 7.73 0 0 8.52c1.27,-3.18 3,-5.56 5.19,-7.15 2.16,-1.58 4.83,-2.37 8,-2.37 0.59,0 1.03,0 1.29,0.02 0.27,0.01 0.53,0.06 0.8,0.12l0 8.41c-0.21,-0.03 -0.44,-0.06 -0.71,-0.07 -0.26,-0.02 -0.67,-0.02 -1.2,-0.02 -4.26,0 -7.5,1.17 -9.75,3.49 -2.22,2.32 -3.35,5.71 -3.35,10.15l0 26.47 -8 0z"/>
   <path id="2" class="fil4" d="M191.79 707.66c0,5.9 1.26,10.41 3.79,13.54 2.53,3.12 6.16,4.68 10.86,4.68 4.66,0 8.24,-1.56 10.73,-4.68 2.48,-3.13 3.73,-7.64 3.73,-13.54 0,-5.85 -1.25,-10.35 -3.73,-13.48 -2.49,-3.12 -6.07,-4.68 -10.73,-4.68 -4.73,0 -8.35,1.56 -10.87,4.67 -2.52,3.11 -3.78,7.61 -3.78,13.49zm-8.18 0c0,-7.96 1.98,-14.16 5.97,-18.6 3.99,-4.44 9.57,-6.65 16.77,-6.65 7.23,0 12.83,2.21 16.82,6.64 4,4.42 6,10.62 6,18.61 0,8 -1.98,14.22 -5.97,18.66 -3.99,4.44 -9.56,6.65 -16.76,6.65 -7.23,0 -12.84,-2.21 -16.83,-6.64 -4,-4.42 -6,-10.64 -6,-18.67zm16.46 -30.16l9.06 -15.46 8.95 0 -12.67 15.46 -5.34 0z"/>
   <polygon id="3" class="fil4" points="235.99,711.05 235.99,703.87 258,703.87 258,711.05 "/>
   <path id="4" class="fil4" d="M276.92 673.77l0 22.19 15.17 0c5.49,0 9.35,-0.9 11.63,-2.67 2.25,-1.77 3.39,-4.74 3.39,-8.9 0,-3.88 -1.06,-6.62 -3.2,-8.23 -2.13,-1.59 -6.07,-2.39 -11.82,-2.39l-15.17 0zm-8.73 -7.64l25.37 0c4.11,0 7.14,0.18 9.08,0.53 1.94,0.36 3.68,0.95 5.21,1.77 2.76,1.52 4.85,3.62 6.29,6.31 1.44,2.7 2.16,5.86 2.16,9.5 0,3.52 -0.76,6.53 -2.26,9.04 -1.52,2.5 -3.76,4.45 -6.75,5.88 2.55,0.71 4.35,1.91 5.44,3.59 1.08,1.68 1.75,4.55 2.02,8.56l0.76 10.79c0.13,2.31 0.44,4.04 0.91,5.17 0.45,1.14 1.13,1.96 2.06,2.43l0 1.82 -10.26 0c-0.84,-1.37 -1.41,-4.28 -1.75,-8.75l0 -0.26 -0.54 -8.53c-0.29,-4.38 -1.23,-7.22 -2.79,-8.52 -1.58,-1.3 -5.49,-1.95 -11.76,-1.95l-14.37 0 0 28.01 -8.82 0 0 -65.39z"/>
   <path id="5" class="fil4" d="M333.76 703.41l26.1 0c-0.03,-4.44 -1.15,-7.88 -3.38,-10.29 -2.22,-2.41 -5.37,-3.62 -9.44,-3.62 -3.95,0 -7.04,1.18 -9.31,3.56 -2.26,2.37 -3.59,5.82 -3.97,10.35zm25.92 12.74l7.91 0c-0.87,5.24 -3.14,9.36 -6.84,12.38 -3.7,3.02 -8.36,4.53 -13.99,4.53 -6.61,0 -11.82,-2.21 -15.64,-6.65 -3.82,-4.44 -5.73,-10.5 -5.73,-18.16 0,-8.11 1.89,-14.44 5.68,-19.01 3.79,-4.56 9.01,-6.83 15.68,-6.83 6.83,0 12.12,2.1 15.87,6.3 3.74,4.2 5.6,10.13 5.6,17.8 0,0.97 0,1.7 -0.01,2.16 -0.02,0.47 -0.06,0.94 -0.11,1.38l-34.3 0c0.09,5.01 1.34,8.89 3.73,11.63 2.4,2.74 5.73,4.11 9.99,4.11 3.24,0 5.94,-0.84 8.05,-2.52 2.12,-1.67 3.48,-4.05 4.11,-7.12z"/>
   <path id="6" class="fil4" d="M377.4 675.22l0 -9.09 8 0 0 9.09 -8 0zm0 56.3l0 -47.57 8 0 0 47.57 -8 0z"/>
   <path id="7" class="fil4" d="M406.97 719.54c0,2.14 0.3,3.57 0.91,4.28 0.6,0.71 1.71,1.06 3.35,1.06 0.47,0 1.03,-0.02 1.69,-0.05 0.67,-0.03 1.53,-0.09 2.6,-0.18l0 6.79c-1.34,0.24 -2.52,0.41 -3.58,0.53 -1.05,0.12 -1.99,0.18 -2.82,0.18 -3.74,0 -6.38,-0.72 -7.9,-2.16 -1.5,-1.46 -2.26,-4.04 -2.26,-7.73l0 -31.94 -7.1 0 0 -6.37 7.1 0 0 -13.27 8.01 0 0 13.27 8.55 0 0 6.37 -8.55 0 0 29.22z"/>
   <path id="8" class="fil4" d="M428.87 707.66c0,5.9 1.26,10.41 3.79,13.54 2.53,3.12 6.15,4.68 10.85,4.68 4.67,0 8.25,-1.56 10.73,-4.68 2.49,-3.13 3.73,-7.64 3.73,-13.54 0,-5.85 -1.24,-10.35 -3.73,-13.48 -2.48,-3.12 -6.06,-4.68 -10.73,-4.68 -4.73,0 -8.35,1.56 -10.87,4.67 -2.51,3.11 -3.77,7.61 -3.77,13.49zm-8.18 0c0,-7.96 1.98,-14.16 5.97,-18.6 3.98,-4.44 9.56,-6.65 16.76,-6.65 7.23,0 12.84,2.21 16.83,6.64 4,4.42 6,10.62 6,18.61 0,8 -1.99,14.22 -5.97,18.66 -3.99,4.44 -9.57,6.65 -16.77,6.65 -7.23,0 -12.84,-2.21 -16.82,-6.64 -4,-4.42 -6,-10.64 -6,-18.67z"/>
   <path id="9" class="fil4" d="M475.98 731.52l0 -47.57 7.73 0 0 8.52c1.27,-3.18 3,-5.56 5.18,-7.15 2.17,-1.58 4.84,-2.37 8.01,-2.37 0.59,0 1.03,0 1.28,0.02 0.28,0.01 0.53,0.06 0.81,0.12l0 8.41c-0.22,-0.03 -0.44,-0.06 -0.71,-0.07 -0.26,-0.02 -0.67,-0.02 -1.2,-0.02 -4.26,0 -7.51,1.17 -9.75,3.49 -2.23,2.32 -3.35,5.71 -3.35,10.15l0 26.47 -8 0z"/>
   <path id="10" class="fil4" d="M506.17 675.22l0 -9.09 8.01 0 0 9.09 -8.01 0zm0 56.3l0 -47.57 8.01 0 0 47.57 -8.01 0z"/>
   <path id="11" class="fil4" d="M555.78 725.17c-2.5,2.6 -5.14,4.54 -7.94,5.85 -2.79,1.3 -5.76,1.95 -8.91,1.95 -4.85,0 -8.64,-1.26 -11.37,-3.79 -2.73,-2.53 -4.09,-6.03 -4.09,-10.49 0,-4.32 1.33,-7.71 4.01,-10.17 2.69,-2.45 6.78,-4.03 12.25,-4.74 1.4,-0.15 3.27,-0.37 5.65,-0.62 4.05,-0.41 6.55,-0.82 7.46,-1.2 0.93,-0.36 1.53,-0.83 1.82,-1.41 0.3,-0.58 0.46,-1.83 0.46,-3.76 0,-2.42 -0.9,-4.24 -2.67,-5.47 -1.78,-1.21 -4.46,-1.82 -8.05,-1.82 -3.7,0 -6.5,0.74 -8.38,2.23 -1.88,1.48 -2.82,3.68 -2.82,6.59l-7.55 0 0 -0.36c0,-4.79 1.68,-8.6 5.06,-11.37 3.38,-2.79 8.02,-4.18 13.95,-4.18 6.36,0 11.05,1.19 14.05,3.57 3,2.38 4.5,6.11 4.5,11.19l0 23.78c0,2.03 0.23,3.35 0.67,3.94 0.45,0.59 1.25,0.9 2.41,0.9 0.24,0 0.53,-0.02 0.88,-0.06 0.34,-0.05 0.75,-0.12 1.22,-0.22l0 6.19c-0.97,0.27 -1.83,0.45 -2.56,0.56 -0.71,0.11 -1.41,0.17 -2.06,0.17 -2.67,0 -4.67,-0.58 -5.99,-1.75 -1.33,-1.15 -2,-2.91 -2,-5.24l0 -0.27zm-0.76 -17.84c-2.13,1.15 -5.79,2.04 -10.97,2.69 -1.83,0.25 -3.21,0.43 -4.14,0.58 -2.89,0.47 -4.98,1.33 -6.26,2.58 -1.27,1.24 -1.91,3.04 -1.91,5.42 0,2.37 0.75,4.19 2.23,5.46 1.47,1.27 3.59,1.91 6.35,1.91 4.29,0 7.82,-1.08 10.57,-3.24 2.76,-2.17 4.13,-4.93 4.13,-8.31l0 -7.09z"/>
   <path id="12" class="fil4" d="M634.78 707.4c0,-5.89 -1.2,-10.34 -3.58,-13.32 -2.38,-2.99 -5.91,-4.49 -10.58,-4.49 -4.5,0 -7.98,1.64 -10.44,4.91 -2.45,3.28 -3.68,7.91 -3.68,13.92 0,5.42 1.26,9.68 3.79,12.79 2.53,3.11 6,4.67 10.41,4.67 4.47,0 7.94,-1.59 10.4,-4.79 2.45,-3.2 3.68,-7.76 3.68,-13.69zm7.46 -41.27l0 65.39 -7.73 0 0 -5.99c-2.03,2.47 -4.35,4.33 -6.93,5.58 -2.57,1.24 -5.41,1.86 -8.52,1.86 -6.35,0 -11.39,-2.27 -15.17,-6.82 -3.77,-4.53 -5.67,-10.62 -5.67,-18.26 0,-7.78 1.9,-13.98 5.69,-18.59 3.79,-4.59 8.83,-6.89 15.15,-6.89 3.31,0 6.25,0.6 8.81,1.83 2.56,1.23 4.77,3.08 6.64,5.53l0 -23.64 7.73 0z"/>
   <path id="13" class="fil4" d="M660.81 703.41l26.1 0c-0.03,-4.44 -1.15,-7.88 -3.38,-10.29 -2.22,-2.41 -5.37,-3.62 -9.45,-3.62 -3.94,0 -7.03,1.18 -9.3,3.56 -2.26,2.37 -3.59,5.82 -3.97,10.35zm25.92 12.74l7.91 0c-0.87,5.24 -3.14,9.36 -6.84,12.38 -3.7,3.02 -8.36,4.53 -13.99,4.53 -6.61,0 -11.82,-2.21 -15.64,-6.65 -3.82,-4.44 -5.73,-10.5 -5.73,-18.16 0,-8.11 1.89,-14.44 5.68,-19.01 3.79,-4.56 9.01,-6.83 15.68,-6.83 6.83,0 12.12,2.1 15.87,6.3 3.74,4.2 5.6,10.13 5.6,17.8 0,0.97 0,1.7 -0.01,2.16 -0.02,0.47 -0.06,0.94 -0.11,1.38l-34.3 0c0.09,5.01 1.34,8.89 3.73,11.63 2.4,2.74 5.73,4.11 9.99,4.11 3.24,0 5.94,-0.84 8.05,-2.52 2.12,-1.67 3.48,-4.05 4.11,-7.12z"/>
   <path id="14" class="fil4" d="M739.19 696.05l14.9 0c5.18,0 8.79,-0.83 10.85,-2.49 2.04,-1.66 3.08,-4.5 3.08,-8.53 0,-3.9 -1.02,-6.67 -3.07,-8.37 -2.03,-1.68 -5.44,-2.53 -10.2,-2.53l-15.56 0 0 21.92zm-8.92 35.47l0 -65.39 24.09 0c3.91,0 6.88,0.2 8.93,0.57 2.04,0.38 3.86,1.02 5.47,1.91 2.67,1.46 4.7,3.6 6.12,6.45 1.43,2.83 2.14,6.17 2.14,9.99 0,3.63 -0.71,6.85 -2.14,9.63 -1.42,2.78 -3.49,5.01 -6.21,6.66 -1.58,0.95 -3.41,1.62 -5.54,2.01 -2.12,0.41 -5.6,0.61 -10.45,0.61l-13.49 0 0 27.56 -8.92 0z"/>
   <path id="15" class="fil4" d="M790.74 703.41l26.1 0c-0.03,-4.44 -1.16,-7.88 -3.38,-10.29 -2.22,-2.41 -5.37,-3.62 -9.45,-3.62 -3.94,0 -7.03,1.18 -9.3,3.56 -2.26,2.37 -3.59,5.82 -3.97,10.35zm25.92 12.74l7.91 0c-0.87,5.24 -3.14,9.36 -6.84,12.38 -3.7,3.02 -8.37,4.53 -13.99,4.53 -6.61,0 -11.82,-2.21 -15.64,-6.65 -3.82,-4.44 -5.73,-10.5 -5.73,-18.16 0,-8.11 1.89,-14.44 5.68,-19.01 3.79,-4.56 9.01,-6.83 15.68,-6.83 6.83,0 12.12,2.1 15.87,6.3 3.74,4.2 5.6,10.13 5.6,17.8 0,0.97 0,1.7 -0.01,2.16 -0.02,0.47 -0.06,0.94 -0.11,1.38l-34.3 0c0.09,5.01 1.34,8.89 3.73,11.63 2.4,2.74 5.73,4.11 9.99,4.11 3.24,0 5.94,-0.84 8.05,-2.52 2.12,-1.67 3.48,-4.05 4.11,-7.12z"/>
   <path id="16" class="fil4" d="M831.01 716.06l7.64 0c0.3,3.23 1.45,5.67 3.5,7.33 2.03,1.65 4.91,2.49 8.65,2.49 3.45,0 6.16,-0.67 8.14,-2.02 1.99,-1.35 2.99,-3.2 2.99,-5.53 0,-1.76 -0.48,-3.09 -1.47,-4.03 -0.98,-0.93 -2.91,-1.73 -5.76,-2.41l-8.94 -2.32c-5.03,-1.21 -8.55,-2.82 -10.52,-4.81 -1.97,-2 -2.96,-4.85 -2.96,-8.54 0,-4.2 1.59,-7.55 4.78,-10.02 3.18,-2.47 7.55,-3.7 13.08,-3.7 5.65,0 10.15,1.32 13.5,3.95 3.35,2.63 5.02,6.17 5.02,10.6l0 0.18 -7.73 0c-0.18,-2.52 -1.21,-4.47 -3.09,-5.85 -1.88,-1.38 -4.44,-2.06 -7.67,-2.06 -3.25,0 -5.7,0.56 -7.37,1.68 -1.68,1.14 -2.51,2.77 -2.51,4.94 0,1.53 0.53,2.75 1.57,3.63 1.06,0.86 3.02,1.63 5.9,2.28l7.74 1.82c5.49,1.31 9.26,2.97 11.34,4.99 2.06,2.03 3.09,4.93 3.09,8.68 0,4.95 -1.74,8.78 -5.21,11.52 -3.49,2.75 -8.35,4.11 -14.6,4.11 -6.11,0 -10.79,-1.45 -14.06,-4.35 -3.28,-2.89 -4.96,-7.09 -5.05,-12.56z"/>
   <path id="17" class="fil4" d="M885.32 707.05c0,6.07 1.26,10.73 3.79,14.01 2.53,3.27 6.12,4.91 10.77,4.91 4.38,0 7.76,-1.59 10.14,-4.76 2.38,-3.17 3.58,-7.68 3.58,-13.54 0,-5.71 -1.23,-10.15 -3.68,-13.32 -2.46,-3.17 -5.9,-4.76 -10.31,-4.76 -4.41,0 -7.9,1.56 -10.46,4.67 -2.56,3.11 -3.83,7.37 -3.83,12.79zm28.01 18.21c-1.53,2.51 -3.61,4.42 -6.23,5.74 -2.62,1.32 -5.7,1.97 -9.22,1.97 -6.35,0 -11.4,-2.29 -15.17,-6.88 -3.77,-4.59 -5.67,-10.76 -5.67,-18.51 0,-7.67 1.9,-13.77 5.67,-18.34 3.77,-4.56 8.82,-6.83 15.17,-6.83 3.37,0 6.32,0.65 8.84,1.95 2.52,1.31 4.71,3.31 6.61,6.04l0 -6.45 7.73 0 0 66.57 -7.73 0 0 -25.26z"/>
   <path id="18" class="fil4" d="M941.44 683.95l0 29.18c0,4.67 0.73,7.93 2.2,9.75 1.46,1.82 3.94,2.73 7.43,2.73 4.62,0 8.11,-1.35 10.47,-4.07 2.37,-2.71 3.55,-6.7 3.55,-11.97l0 -25.62 8 0 0 47.57 -7.65 0 0 -7.11c-1.65,2.74 -3.79,4.82 -6.43,6.2 -2.63,1.39 -5.73,2.09 -9.27,2.09 -3.32,0 -6.2,-0.56 -8.66,-1.68 -2.45,-1.12 -4.33,-2.73 -5.64,-4.81 -0.74,-1.15 -1.27,-2.5 -1.6,-4.05 -0.32,-1.56 -0.49,-4.01 -0.49,-7.39l0 -2.26 0 -28.56 8.09 0z"/>
   <path id="19" class="fil4" d="M985.26 675.22l0 -9.09 8.01 0 0 9.09 -8.01 0zm0 56.3l0 -47.57 8.01 0 0 47.57 -8.01 0z"/>
   <path id="20" class="fil4" d="M1002.11 716.06l7.63 0c0.31,3.23 1.46,5.67 3.51,7.33 2.03,1.65 4.91,2.49 8.65,2.49 3.44,0 6.15,-0.67 8.14,-2.02 1.99,-1.35 2.99,-3.2 2.99,-5.53 0,-1.76 -0.49,-3.09 -1.47,-4.03 -0.99,-0.93 -2.91,-1.73 -5.76,-2.41l-8.95 -2.32c-5.03,-1.21 -8.55,-2.82 -10.52,-4.81 -1.97,-2 -2.95,-4.85 -2.95,-8.54 0,-4.2 1.59,-7.55 4.77,-10.02 3.19,-2.47 7.55,-3.7 13.08,-3.7 5.66,0 10.16,1.32 13.51,3.95 3.35,2.63 5.02,6.17 5.02,10.6l0 0.18 -7.73 0c-0.19,-2.52 -1.22,-4.47 -3.1,-5.85 -1.88,-1.38 -4.44,-2.06 -7.67,-2.06 -3.24,0 -5.7,0.56 -7.36,1.68 -1.68,1.14 -2.52,2.77 -2.52,4.94 0,1.53 0.53,2.75 1.58,3.63 1.06,0.86 3.01,1.63 5.89,2.28l7.75 1.82c5.49,1.31 9.26,2.97 11.34,4.99 2.06,2.03 3.09,4.93 3.09,8.68 0,4.95 -1.74,8.78 -5.22,11.52 -3.48,2.75 -8.35,4.11 -14.59,4.11 -6.11,0 -10.79,-1.45 -14.07,-4.35 -3.27,-2.89 -4.95,-7.09 -5.04,-12.56z"/>
   <path id="21" class="fil4" d="M1080 725.17c-2.5,2.6 -5.14,4.54 -7.94,5.85 -2.79,1.3 -5.76,1.95 -8.92,1.95 -4.85,0 -8.64,-1.26 -11.36,-3.79 -2.73,-2.53 -4.1,-6.03 -4.1,-10.49 0,-4.32 1.34,-7.71 4.02,-10.17 2.68,-2.45 6.77,-4.03 12.25,-4.74 1.39,-0.15 3.27,-0.37 5.65,-0.62 4.05,-0.41 6.55,-0.82 7.46,-1.2 0.92,-0.36 1.53,-0.83 1.82,-1.41 0.3,-0.58 0.45,-1.83 0.45,-3.76 0,-2.42 -0.89,-4.24 -2.67,-5.47 -1.77,-1.21 -4.45,-1.82 -8.04,-1.82 -3.7,0 -6.51,0.74 -8.39,2.23 -1.88,1.48 -2.82,3.68 -2.82,6.59l-7.54 0 0 -0.36c0,-4.79 1.68,-8.6 5.06,-11.37 3.38,-2.79 8.02,-4.18 13.94,-4.18 6.37,0 11.05,1.19 14.05,3.57 3,2.38 4.51,6.11 4.51,11.19l0 23.78c0,2.03 0.22,3.35 0.66,3.94 0.46,0.59 1.26,0.9 2.41,0.9 0.24,0 0.53,-0.02 0.88,-0.06 0.35,-0.05 0.76,-0.12 1.23,-0.22l0 6.19c-0.97,0.27 -1.83,0.45 -2.56,0.56 -0.71,0.11 -1.41,0.17 -2.06,0.17 -2.67,0 -4.67,-0.58 -5.99,-1.75 -1.34,-1.15 -2,-2.91 -2,-5.24l0 -0.27zm-0.76 -17.84c-2.14,1.15 -5.79,2.04 -10.97,2.69 -1.84,0.25 -3.22,0.43 -4.14,0.58 -2.9,0.47 -4.99,1.33 -6.26,2.58 -1.27,1.24 -1.91,3.04 -1.91,5.42 0,2.37 0.74,4.19 2.23,5.46 1.47,1.27 3.59,1.91 6.35,1.91 4.29,0 7.82,-1.08 10.56,-3.24 2.76,-2.17 4.14,-4.93 4.14,-8.31l0 -7.09z"/>
   <path id="22" class="fil4" d="M104.68 812.43l26.11 0c-0.03,-4.44 -1.16,-7.89 -3.38,-10.29 -2.22,-2.42 -5.37,-3.63 -9.45,-3.63 -3.94,0 -7.03,1.18 -9.3,3.56 -2.26,2.37 -3.6,5.82 -3.98,10.36zm25.92 12.73l7.91 0c-0.86,5.24 -3.13,9.37 -6.83,12.38 -3.7,3.02 -8.37,4.53 -13.99,4.53 -6.61,0 -11.82,-2.21 -15.64,-6.65 -3.82,-4.44 -5.73,-10.5 -5.73,-18.16 0,-8.11 1.89,-14.44 5.68,-19.01 3.79,-4.56 9,-6.83 15.67,-6.83 6.84,0 12.13,2.1 15.87,6.3 3.75,4.2 5.61,10.13 5.61,17.8 0,0.97 0,1.7 -0.01,2.17 -0.02,0.47 -0.06,0.94 -0.11,1.37l-34.3 0c0.09,5.01 1.33,8.89 3.73,11.63 2.39,2.74 5.73,4.11 9.99,4.11 3.24,0 5.94,-0.84 8.05,-2.52 2.12,-1.67 3.48,-4.04 4.1,-7.12z"/>
   <path id="23" class="fil4" d="M183.06 805.06l14.9 0c5.19,0 8.79,-0.83 10.86,-2.49 2.04,-1.66 3.07,-4.5 3.07,-8.53 0,-3.89 -1.01,-6.67 -3.06,-8.37 -2.03,-1.68 -5.44,-2.53 -10.2,-2.53l-15.57 0 0 21.92zm-8.91 35.47l0 -65.39 24.09 0c3.91,0 6.88,0.2 8.92,0.57 2.05,0.38 3.87,1.02 5.48,1.91 2.66,1.46 4.69,3.6 6.12,6.45 1.42,2.83 2.14,6.17 2.14,9.99 0,3.63 -0.72,6.85 -2.14,9.64 -1.43,2.77 -3.49,5 -6.22,6.65 -1.57,0.96 -3.41,1.62 -5.53,2.02 -2.12,0.4 -5.61,0.6 -10.46,0.6l-13.49 0 0 27.56 -8.91 0z"/>
   <path id="24" class="fil4" d="M236.25 816.67c0,5.9 1.26,10.41 3.79,13.54 2.53,3.12 6.15,4.68 10.85,4.68 4.67,0 8.25,-1.56 10.73,-4.68 2.49,-3.13 3.73,-7.64 3.73,-13.54 0,-5.85 -1.24,-10.35 -3.73,-13.47 -2.48,-3.13 -6.06,-4.69 -10.73,-4.69 -4.73,0 -8.35,1.56 -10.87,4.67 -2.51,3.11 -3.77,7.61 -3.77,13.49zm-8.18 0c0,-7.96 1.98,-14.16 5.97,-18.6 3.98,-4.44 9.56,-6.65 16.76,-6.65 7.23,0 12.84,2.21 16.83,6.64 4,4.42 6,10.62 6,18.61 0,8 -1.99,14.22 -5.97,18.66 -3.99,4.44 -9.57,6.65 -16.77,6.65 -7.23,0 -12.84,-2.21 -16.82,-6.64 -4,-4.42 -6,-10.64 -6,-18.67zm16.46 -30.16l9.06 -15.46 8.94 0 -12.67 15.46 -5.33 0z"/>
   <path id="25" class="fil4" d="M279.99 825.07l7.64 0c0.31,3.23 1.46,5.67 3.5,7.33 2.04,1.66 4.92,2.49 8.66,2.49 3.44,0 6.15,-0.67 8.14,-2.02 1.99,-1.35 2.99,-3.2 2.99,-5.53 0,-1.76 -0.49,-3.09 -1.47,-4.03 -0.99,-0.92 -2.91,-1.73 -5.76,-2.41l-8.95 -2.32c-5.03,-1.21 -8.55,-2.82 -10.52,-4.81 -1.97,-2 -2.95,-4.84 -2.95,-8.54 0,-4.2 1.59,-7.55 4.77,-10.02 3.18,-2.47 7.55,-3.7 13.08,-3.7 5.66,0 10.16,1.32 13.51,3.96 3.35,2.62 5.02,6.16 5.02,10.59l0 0.18 -7.73 0c-0.19,-2.51 -1.22,-4.47 -3.1,-5.85 -1.88,-1.38 -4.44,-2.06 -7.67,-2.06 -3.24,0 -5.7,0.56 -7.36,1.68 -1.69,1.14 -2.52,2.78 -2.52,4.94 0,1.54 0.53,2.75 1.58,3.63 1.06,0.86 3.01,1.63 5.89,2.28l7.75 1.82c5.49,1.31 9.26,2.98 11.34,4.99 2.06,2.03 3.09,4.93 3.09,8.69 0,4.94 -1.74,8.77 -5.22,11.52 -3.48,2.74 -8.35,4.1 -14.59,4.1 -6.11,0 -10.79,-1.45 -14.07,-4.35 -3.27,-2.89 -4.95,-7.09 -5.05,-12.56z"/>
   <polygon id="26" class="fil4" points="325.57,820.07 325.57,812.88 347.58,812.88 347.58,820.07 "/>
   <path id="27" class="fil4" d="M406.72 831.77c-2.66,3.53 -5.83,6.17 -9.5,7.94 -3.67,1.76 -7.84,2.64 -12.52,2.64 -8.85,0 -16.02,-3.17 -21.52,-9.49 -5.49,-6.32 -8.23,-14.61 -8.23,-24.89 0,-10.69 2.83,-19.13 8.52,-25.3 5.68,-6.17 13.39,-9.26 23.14,-9.26 7.46,0 13.54,1.9 18.25,5.67 4.7,3.77 7.53,9.03 8.47,15.79l-8.64 0c-0.8,-4.41 -2.77,-7.82 -5.92,-10.21 -3.16,-2.41 -7.22,-3.61 -12.16,-3.61 -7.14,0 -12.67,2.32 -16.6,6.96 -3.92,4.62 -5.88,11.15 -5.88,19.6 0,8.35 1.94,14.88 5.82,19.58 3.88,4.71 9.22,7.06 16.04,7.06 6.15,0 11.06,-1.88 14.75,-5.64 3.67,-3.74 5.5,-8.8 5.5,-15.15l0 -0.85 -20.48 0 0 -7.37 28.66 0 0 35.29 -5.79 0 -1.91 -8.76z"/>
   <path id="28" class="fil4" d="M426.35 840.53l0 -47.57 7.73 0 0 8.52c1.28,-3.18 3,-5.56 5.19,-7.15 2.16,-1.58 4.83,-2.37 8,-2.37 0.59,0 1.03,0 1.29,0.02 0.27,0.01 0.53,0.06 0.8,0.12l0 8.41c-0.21,-0.03 -0.44,-0.06 -0.71,-0.07 -0.26,-0.02 -0.67,-0.02 -1.2,-0.02 -4.26,0 -7.5,1.17 -9.74,3.49 -2.23,2.32 -3.35,5.71 -3.35,10.15l0 26.47 -8.01 0z"/>
   <path id="29" class="fil4" d="M485.95 834.18c-2.5,2.6 -5.14,4.54 -7.94,5.85 -2.79,1.3 -5.76,1.95 -8.91,1.95 -4.85,0 -8.64,-1.25 -11.37,-3.79 -2.73,-2.53 -4.09,-6.03 -4.09,-10.49 0,-4.31 1.33,-7.71 4.01,-10.17 2.69,-2.45 6.78,-4.03 12.25,-4.74 1.4,-0.15 3.27,-0.36 5.65,-0.62 4.05,-0.41 6.55,-0.82 7.46,-1.2 0.93,-0.36 1.53,-0.83 1.82,-1.41 0.3,-0.57 0.46,-1.83 0.46,-3.76 0,-2.42 -0.9,-4.24 -2.67,-5.47 -1.78,-1.21 -4.46,-1.82 -8.05,-1.82 -3.7,0 -6.5,0.74 -8.38,2.23 -1.88,1.49 -2.82,3.68 -2.82,6.59l-7.55 0 0 -0.36c0,-4.79 1.68,-8.59 5.06,-11.37 3.38,-2.79 8.02,-4.18 13.95,-4.18 6.36,0 11.05,1.2 14.05,3.58 3,2.38 4.5,6.1 4.5,11.18l0 23.78c0,2.03 0.23,3.35 0.67,3.94 0.45,0.59 1.25,0.9 2.41,0.9 0.24,0 0.53,-0.02 0.88,-0.06 0.34,-0.05 0.75,-0.12 1.22,-0.21l0 6.18c-0.97,0.27 -1.83,0.45 -2.56,0.56 -0.71,0.11 -1.41,0.17 -2.06,0.17 -2.67,0 -4.67,-0.58 -5.99,-1.75 -1.33,-1.15 -2,-2.91 -2,-5.24l0 -0.27zm-0.76 -17.84c-2.13,1.15 -5.79,2.04 -10.97,2.7 -1.83,0.24 -3.21,0.42 -4.14,0.57 -2.89,0.47 -4.98,1.34 -6.26,2.58 -1.27,1.24 -1.91,3.04 -1.91,5.42 0,2.37 0.75,4.19 2.23,5.46 1.47,1.27 3.59,1.91 6.35,1.91 4.29,0 7.82,-1.08 10.57,-3.24 2.75,-2.17 4.13,-4.93 4.13,-8.31l0 -7.09z"/>
   <path id="30" class="fil4" d="M540.03 816.41c0,-5.89 -1.19,-10.33 -3.57,-13.32 -2.38,-2.99 -5.92,-4.49 -10.58,-4.49 -4.51,0 -7.99,1.64 -10.45,4.91 -2.45,3.28 -3.68,7.92 -3.68,13.92 0,5.43 1.26,9.68 3.79,12.79 2.53,3.11 6,4.67 10.41,4.67 4.47,0 7.94,-1.59 10.4,-4.79 2.45,-3.2 3.68,-7.76 3.68,-13.69zm7.46 -41.27l0 65.39 -7.73 0 0 -5.99c-2.03,2.47 -4.35,4.34 -6.93,5.58 -2.57,1.24 -5.41,1.86 -8.52,1.86 -6.35,0 -11.39,-2.27 -15.17,-6.82 -3.77,-4.53 -5.67,-10.62 -5.67,-18.26 0,-7.78 1.9,-13.98 5.69,-18.58 3.79,-4.6 8.83,-6.9 15.15,-6.9 3.31,0 6.25,0.6 8.81,1.83 2.56,1.23 4.78,3.08 6.64,5.53l0 -23.64 7.73 0z"/>
   <path id="31" class="fil4" d="M567.88 792.96l0 29.18c0,4.67 0.72,7.93 2.19,9.75 1.46,1.82 3.94,2.73 7.43,2.73 4.62,0 8.11,-1.35 10.48,-4.07 2.36,-2.71 3.54,-6.69 3.54,-11.97l0 -25.62 8 0 0 47.57 -7.65 0 0 -7.11c-1.65,2.74 -3.79,4.82 -6.43,6.2 -2.63,1.39 -5.73,2.09 -9.27,2.09 -3.32,0 -6.2,-0.56 -8.66,-1.68 -2.45,-1.12 -4.33,-2.73 -5.64,-4.81 -0.74,-1.15 -1.27,-2.5 -1.6,-4.04 -0.32,-1.57 -0.49,-4.02 -0.49,-7.4l0 -2.26 0 -28.56 8.1 0z"/>
   <path id="32" class="fil4" d="M641.1 834.18c-2.5,2.6 -5.14,4.54 -7.94,5.85 -2.79,1.3 -5.76,1.95 -8.91,1.95 -4.85,0 -8.64,-1.25 -11.37,-3.79 -2.73,-2.53 -4.09,-6.03 -4.09,-10.49 0,-4.31 1.33,-7.71 4.01,-10.17 2.69,-2.45 6.78,-4.03 12.25,-4.74 1.39,-0.15 3.27,-0.36 5.65,-0.62 4.05,-0.41 6.55,-0.82 7.46,-1.2 0.93,-0.36 1.53,-0.83 1.82,-1.41 0.3,-0.57 0.46,-1.83 0.46,-3.76 0,-2.42 -0.9,-4.24 -2.67,-5.47 -1.78,-1.21 -4.46,-1.82 -8.05,-1.82 -3.7,0 -6.5,0.74 -8.38,2.23 -1.88,1.49 -2.82,3.68 -2.82,6.59l-7.55 0 0 -0.36c0,-4.79 1.68,-8.59 5.06,-11.37 3.38,-2.79 8.02,-4.18 13.95,-4.18 6.36,0 11.05,1.2 14.05,3.58 3,2.38 4.5,6.1 4.5,11.18l0 23.78c0,2.03 0.23,3.35 0.67,3.94 0.45,0.59 1.25,0.9 2.41,0.9 0.24,0 0.53,-0.02 0.87,-0.06 0.35,-0.05 0.76,-0.12 1.23,-0.21l0 6.18c-0.97,0.27 -1.83,0.45 -2.56,0.56 -0.71,0.11 -1.41,0.17 -2.06,0.17 -2.67,0 -4.67,-0.58 -5.99,-1.75 -1.33,-1.15 -2,-2.91 -2,-5.24l0 -0.27zm-0.76 -17.84c-2.13,1.15 -5.79,2.04 -10.97,2.7 -1.83,0.24 -3.21,0.42 -4.14,0.57 -2.89,0.47 -4.98,1.34 -6.26,2.58 -1.27,1.24 -1.91,3.04 -1.91,5.42 0,2.37 0.75,4.19 2.23,5.46 1.47,1.27 3.59,1.91 6.35,1.91 4.29,0 7.82,-1.08 10.57,-3.24 2.75,-2.17 4.13,-4.93 4.13,-8.31l0 -7.09z"/>
   <path id="33" class="fil4" d="M692.64 808.79c-0.25,-3.26 -1.41,-5.78 -3.54,-7.53 -2.1,-1.78 -5,-2.66 -8.67,-2.66 -4.35,0 -7.7,1.55 -10.03,4.64 -2.33,3.09 -3.5,7.55 -3.5,13.35 0,5.82 1.12,10.31 3.38,13.43 2.24,3.13 5.46,4.69 9.62,4.69 3.7,0 6.67,-0.96 8.9,-2.88 2.24,-1.93 3.64,-4.73 4.2,-8.4l7.64 0c-0.24,5.38 -2.12,9.75 -5.64,13.1 -3.53,3.33 -8.17,5.15 -13.91,5.45l0 3.46 1.16 0c3.02,0 5.35,0.6 7.01,1.82 1.65,1.23 2.47,2.94 2.47,5.17 0,2.6 -0.9,4.57 -2.67,5.88 -1.78,1.3 -4.43,1.95 -7.96,1.95 -1.5,0 -3.18,-0.13 -5.05,-0.42 -1.85,-0.28 -3.8,-0.7 -5.88,-1.28l0 -4.12c2.34,0.53 4.46,0.94 6.34,1.22 1.88,0.28 3.38,0.42 4.5,0.42 1.52,0 2.68,-0.29 3.49,-0.85 0.81,-0.56 1.22,-1.38 1.22,-2.46 0,-1.15 -0.43,-2.03 -1.33,-2.62 -0.89,-0.59 -2.24,-0.89 -4.05,-0.89 -0.5,0 -0.95,0 -1.35,0.01 -0.41,0.02 -0.8,0.03 -1.18,0.03l0 -7.32c-5.98,-0.56 -10.68,-3.07 -14.12,-7.55 -3.45,-4.47 -5.16,-10.3 -5.16,-17.53 0,-7.9 1.96,-14.13 5.88,-18.66 3.93,-4.55 9.26,-6.82 16.02,-6.82 5.98,0 10.77,1.57 14.36,4.73 3.61,3.15 5.45,7.36 5.58,12.64l-7.73 0z"/>
   <path id="34" class="fil4" d="M738.21 834.18c-2.5,2.6 -5.13,4.54 -7.94,5.85 -2.79,1.3 -5.76,1.95 -8.91,1.95 -4.85,0 -8.64,-1.25 -11.37,-3.79 -2.73,-2.53 -4.09,-6.03 -4.09,-10.49 0,-4.31 1.33,-7.71 4.02,-10.17 2.68,-2.45 6.77,-4.03 12.24,-4.74 1.4,-0.15 3.28,-0.36 5.66,-0.62 4.04,-0.41 6.54,-0.82 7.45,-1.2 0.93,-0.36 1.53,-0.83 1.82,-1.41 0.31,-0.57 0.46,-1.83 0.46,-3.76 0,-2.42 -0.9,-4.24 -2.67,-5.47 -1.77,-1.21 -4.46,-1.82 -8.05,-1.82 -3.7,0 -6.5,0.74 -8.38,2.23 -1.88,1.49 -2.82,3.68 -2.82,6.59l-7.55 0 0 -0.36c0,-4.79 1.68,-8.59 5.06,-11.37 3.38,-2.79 8.02,-4.18 13.95,-4.18 6.37,0 11.05,1.2 14.05,3.58 3,2.38 4.5,6.1 4.5,11.18l0 23.78c0,2.03 0.23,3.35 0.67,3.94 0.45,0.59 1.26,0.9 2.41,0.9 0.24,0 0.53,-0.02 0.88,-0.06 0.35,-0.05 0.76,-0.12 1.22,-0.21l0 6.18c-0.97,0.27 -1.83,0.45 -2.56,0.56 -0.71,0.11 -1.41,0.17 -2.06,0.17 -2.67,0 -4.67,-0.58 -5.99,-1.75 -1.33,-1.15 -2,-2.91 -2,-5.24l0 -0.27zm-0.75 -17.84c-2.14,1.15 -5.79,2.04 -10.98,2.7 -1.83,0.24 -3.21,0.42 -4.14,0.57 -2.89,0.47 -4.98,1.34 -6.26,2.58 -1.27,1.24 -1.91,3.04 -1.91,5.42 0,2.37 0.75,4.19 2.23,5.46 1.47,1.27 3.6,1.91 6.35,1.91 4.29,0 7.82,-1.08 10.57,-3.24 2.76,-2.17 4.14,-4.93 4.14,-8.31l0 -7.09zm3 -42.11c-0.59,2.99 -1.62,5.26 -3.11,6.84 -1.49,1.56 -3.36,2.35 -5.64,2.35 -0.38,0 -0.82,-0.03 -1.3,-0.11 -0.5,-0.08 -1.02,-0.2 -1.58,-0.33l-4.3 -1.22c-0.38,-0.1 -0.76,-0.19 -1.14,-0.25 -0.36,-0.07 -0.71,-0.1 -1.05,-0.1 -0.87,0 -1.66,0.26 -2.34,0.79 -0.69,0.52 -1.23,1.29 -1.64,2.31l-3.91 0c0.53,-2.91 1.54,-5.16 3.01,-6.73 1.49,-1.58 3.34,-2.37 5.55,-2.37 0.5,0 0.99,0.03 1.43,0.09 0.44,0.06 0.85,0.15 1.19,0.26l4.4 1.3c0.44,0.11 0.85,0.2 1.24,0.26 0.38,0.06 0.76,0.09 1.11,0.09 1,0 1.85,-0.27 2.53,-0.8 0.68,-0.53 1.23,-1.32 1.64,-2.38l3.91 0z"/>
   <path id="35" class="fil4" d="M763.92 816.67c0,5.9 1.26,10.41 3.79,13.54 2.53,3.12 6.15,4.68 10.85,4.68 4.67,0 8.25,-1.56 10.73,-4.68 2.49,-3.13 3.73,-7.64 3.73,-13.54 0,-5.85 -1.24,-10.35 -3.73,-13.47 -2.48,-3.13 -6.06,-4.69 -10.73,-4.69 -4.73,0 -8.35,1.56 -10.87,4.67 -2.51,3.11 -3.77,7.61 -3.77,13.49zm-8.18 0c0,-7.96 1.98,-14.16 5.97,-18.6 3.98,-4.44 9.56,-6.65 16.76,-6.65 7.23,0 12.84,2.21 16.83,6.64 4,4.42 6,10.62 6,18.61 0,8 -1.99,14.22 -5.97,18.66 -3.99,4.44 -9.57,6.65 -16.77,6.65 -7.23,0 -12.84,-2.21 -16.82,-6.64 -4,-4.42 -6,-10.64 -6,-18.67z"/>
   <polygon id="36" class="fil4" points="855.96,771.05 855.96,861.99 849.32,861.99 849.32,771.05 "/>
   <path id="37" class="fil4" d="M906.88 815.73l0 -40.59 8.92 0 0 40.67c0,6.14 1.35,10.67 4.06,13.59 2.71,2.93 6.9,4.4 12.58,4.4 5.62,0 9.82,-1.49 12.58,-4.46 2.77,-2.98 4.15,-7.49 4.15,-13.53l0 -40.67 8.92 0 0 40.59c0,8.75 -2.26,15.37 -6.78,19.87 -4.52,4.5 -11.15,6.75 -19.92,6.75 -8.17,0 -14.29,-2.22 -18.38,-6.66 -4.08,-4.44 -6.13,-11.09 -6.13,-19.96z"/>
   <polygon id="38" class="fil4" points="971.73,840.53 971.73,775.14 1015.65,775.14 1015.65,783.32 980.64,783.32 980.64,802.97 1011.21,802.97 1011.21,810.97 980.64,810.97 980.64,840.53 "/>
   <path id="39" class="fil4" d="M1033.66 805.06l14.9 0c5.18,0 8.79,-0.83 10.85,-2.49 2.05,-1.66 3.08,-4.5 3.08,-8.53 0,-3.89 -1.02,-6.67 -3.06,-8.37 -2.03,-1.68 -5.44,-2.53 -10.2,-2.53l-15.57 0 0 21.92zm-8.91 35.47l0 -65.39 24.08 0c3.91,0 6.88,0.2 8.93,0.57 2.05,0.38 3.86,1.02 5.47,1.91 2.67,1.46 4.7,3.6 6.12,6.45 1.43,2.83 2.14,6.17 2.14,9.99 0,3.63 -0.71,6.85 -2.14,9.64 -1.42,2.77 -3.48,5 -6.21,6.65 -1.58,0.96 -3.41,1.62 -5.53,2.02 -2.12,0.4 -5.61,0.6 -10.46,0.6l-13.49 0 0 27.56 -8.91 0z"/>
   <path id="40" class="fil4" d="M1087.5 813.34l20.38 0 -10.12 -28.83 -10.26 28.83zm-18.92 27.19l24.3 -65.39 9.81 0 24.37 65.39 -9.64 0 -6.93 -19.56 -25.73 0 -6.98 19.56 -9.2 0z"/>
  </g>
 </g>
</svg>
