<?xml version="1.0" encoding="UTF-8"?>
<!DOCTYPE svg PUBLIC "-//W3C//DTD SVG 1.1//EN" "http://www.w3.org/Graphics/SVG/1.1/DTD/svg11.dtd">
<!-- Creator: CorelDRAW 2017 -->
<svg xmlns="http://www.w3.org/2000/svg" xml:space="preserve" width="1920px" height="1080px" version="1.1" style="shape-rendering:geometricPrecision; text-rendering:geometricPrecision; image-rendering:optimizeQuality; fill-rule:evenodd; clip-rule:evenodd"
viewBox="0 0 1920 1080"
 xmlns:xlink="http://www.w3.org/1999/xlink">
 <defs>
  <style type="text/css">
   <![CDATA[
    .fil0 {fill:none}
    .fil1 {fill:#045A99}
   ]]>
  </style>
 </defs>
 <g id="Camada_x0020_1">
  <metadata id="CorelCorpID_0Corel-Layer"/>
  <rect class="fil0" x="0.01" width="1920" height="1080"/>
  <path id="Logo_x0020_CNPq" class="fil1" d="M265.18 491.21c0,-82.77 67.1,-149.86 149.87,-149.86 82.77,0 149.86,67.09 149.86,149.86 0,40.07 -15.72,76.46 -41.33,103.35l51.42 179.21 52.6 0 -44.81 -165.51c23.18,-33.16 36.78,-73.52 36.78,-117.05 0,-112.95 -91.57,-204.52 -204.52,-204.52 -112.96,0 -204.53,91.57 -204.53,204.52l-68.61 152.99 61.67 0 0 129.57 68.21 0 215.67 0 -15.45 -55.6 -215.11 0 0 -120.81 -34.59 0 42.87 -106.15zm149.87 -134.49c-74.28,0 -134.5,60.21 -134.5,134.49l-35.66 92.95 26.9 0 0 121.04 196.62 0 -14.81 -53.32 -128.37 0 0 -107.35 -11.32 0 20.46 -53.32c0,-44.55 36.12,-80.67 80.68,-80.67 44.55,0 80.67,36.12 80.67,80.67 0,32.51 -19.22,60.52 -46.91,73.3l58.48 209.26 52.22 0 -52.82 -184.11c26.36,-24.56 42.85,-59.58 42.85,-98.45 0,-74.28 -60.21,-134.49 -134.49,-134.49zm0 81.18c-29.45,0 -53.32,23.87 -53.32,53.31 0,29.45 23.87,53.32 53.32,53.32 29.44,0 53.31,-23.87 53.31,-53.32 0,-29.44 -23.87,-53.31 -53.31,-53.31zm284.65 16.91c-16.63,20.55 -27.68,48.44 -33.14,83.68 -4.32,43.87 -0.72,74.61 10.8,92.23 8.21,17.81 22.7,30.43 43.48,37.84 11.37,3.51 29.22,5.56 53.55,6.13 48.98,0.62 86.36,-11.51 112.16,-36.41 20.66,-17.43 31.71,-37.59 33.15,-60.5l-79.74 0c-4.98,26.44 -23.16,40.4 -54.52,41.87 -17.29,0.51 -29.77,-8.73 -37.44,-27.72 -3.62,-12.79 -2.75,-35.57 2.62,-68.33 5.75,-28.69 17.52,-51.62 35.3,-68.79 10.99,-10.67 22.84,-15.56 35.57,-14.66 17.42,0.87 29.42,5.76 36,14.66 3.03,4.88 4.32,12.72 3.85,23.54l80.93 0c1.61,-8.46 2.49,-16.31 2.65,-23.54 0.86,-26.21 -15.87,-44.62 -50.2,-55.24 -19,-5.64 -40.1,-8.59 -63.31,-8.83 -23.77,-0.62 -43.89,2.33 -60.38,8.83 -29.57,9.11 -53.35,27.52 -71.33,55.24zm292.71 -55.24l-55.72 268.99 70.13 0 40.85 -206.07 50.42 206.07 104.71 0 59.08 -268.99 -70.61 0 -43.23 195.26 -47.07 -195.26 -108.56 0zm313.18 0l-54.27 268.99 75.41 0 20.34 -93.36 72.45 0c47.1,-6.74 79.34,-24.44 96.71,-53.09 9.17,-15.36 13.33,-37.79 12.49,-67.3 -2.85,-27.77 -19.9,-44.58 -51.16,-50.43 -12.56,-2.82 -31.45,-4.42 -56.68,-4.81l-115.29 0zm53.05 122.54l14.65 -67.3 40.63 0c14.04,0.82 24.53,4.87 29.56,12.16 10.85,15.68 -0.01,46.13 -34.61,55.14l-50.23 0zm193.16 -1.39c-14.82,26.79 -22.1,53.05 -21.82,78.81 -1.33,15.99 1.23,31.27 7.65,45.84 7.45,18.37 25.94,27.98 55.48,28.82 24.49,1.9 46.14,-8.56 64.96,-31.39l-21.05 99.73 69.17 0 56.2 -261.78 -70.13 0 -5.25 24.87c-13.76,-22.27 -30.97,-33.49 -51.63,-33.66 -37.93,1.98 -65.79,18.23 -83.58,48.76zm53.3 54.9c2.77,-13.78 7.17,-26.34 13.21,-37.71 8.34,-14.55 18.67,-21.83 30.98,-21.85 11.52,0.74 19.46,6.35 23.84,16.81 3.24,11.14 3.54,25.39 0.9,42.75 -2.89,16.1 -8.35,29.55 -16.38,40.37 -7.77,10.45 -18.32,15.73 -31.65,15.83 -10.27,0.16 -17.64,-5.28 -22.1,-16.34 -2.27,-11.22 -1.87,-24.51 1.2,-39.86z"/>
 </g>
</svg>
