<?xml version="1.0" encoding="UTF-8"?>
<!DOCTYPE svg PUBLIC "-//W3C//DTD SVG 1.1//EN" "http://www.w3.org/Graphics/SVG/1.1/DTD/svg11.dtd">
<!-- Creator: CorelDRAW 2017 -->
<svg xmlns="http://www.w3.org/2000/svg" xml:space="preserve" width="750px" height="750px" version="1.1" style="shape-rendering:geometricPrecision; text-rendering:geometricPrecision; image-rendering:optimizeQuality; fill-rule:evenodd; clip-rule:evenodd"
viewBox="0 0 750 750"
 xmlns:xlink="http://www.w3.org/1999/xlink">
 <defs>
  <style type="text/css">
   <![CDATA[
    .str0 {stroke:#FEFEFE;stroke-width:5;stroke-linecap:round;stroke-linejoin:round;stroke-miterlimit:22.9256;stroke-opacity:0.450980}
    .fil1 {fill:none}
    .fil2 {fill:none}
    .fil0 {fill:#373435;fill-opacity:0.501961}
   ]]>
  </style>
 </defs>
 <g id="Camada_x0020_1">
  <metadata id="CorelCorpID_0Corel-Layer"/>
  <path class="fil0" d="M267.82 267.82l107.18 0 107.18 0 0 107.18 0 107.18 -107.18 0 -107.18 0 0 -107.18 0 -107.18zm482.18 -267.82l-750 0 0 750 750 0 0 -750z"/>
  <rect class="fil1" x="267.82" y="267.82" width="214.36" height="214.36"/>
  <path class="fil2 str0" d="M375 267.82l0 13.99m0 186.38l0 13.99m-107.18 -107.18l13.99 0m186.38 0l13.99 0m-54.93 -81.96l29.71 0 0 29.71m0 104.5l0 29.71 -29.71 0m-104.5 0l-29.71 0 0 -29.71m0 -104.5l0 -29.71 29.71 0"/>
 </g>
</svg>
