<?xml version="1.0" encoding="UTF-8"?>
<!DOCTYPE svg PUBLIC "-//W3C//DTD SVG 1.1//EN" "http://www.w3.org/Graphics/SVG/1.1/DTD/svg11.dtd">
<!-- Creator: CorelDRAW 2017 -->
<svg xmlns="http://www.w3.org/2000/svg" xml:space="preserve" width="1920px" height="1080px" version="1.1" style="shape-rendering:geometricPrecision; text-rendering:geometricPrecision; image-rendering:optimizeQuality; fill-rule:evenodd; clip-rule:evenodd"
viewBox="0 0 1920 1080"
 xmlns:xlink="http://www.w3.org/1999/xlink">
 <defs>
  <style type="text/css">
   <![CDATA[
    .fil0 {fill:none}
    .fil2 {fill:#009B03}
    .fil6 {fill:#6ABF03}
    .fil7 {fill:#6ABF03}
    .fil1 {fill:#0078BC;fill-rule:nonzero}
    .fil3 {fill:url(#id0)}
    .fil5 {fill:url(#id1)}
    .fil4 {fill:url(#id2)}
   ]]>
  </style>
  <linearGradient id="id0" gradientUnits="userSpaceOnUse" x1="96.85" y1="517.56" x2="832.18" y2="517.56">
   <stop offset="0" style="stop-opacity:1; stop-color:#CBDD00"/>
   <stop offset="0.341176" style="stop-opacity:1; stop-color:#ABD409"/>
   <stop offset="1" style="stop-opacity:1; stop-color:#8ACA13"/>
  </linearGradient>
  <linearGradient id="id1" gradientUnits="userSpaceOnUse" x1="325.88" y1="744.43" x2="546" y2="744.43">
   <stop offset="0" style="stop-opacity:1; stop-color:#D8E100"/>
   <stop offset="1" style="stop-opacity:1; stop-color:#8BCB11"/>
  </linearGradient>
  <linearGradient id="id2" gradientUnits="userSpaceOnUse" x1="281.71" y1="767.48" x2="458.86" y2="767.48">
   <stop offset="0" style="stop-opacity:1; stop-color:#BDD800"/>
   <stop offset="1" style="stop-opacity:1; stop-color:#94CD11"/>
  </linearGradient>
 </defs>
 <g id="Camada_x0020_1">
  <metadata id="CorelCorpID_0Corel-Layer"/>
  <rect class="fil0" x="0.01" width="1920" height="1080"/>
  <g id="Logo_x0020_Fapespa">
   <path class="fil1" d="M769.53 587.1l-82.81 0 0 53.06 69.23 0c6.38,0 11.21,1.44 14.35,4.3 3.14,2.89 4.74,6.76 4.74,11.54 0,4.84 -1.6,8.65 -4.79,11.5 -3.23,2.85 -8.01,4.25 -14.3,4.25l-69.23 0 0 68.32c0,8.7 -1.99,15.13 -5.9,19.33 -3.91,4.2 -8.94,6.28 -15.03,6.28 -6.23,0 -11.3,-2.12 -15.22,-6.38 -3.91,-4.25 -5.89,-10.67 -5.89,-19.23l0 -159.68c0,-6.04 0.92,-10.97 2.71,-14.79 1.78,-3.82 4.59,-6.62 8.4,-8.36 3.82,-1.74 8.7,-2.61 14.64,-2.61l99.1 0c6.72,0 11.69,1.5 14.93,4.45 3.24,2.99 4.88,6.91 4.88,11.69 0,4.93 -1.64,8.89 -4.88,11.89 -3.24,2.94 -8.21,4.44 -14.93,4.44zm138.96 156.89c-9.37,7.25 -18.41,12.66 -27.11,16.28 -8.74,3.62 -18.55,5.41 -29.37,5.41 -9.91,0 -18.65,-1.98 -26.14,-5.89 -7.49,-3.92 -13.29,-9.18 -17.35,-15.9 -4.06,-6.72 -6.09,-13.96 -6.09,-21.79 0,-10.58 3.34,-19.57 10.05,-27.01 6.72,-7.49 15.95,-12.46 27.69,-15.03 2.42,-0.58 8.5,-1.83 18.22,-3.81 9.71,-1.98 18.07,-3.77 24.97,-5.46 6.91,-1.64 14.45,-3.63 22.57,-5.99 -0.49,-10.2 -2.51,-17.69 -6.14,-22.42 -3.67,-4.79 -11.16,-7.15 -22.61,-7.15 -9.81,0 -17.2,1.35 -22.13,4.1 -4.98,2.71 -9.23,6.82 -12.76,12.32 -3.52,5.46 -6.03,9.04 -7.48,10.83 -1.5,1.74 -4.64,2.61 -9.42,2.61 -4.35,0 -8.12,-1.4 -11.26,-4.21 -3.14,-2.75 -4.74,-6.33 -4.74,-10.67 0,-6.82 2.42,-13.44 7.2,-19.86 4.83,-6.43 12.32,-11.7 22.52,-15.85 10.19,-4.16 22.9,-6.24 38.12,-6.24 16.96,0 30.34,2.03 40.05,6.05 9.72,4 16.58,10.33 20.59,19.03 4.01,8.7 6.04,20.2 6.04,34.55 0,9.08 -0.05,16.76 -0.1,23.09 -0.05,6.33 -0.1,13.39 -0.19,21.12 0,7.25 1.2,14.83 3.62,22.71 2.41,7.82 3.57,12.9 3.57,15.17 0,3.96 -1.83,7.58 -5.55,10.82 -3.77,3.24 -7.97,4.88 -12.71,4.88 -3.96,0 -7.87,-1.83 -11.74,-5.55 -3.86,-3.72 -7.97,-9.09 -12.32,-16.14zm-2.56 -56c-5.65,2.08 -13.87,4.3 -24.69,6.57 -10.78,2.32 -18.27,4.06 -22.42,5.12 -4.16,1.11 -8.12,3.24 -11.89,6.38 -3.76,3.19 -5.65,7.58 -5.65,13.29 0,5.84 2.22,10.82 6.67,14.93 4.39,4.1 10.19,6.18 17.39,6.18 7.64,0 14.69,-1.69 21.12,-5.02 6.47,-3.39 11.21,-7.69 14.25,-13 3.48,-5.85 5.22,-15.51 5.22,-28.94l0 -5.51zm109 -57.69l0 4.69c7.25,-8.99 14.84,-15.61 22.66,-19.82 7.83,-4.2 16.67,-6.33 26.58,-6.33 11.93,0 22.85,3.05 32.85,9.19 10,6.13 17.93,15.12 23.73,26.91 5.79,11.79 8.69,25.75 8.69,41.89 0,11.88 -1.69,22.8 -5.02,32.76 -3.34,9.95 -7.97,18.31 -13.82,25.07 -5.85,6.77 -12.76,11.94 -20.73,15.56 -7.97,3.63 -16.52,5.46 -25.7,5.46 -11.02,0 -20.3,-2.22 -27.78,-6.67 -7.49,-4.39 -14.64,-10.92 -21.46,-19.52l0 58.08c0,17.01 -6.18,25.51 -18.55,25.51 -7.25,0 -12.08,-2.17 -14.45,-6.57 -2.37,-4.4 -3.53,-10.77 -3.53,-19.18l0 -166.84c0,-7.34 1.6,-12.85 4.84,-16.48 3.19,-3.62 7.58,-5.45 13.14,-5.45 5.46,0 9.95,1.88 13.38,5.6 3.43,3.77 5.17,9.13 5.17,16.14zm75.67 56.19c0,-10.19 -1.55,-18.94 -4.69,-26.23 -3.09,-7.3 -7.39,-12.95 -12.9,-16.87 -5.56,-3.91 -11.64,-5.84 -18.31,-5.84 -10.68,0 -19.67,4.2 -26.96,12.56 -7.3,8.41 -10.97,20.77 -10.97,37.06 0,15.36 3.62,27.34 10.87,35.85 7.3,8.55 16.28,12.8 27.06,12.8 6.38,0 12.32,-1.88 17.78,-5.6 5.46,-3.72 9.86,-9.28 13.19,-16.72 3.28,-7.49 4.93,-16.48 4.93,-27.01zm177.66 10.2l-75.62 0c0.1,8.79 1.89,16.52 5.32,23.24 3.43,6.71 8.02,11.74 13.72,15.12 5.7,3.43 12.03,5.12 18.89,5.12 4.64,0 8.84,-0.53 12.66,-1.64 3.87,-1.07 7.54,-2.76 11.11,-5.08 3.63,-2.31 6.91,-4.78 9.91,-7.44 3.04,-2.65 6.96,-6.23 11.79,-10.77 1.98,-1.69 4.78,-2.56 8.45,-2.56 3.96,0 7.2,1.11 9.67,3.28 2.41,2.13 3.67,5.22 3.67,9.18 0,3.48 -1.4,7.54 -4.11,12.23 -2.75,4.64 -6.86,9.13 -12.42,13.38 -5.51,4.3 -12.41,7.88 -20.77,10.68 -8.36,2.85 -17.98,4.25 -28.8,4.25 -24.83,0 -44.11,-7.1 -57.88,-21.26 -13.77,-14.16 -20.63,-33.34 -20.63,-57.59 0,-11.4 1.69,-22.03 5.07,-31.79 3.38,-9.76 8.36,-18.12 14.83,-25.13 6.52,-6.96 14.55,-12.32 24.06,-16.04 9.52,-3.72 20.1,-5.61 31.7,-5.61 15.12,0 28.07,3.19 38.85,9.57 10.82,6.38 18.89,14.59 24.3,24.74 5.36,10.1 8.07,20.39 8.07,30.87 0,9.72 -2.8,16.05 -8.36,18.94 -5.56,2.86 -13.38,4.31 -23.48,4.31zm-75.62 -22.04l70.06 0c-0.92,-13.19 -4.49,-23.04 -10.68,-29.62 -6.18,-6.52 -14.3,-9.8 -24.4,-9.8 -9.66,0 -17.54,3.33 -23.72,9.95 -6.18,6.67 -9.95,16.48 -11.26,29.47zm264.44 40.59c0,10.63 -2.61,19.76 -7.78,27.35 -5.17,7.58 -12.85,13.33 -23,17.25 -10.14,3.91 -22.46,5.84 -37.01,5.84 -13.86,0 -25.75,-2.12 -35.65,-6.38 -9.91,-4.2 -17.2,-9.51 -21.94,-15.89 -4.69,-6.33 -7.06,-12.71 -7.06,-19.14 0,-4.25 1.5,-7.87 4.55,-10.87 2.99,-3.04 6.81,-4.54 11.45,-4.54 4.06,0 7.15,1.02 9.32,3 2.18,1.98 4.26,4.73 6.24,8.36 3.96,6.86 8.69,12.03 14.2,15.41 5.51,3.43 13.05,5.12 22.56,5.12 7.74,0 14.06,-1.74 18.99,-5.17 4.98,-3.43 7.44,-7.39 7.44,-11.84 0,-6.81 -2.56,-11.74 -7.68,-14.88 -5.17,-3.09 -13.62,-6.09 -25.41,-8.94 -13.29,-3.28 -24.11,-6.76 -32.47,-10.39 -8.31,-3.62 -14.98,-8.45 -20.01,-14.39 -4.97,-5.95 -7.48,-13.29 -7.48,-21.94 0,-7.78 2.31,-15.07 6.91,-21.98 4.63,-6.91 11.45,-12.37 20.48,-16.48 8.99,-4.11 19.86,-6.18 32.62,-6.18 10,0 18.98,1.01 26.91,3.09 7.97,2.08 14.64,4.88 19.95,8.36 5.37,3.52 9.43,7.39 12.18,11.64 2.8,4.25 4.2,8.36 4.2,12.47 0,4.39 -1.5,8.07 -4.49,10.87 -2.95,2.85 -7.2,4.25 -12.66,4.25 -3.96,0 -7.34,-1.11 -10.15,-3.38 -2.75,-2.27 -5.94,-5.65 -9.56,-10.2 -2.9,-3.77 -6.33,-6.81 -10.29,-9.08 -3.97,-2.27 -9.33,-3.38 -16.14,-3.38 -6.96,0 -12.76,1.49 -17.4,4.44 -4.59,3 -6.91,6.72 -6.91,11.16 0,4.06 1.7,7.4 5.08,9.96 3.43,2.61 7.97,4.78 13.72,6.47 5.75,1.69 13.67,3.77 23.77,6.23 11.98,2.9 21.79,6.43 29.38,10.49 7.58,4.06 13.33,8.84 17.25,14.4 3.91,5.5 5.89,11.79 5.89,18.89zm68.42 -84.94l0 4.69c7.25,-8.99 14.83,-15.61 22.66,-19.82 7.83,-4.2 16.67,-6.33 26.57,-6.33 11.94,0 22.86,3.05 32.86,9.19 10,6.13 17.92,15.12 23.72,26.91 5.8,11.79 8.7,25.75 8.7,41.89 0,11.88 -1.69,22.8 -5.03,32.76 -3.33,9.95 -7.97,18.31 -13.81,25.07 -5.85,6.77 -12.76,11.94 -20.73,15.56 -7.98,3.63 -16.53,5.46 -25.71,5.46 -11.01,0 -20.29,-2.22 -27.78,-6.67 -7.49,-4.39 -14.64,-10.92 -21.45,-19.52l0 58.08c0,17.01 -6.19,25.51 -18.56,25.51 -7.24,0 -12.07,-2.17 -14.44,-6.57 -2.37,-4.4 -3.53,-10.77 -3.53,-19.18l0 -166.84c0,-7.34 1.6,-12.85 4.83,-16.48 3.19,-3.62 7.59,-5.45 13.14,-5.45 5.46,0 9.96,1.88 13.39,5.6 3.43,3.77 5.17,9.13 5.17,16.14zm75.66 56.19c0,-10.19 -1.54,-18.94 -4.68,-26.23 -3.1,-7.3 -7.4,-12.95 -12.91,-16.87 -5.55,-3.91 -11.64,-5.84 -18.31,-5.84 -10.68,0 -19.66,4.2 -26.96,12.56 -7.29,8.41 -10.97,20.77 -10.97,37.06 0,15.36 3.63,27.34 10.88,35.85 7.29,8.55 16.28,12.8 27.05,12.8 6.38,0 12.32,-1.88 17.78,-5.6 5.46,-3.72 9.86,-9.28 13.19,-16.72 3.29,-7.49 4.93,-16.48 4.93,-27.01zm167.52 57.5c-9.38,7.25 -18.41,12.66 -27.11,16.28 -8.74,3.62 -18.55,5.41 -29.38,5.41 -9.9,0 -18.65,-1.98 -26.14,-5.89 -7.48,-3.92 -13.28,-9.18 -17.34,-15.9 -4.06,-6.72 -6.09,-13.96 -6.09,-21.79 0,-10.58 3.34,-19.57 10.05,-27.01 6.72,-7.49 15.95,-12.46 27.69,-15.03 2.41,-0.58 8.5,-1.83 18.21,-3.81 9.71,-1.98 18.07,-3.77 24.98,-5.46 6.91,-1.64 14.45,-3.63 22.57,-5.99 -0.49,-10.2 -2.52,-17.69 -6.14,-22.42 -3.67,-4.79 -11.16,-7.15 -22.61,-7.15 -9.81,0 -17.2,1.35 -22.13,4.1 -4.98,2.71 -9.23,6.82 -12.76,12.32 -3.52,5.46 -6.04,9.04 -7.49,10.83 -1.49,1.74 -4.64,2.61 -9.42,2.61 -4.35,0 -8.12,-1.4 -11.26,-4.21 -3.14,-2.75 -4.73,-6.33 -4.73,-10.67 0,-6.82 2.41,-13.44 7.2,-19.86 4.83,-6.43 12.32,-11.7 22.51,-15.85 10.2,-4.16 22.91,-6.24 38.13,-6.24 16.96,0 30.34,2.03 40.05,6.05 9.71,4 16.57,10.33 20.58,19.03 4.01,8.7 6.04,20.2 6.04,34.55 0,9.08 -0.04,16.76 -0.09,23.09 -0.05,6.33 -0.1,13.39 -0.2,21.12 0,7.25 1.21,14.83 3.63,22.71 2.41,7.82 3.57,12.9 3.57,15.17 0,3.96 -1.83,7.58 -5.55,10.82 -3.77,3.24 -7.98,4.88 -12.71,4.88 -3.96,0 -7.88,-1.83 -11.74,-5.55 -3.87,-3.72 -7.97,-9.09 -12.32,-16.14zm-2.56 -56c-5.66,2.08 -13.87,4.3 -24.69,6.57 -10.78,2.32 -18.27,4.06 -22.42,5.12 -4.16,1.11 -8.12,3.24 -11.89,6.38 -3.77,3.19 -5.65,7.58 -5.65,13.29 0,5.84 2.22,10.82 6.67,14.93 4.39,4.1 10.19,6.18 17.39,6.18 7.63,0 14.69,-1.69 21.11,-5.02 6.48,-3.39 11.21,-7.69 14.26,-13 3.48,-5.85 5.22,-15.51 5.22,-28.94l0 -5.51z"/>
   <path class="fil2" d="M1740.26 972.73c-1.82,2.01 -2.72,4.44 -2.72,7.3 0,2.12 0.55,4.07 1.65,5.89 1.1,1.82 2.66,3.24 4.69,4.3 2.02,1.06 4.39,1.59 7.06,1.59 2.93,0 5.58,-0.48 7.95,-1.46 2.35,-0.98 4.79,-2.44 7.33,-4.4 1.17,1.9 2.28,3.35 3.33,4.36 1.04,1.01 2.1,1.5 3.17,1.5 1.28,0 2.42,-0.44 3.44,-1.32 1,-0.87 1.5,-1.85 1.5,-2.92 0,-0.62 -0.31,-1.99 -0.97,-4.1 -0.65,-2.14 -0.98,-4.18 -0.98,-6.15 0.03,-2.08 0.04,-3.99 0.06,-5.7 0.01,-1.71 0.02,-3.79 0.02,-6.25 0,-3.88 -0.55,-6.99 -1.63,-9.34 -1.09,-2.35 -2.94,-4.06 -5.57,-5.14 -2.62,-1.09 -6.24,-1.64 -10.83,-1.64 -4.11,0 -7.55,0.57 -10.3,1.69 -2.76,1.12 -4.78,2.55 -6.09,4.28 -1.29,1.74 -1.95,3.53 -1.95,5.37 0,1.18 0.43,2.14 1.29,2.89 0.84,0.76 1.86,1.13 3.04,1.13 1.29,0 2.14,-0.23 2.55,-0.7 0.39,-0.48 1.07,-1.45 2.02,-2.93 0.95,-1.49 2.1,-2.6 3.45,-3.33 1.33,-0.74 3.33,-1.11 5.98,-1.11 3.1,0 5.12,0.64 6.11,1.93 0.98,1.29 1.53,3.31 1.66,6.07 -2.19,0.64 -4.23,1.17 -6.1,1.62 -1.87,0.45 -4.12,0.94 -6.75,1.47 -2.63,0.54 -4.27,0.88 -4.92,1.04 -3.18,0.69 -5.67,2.03 -7.49,4.06zm7.78 6.56c0,-1.55 0.51,-2.73 1.53,-3.6 1.02,-0.85 2.09,-1.42 3.22,-1.72 1.12,-0.29 3.14,-0.76 6.06,-1.39 2.92,-0.61 5.15,-1.21 6.67,-1.77l0 1.49c0,3.63 -0.47,6.24 -1.41,7.82 -0.82,1.44 -2.1,2.6 -3.85,3.52 -1.74,0.9 -3.65,1.35 -5.71,1.35 -1.95,0 -3.51,-0.56 -4.7,-1.67 -1.2,-1.11 -1.81,-2.45 -1.81,-4.03zm-163.5 -20.14c-1.53,3.18 -2.3,6.98 -2.3,11.42 0,4.34 0.75,8.11 2.27,11.32 1.53,3.19 3.62,5.65 6.28,7.36 2.67,1.71 5.62,2.56 8.86,2.56 2.65,0 5.07,-0.53 7.25,-1.59 2.18,-1.06 4.29,-2.59 6.3,-4.6l0 14.73c0,2.16 0.31,3.86 0.94,5.1 0.62,1.25 1.96,1.88 4,1.88 3.29,0 4.93,-2.32 4.93,-6.96l0 -45.19c0,-1.93 -0.45,-3.39 -1.37,-4.37 -0.93,-0.98 -2.11,-1.48 -3.56,-1.48 -1.46,0 -2.64,0.5 -3.57,1.5 -0.92,1 -1.37,2.46 -1.37,4.38l0 1.27c-1.58,-2.38 -3.49,-4.16 -5.7,-5.32 -2.22,-1.16 -4.74,-1.75 -7.55,-1.75 -3.3,0 -6.32,0.82 -9.04,2.48 -2.71,1.66 -4.85,4.08 -6.37,7.26zm9.56 18.61c-0.9,-2.03 -1.36,-4.45 -1.36,-7.26 0,-4.24 0.93,-7.53 2.79,-9.86 1.86,-2.31 4.2,-3.47 6.99,-3.47 1.39,0 2.68,0.27 3.91,0.82 1.23,0.55 2.3,1.37 3.25,2.48 0.94,1.12 1.69,2.51 2.24,4.2 0.55,1.67 0.82,3.56 0.82,5.65 0,2.95 -0.47,5.44 -1.41,7.45 -0.95,2.02 -2.2,3.51 -3.75,4.49 -1.55,0.98 -3.27,1.48 -5.13,1.48 -1.7,0 -3.3,-0.5 -4.77,-1.48 -1.49,-0.98 -2.68,-2.48 -3.58,-4.5zm-97.54 -15.86c-0.91,2.64 -1.37,5.51 -1.37,8.59 0,6.56 1.85,11.75 5.57,15.58 3.73,3.82 8.94,5.74 15.65,5.74 2.93,0 5.53,-0.38 7.79,-1.15 2.26,-0.76 4.13,-1.72 5.62,-2.88 1.5,-1.15 2.61,-2.37 3.35,-3.62 0.74,-1.27 1.12,-2.37 1.12,-3.31 0,-1.07 -0.35,-1.91 -1,-2.48 -0.66,-0.59 -1.54,-0.89 -2.61,-0.89 -0.99,0 -1.75,0.24 -2.29,0.69 -1.3,1.23 -2.36,2.2 -3.18,2.92 -0.81,0.72 -1.7,1.38 -2.68,2.01 -0.97,0.63 -1.96,1.08 -3.01,1.37 -1.03,0.3 -2.16,0.45 -3.42,0.45 -1.85,0 -3.57,-0.46 -5.11,-1.39 -1.54,-0.91 -2.78,-2.27 -3.71,-4.09 -0.92,-1.81 -1.41,-3.9 -1.43,-6.28l20.44 0c2.73,0 4.85,-0.39 6.35,-1.16 1.5,-0.79 2.26,-2.5 2.26,-5.13 0,-2.83 -0.73,-5.61 -2.18,-8.34 -1.47,-2.75 -3.65,-4.97 -6.58,-6.69 -2.91,-1.72 -6.41,-2.59 -10.5,-2.59 -3.13,0 -5.99,0.51 -8.57,1.52 -2.57,1 -4.74,2.45 -6.5,4.34 -1.75,1.89 -3.1,4.15 -4.01,6.79zm9.29 5.3c0.35,-3.51 1.37,-6.17 3.04,-7.97 1.67,-1.79 3.8,-2.69 6.41,-2.69 2.73,0 4.93,0.89 6.6,2.65 1.67,1.78 2.64,4.44 2.89,8.01l-18.94 0zm-55.68 -25.48l0 43.25c0,2.23 0.52,3.94 1.57,5.11 1.04,1.16 2.43,1.73 4.14,1.73 1.62,0 2.98,-0.59 4.05,-1.76 1.07,-1.18 1.61,-2.89 1.61,-5.16l0 -15.89 10.41 0c6.97,0 12.21,-1.47 15.74,-4.41 3.51,-2.95 5.28,-7.28 5.28,-13 0,-2.68 -0.43,-5.09 -1.31,-7.24 -0.86,-2.14 -2.13,-3.94 -3.8,-5.43 -1.67,-1.48 -3.66,-2.53 -5.96,-3.17 -2.32,-0.67 -5.64,-1 -9.95,-1l-14.58 0c-2.51,0 -4.32,0.54 -5.47,1.61 -1.15,1.07 -1.73,2.86 -1.73,5.36zm11.37 18.74l0 -17.16 7.65 0c5.08,0 8.44,0.83 10.07,2.49 1.45,1.56 2.18,3.57 2.18,6.05 0,2.06 -0.47,3.75 -1.41,5.01 -0.95,1.29 -2.32,2.2 -4.11,2.76 -1.8,0.56 -4.05,0.85 -6.73,0.85l-7.65 0zm-77.22 1.44c-0.91,2.64 -1.37,5.51 -1.37,8.59 0,6.56 1.86,11.75 5.58,15.58 3.72,3.82 8.93,5.74 15.65,5.74 2.92,0 5.52,-0.38 7.78,-1.15 2.26,-0.76 4.13,-1.72 5.62,-2.88 1.5,-1.15 2.61,-2.37 3.36,-3.62 0.73,-1.27 1.11,-2.37 1.11,-3.31 0,-1.07 -0.34,-1.91 -0.99,-2.48 -0.67,-0.59 -1.55,-0.89 -2.62,-0.89 -0.99,0 -1.75,0.24 -2.28,0.69 -1.31,1.23 -2.37,2.2 -3.19,2.92 -0.81,0.72 -1.7,1.38 -2.68,2.01 -0.97,0.63 -1.96,1.08 -3,1.37 -1.04,0.3 -2.17,0.45 -3.42,0.45 -1.86,0 -3.57,-0.46 -5.11,-1.39 -1.55,-0.91 -2.79,-2.27 -3.71,-4.09 -0.93,-1.81 -1.41,-3.9 -1.44,-6.28l20.44 0c2.73,0 4.85,-0.39 6.35,-1.16 1.5,-0.79 2.26,-2.5 2.26,-5.13 0,-2.83 -0.73,-5.61 -2.18,-8.34 -1.46,-2.75 -3.64,-4.97 -6.57,-6.69 -2.91,-1.72 -6.41,-2.59 -10.5,-2.59 -3.14,0 -6,0.51 -8.57,1.52 -2.58,1 -4.75,2.45 -6.51,4.34 -1.75,1.89 -3.09,4.15 -4.01,6.79zm9.29 5.3c0.35,-3.51 1.37,-6.17 3.04,-7.97 1.67,-1.79 3.81,-2.69 6.42,-2.69 2.73,0 4.92,0.89 6.59,2.65 1.68,1.78 2.64,4.44 2.89,8.01l-18.94 0zm-114.35 -5.31c-0.97,2.62 -1.45,5.52 -1.45,8.68 0,3.14 0.48,6 1.43,8.6 0.96,2.58 2.37,4.83 4.21,6.73 1.86,1.9 4.05,3.36 6.57,4.38 2.52,1.02 5.37,1.53 8.55,1.53 3.18,0 6.05,-0.51 8.6,-1.51 2.55,-1.01 4.76,-2.45 6.59,-4.34 1.84,-1.88 3.24,-4.14 4.22,-6.77 0.96,-2.62 1.44,-5.48 1.44,-8.6 0,-3.14 -0.48,-6.01 -1.43,-8.61 -0.95,-2.62 -2.35,-4.86 -4.19,-6.74 -1.85,-1.9 -4.05,-3.36 -6.63,-4.38 -2.57,-1.02 -5.45,-1.53 -8.6,-1.53 -3.13,0 -5.98,0.51 -8.55,1.52 -2.57,1 -4.77,2.44 -6.58,4.29 -1.82,1.87 -3.2,4.12 -4.18,6.75zm9.05 8.7c0,-2.75 0.42,-5.16 1.27,-7.23 0.83,-2.06 2.04,-3.63 3.59,-4.69 1.55,-1.06 3.34,-1.58 5.4,-1.58 3.15,0 5.66,1.19 7.55,3.55 1.86,2.38 2.8,5.69 2.8,9.95 0,4.2 -0.94,7.51 -2.8,9.88 -1.89,2.39 -4.4,3.58 -7.55,3.58 -2.1,0 -3.92,-0.53 -5.47,-1.62 -1.54,-1.08 -2.71,-2.65 -3.55,-4.69 -0.82,-2.03 -1.24,-4.43 -1.24,-7.15zm-54.63 -15.71c-3.19,3.65 -4.78,8.74 -4.78,15.27 0,3.09 0.4,5.96 1.2,8.61 0.81,2.65 1.99,4.97 3.54,6.93 1.55,1.97 3.41,3.47 5.54,4.53 2.13,1.06 4.44,1.59 6.94,1.59 1.89,0 3.63,-0.26 5.22,-0.78 1.6,-0.52 3.08,-1.3 4.44,-2.3 1.38,-1 2.76,-2.31 4.16,-3.92l0 1.03c0,1.91 0.47,3.39 1.39,4.42 0.93,1.03 2.12,1.55 3.55,1.55 1.45,0 2.64,-0.49 3.56,-1.49 0.92,-0.99 1.37,-2.49 1.37,-4.48l0 -46.06c0,-1.96 -0.43,-3.45 -1.28,-4.45 -0.86,-1.01 -2.08,-1.52 -3.65,-1.52 -1.58,0 -2.8,0.55 -3.66,1.65 -0.85,1.1 -1.28,2.72 -1.28,4.86l0 15.43c-1.96,-2.16 -3.99,-3.75 -6.05,-4.79 -2.06,-1.03 -4.6,-1.55 -7.62,-1.55 -5.19,0 -9.4,1.83 -12.59,5.47zm7.04 22.86c-0.87,-1.99 -1.32,-4.4 -1.32,-7.24 0,-2.66 0.42,-5.01 1.24,-7.05 0.84,-2.02 2,-3.58 3.5,-4.66 1.51,-1.08 3.22,-1.62 5.12,-1.62 1.85,0 3.53,0.52 5.07,1.58 1.54,1.06 2.77,2.59 3.67,4.6 0.91,2 1.36,4.39 1.36,7.15 0,2.97 -0.45,5.43 -1.36,7.41 -0.9,1.98 -2.11,3.44 -3.63,4.39 -1.51,0.96 -3.19,1.44 -5.02,1.44 -1.81,0 -3.48,-0.51 -5.01,-1.52 -1.54,-1 -2.74,-2.49 -3.62,-4.48zm-206.23 -6.12c0.01,-1.71 0.02,-3.79 0.02,-6.25 0,-3.88 -0.55,-6.99 -1.63,-9.34 -1.09,-2.35 -2.94,-4.06 -5.57,-5.14 -2.62,-1.09 -6.24,-1.64 -10.83,-1.64 -4.11,0 -7.55,0.57 -10.3,1.69 -2.76,1.12 -4.78,2.55 -6.09,4.28 -1.29,1.74 -1.95,3.53 -1.95,5.37 0,1.18 0.43,2.14 1.28,2.89 0.85,0.76 1.87,1.13 3.05,1.13 1.29,0 2.14,-0.23 2.55,-0.7 0.39,-0.48 1.07,-1.45 2.02,-2.93 0.95,-1.49 2.1,-2.6 3.45,-3.33 1.33,-0.74 3.33,-1.11 5.98,-1.11 3.1,0 5.12,0.64 6.11,1.93 0.98,1.29 1.53,3.31 1.66,6.07 -2.19,0.64 -4.23,1.17 -6.1,1.62 -1.87,0.45 -4.12,0.94 -6.75,1.47 -2.63,0.54 -4.27,0.88 -4.93,1.04 -3.17,0.69 -5.66,2.03 -7.48,4.06 -1.82,2.01 -2.72,4.44 -2.72,7.3 0,2.12 0.55,4.07 1.65,5.89 1.1,1.82 2.66,3.24 4.69,4.3 2.02,1.06 4.39,1.59 7.06,1.59 2.93,0 5.58,-0.48 7.95,-1.46 2.35,-0.98 4.79,-2.44 7.33,-4.4 1.17,1.9 2.28,3.35 3.33,4.36 1.04,1.01 2.1,1.5 3.17,1.5 1.28,0 2.42,-0.44 3.44,-1.32 1,-0.87 1.5,-1.85 1.5,-2.92 0,-0.62 -0.31,-1.99 -0.97,-4.1 -0.65,-2.14 -0.98,-4.18 -0.98,-6.15 0.03,-2.08 0.04,-3.99 0.06,-5.7zm-16.92 0.96c2.92,-0.61 5.15,-1.21 6.67,-1.77l0 1.49c0,3.63 -0.47,6.24 -1.41,7.82 -0.82,1.44 -2.1,2.6 -3.85,3.52 -1.74,0.9 -3.65,1.35 -5.71,1.35 -1.95,0 -3.51,-0.56 -4.7,-1.67 -1.2,-1.11 -1.81,-2.45 -1.81,-4.03 0,-1.55 0.51,-2.73 1.53,-3.6 1.02,-0.85 2.09,-1.42 3.22,-1.72 1.12,-0.29 3.14,-0.76 6.06,-1.39zm802.44 5.59c0,2.88 -0.7,5.35 -2.1,7.4 -1.4,2.05 -3.48,3.6 -6.22,4.66 -2.74,1.06 -6.08,1.58 -10.01,1.58 -3.75,0 -6.96,-0.57 -9.64,-1.72 -2.67,-1.14 -4.65,-2.58 -5.93,-4.3 -1.27,-1.71 -1.9,-3.44 -1.9,-5.17 0,-1.15 0.4,-2.13 1.22,-2.94 0.81,-0.83 1.84,-1.23 3.1,-1.23 1.1,0 1.93,0.28 2.52,0.81 0.59,0.54 1.15,1.28 1.68,2.26 1.08,1.86 2.36,3.25 3.84,4.17 1.49,0.92 3.53,1.38 6.1,1.38 2.09,0 3.8,-0.47 5.14,-1.4 1.34,-0.92 2.01,-2 2.01,-3.2 0,-1.84 -0.69,-3.17 -2.08,-4.02 -1.39,-0.84 -3.68,-1.65 -6.87,-2.42 -3.59,-0.88 -6.52,-1.83 -8.78,-2.8 -2.24,-0.99 -4.05,-2.29 -5.4,-3.9 -1.35,-1.6 -2.03,-3.59 -2.03,-5.93 0,-2.1 0.63,-4.07 1.87,-5.94 1.25,-1.87 3.1,-3.35 5.54,-4.46 2.43,-1.11 5.37,-1.67 8.82,-1.67 2.7,0 5.13,0.28 7.27,0.84 2.16,0.56 3.96,1.32 5.4,2.26 1.45,0.95 2.54,2 3.29,3.15 0.76,1.14 1.13,2.26 1.13,3.37 0,1.18 -0.4,2.18 -1.21,2.94 -0.8,0.77 -1.95,1.15 -3.42,1.15 -1.07,0 -1.99,-0.31 -2.75,-0.92 -0.74,-0.61 -1.6,-1.53 -2.58,-2.76 -0.78,-1.01 -1.71,-1.84 -2.79,-2.45 -1.06,-0.62 -2.52,-0.92 -4.36,-0.92 -1.88,0 -3.45,0.41 -4.7,1.21 -1.24,0.81 -1.87,1.81 -1.87,3.01 0,1.1 0.46,2 1.37,2.69 0.93,0.71 2.16,1.3 3.71,1.75 1.56,0.46 3.7,1.02 6.43,1.69 3.24,0.78 5.89,1.74 7.94,2.83 2.05,1.1 3.61,2.4 4.67,3.9 1.06,1.49 1.59,3.18 1.59,5.1zm-717.64 -34.64l-25.6 0 0 13.8 23.58 0c1.74,0 3.03,0.39 3.88,1.16 0.86,0.77 1.28,1.8 1.28,3.07 0,1.27 -0.42,2.31 -1.26,3.11 -0.85,0.79 -2.14,1.2 -3.9,1.2l-23.58 0 0 15.99 26.48 0c1.79,0 3.13,0.42 4.03,1.24 0.92,0.82 1.38,1.93 1.38,3.3 0,1.33 -0.46,2.41 -1.38,3.23 -0.9,0.82 -2.24,1.24 -4.03,1.24l-30.88 0c-2.47,0 -4.25,-0.55 -5.33,-1.64 -1.09,-1.1 -1.64,-2.88 -1.64,-5.32l0 -42.19c0,-1.64 0.25,-2.97 0.74,-4 0.48,-1.03 1.24,-1.79 2.27,-2.26 1.03,-0.47 2.35,-0.71 3.96,-0.71l30 0c1.82,0 3.16,0.41 4.04,1.21 0.87,0.8 1.32,1.86 1.32,3.16 0,1.33 -0.45,2.4 -1.32,3.21 -0.88,0.8 -2.22,1.2 -4.04,1.2zm48.23 34.64c0,2.88 -0.7,5.35 -2.1,7.4 -1.4,2.05 -3.48,3.6 -6.22,4.66 -2.74,1.06 -6.07,1.58 -10.01,1.58 -3.75,0 -6.96,-0.57 -9.64,-1.72 -2.67,-1.14 -4.65,-2.58 -5.93,-4.3 -1.27,-1.71 -1.9,-3.44 -1.9,-5.17 0,-1.15 0.4,-2.13 1.22,-2.94 0.81,-0.83 1.84,-1.23 3.1,-1.23 1.1,0 1.93,0.28 2.52,0.81 0.59,0.54 1.15,1.28 1.69,2.26 1.07,1.86 2.35,3.25 3.83,4.17 1.5,0.92 3.53,1.38 6.11,1.38 2.09,0 3.8,-0.47 5.13,-1.4 1.35,-0.92 2.01,-2 2.01,-3.2 0,-1.84 -0.69,-3.17 -2.08,-4.02 -1.39,-0.84 -3.68,-1.65 -6.86,-2.42 -3.6,-0.88 -6.52,-1.83 -8.78,-2.8 -2.25,-0.99 -4.05,-2.29 -5.41,-3.9 -1.35,-1.6 -2.03,-3.59 -2.03,-5.93 0,-2.1 0.63,-4.07 1.87,-5.94 1.25,-1.87 3.1,-3.35 5.54,-4.46 2.43,-1.11 5.37,-1.67 8.82,-1.67 2.7,0 5.13,0.28 7.27,0.84 2.16,0.56 3.96,1.32 5.4,2.26 1.45,0.95 2.54,2 3.29,3.15 0.76,1.14 1.14,2.26 1.14,3.37 0,1.18 -0.41,2.18 -1.22,2.94 -0.8,0.77 -1.94,1.15 -3.42,1.15 -1.07,0 -1.99,-0.31 -2.74,-0.92 -0.75,-0.61 -1.61,-1.53 -2.59,-2.76 -0.78,-1.01 -1.71,-1.84 -2.78,-2.45 -1.07,-0.62 -2.53,-0.92 -4.36,-0.92 -1.89,0 -3.46,0.41 -4.71,1.21 -1.24,0.81 -1.87,1.81 -1.87,3.01 0,1.1 0.46,2 1.37,2.69 0.93,0.71 2.16,1.3 3.71,1.75 1.56,0.46 3.7,1.02 6.43,1.69 3.24,0.78 5.89,1.74 7.94,2.83 2.05,1.1 3.61,2.4 4.67,3.9 1.06,1.49 1.59,3.18 1.59,5.1zm7.83 -27.9l1.14 0 0 -6.28c0,-1.69 0.04,-3.01 0.14,-3.96 0.09,-0.97 0.33,-1.79 0.74,-2.47 0.41,-0.72 0.99,-1.3 1.77,-1.75 0.75,-0.44 1.6,-0.67 2.55,-0.67 1.32,0 2.51,0.5 3.58,1.49 0.72,0.67 1.17,1.48 1.36,2.45 0.2,0.95 0.29,2.31 0.29,4.07l0 7.12 3.83 0c1.47,0 2.61,0.36 3.38,1.05 0.78,0.7 1.18,1.6 1.18,2.69 0,1.41 -0.57,2.39 -1.68,2.95 -1.11,0.56 -2.69,0.83 -4.76,0.83l-1.95 0 0 19.21c0,1.63 0.05,2.9 0.17,3.77 0.12,0.88 0.42,1.6 0.91,2.15 0.51,0.55 1.32,0.82 2.45,0.82 0.6,0 1.43,-0.1 2.48,-0.33 1.04,-0.21 1.87,-0.32 2.44,-0.32 0.85,0 1.61,0.33 2.29,1.01 0.68,0.68 1,1.52 1,2.51 0,1.69 -0.91,2.97 -2.74,3.86 -1.84,0.9 -4.48,1.34 -7.93,1.34 -3.27,0 -5.73,-0.55 -7.41,-1.64 -1.68,-1.1 -2.78,-2.61 -3.3,-4.56 -0.52,-1.94 -0.79,-4.52 -0.79,-7.76l0 -20.06 -1.37 0c-1.51,0 -2.66,-0.35 -3.45,-1.07 -0.79,-0.7 -1.18,-1.61 -1.18,-2.71 0,-1.09 0.42,-1.99 1.24,-2.69 0.83,-0.69 2.03,-1.05 3.62,-1.05zm54.27 35.65l0 -1.35c-1.25,1.59 -2.56,2.92 -3.94,3.99 -1.37,1.07 -2.88,1.87 -4.51,2.39 -1.63,0.52 -3.49,0.79 -5.58,0.79 -2.53,0 -4.79,-0.53 -6.79,-1.57 -2,-1.05 -3.55,-2.49 -4.65,-4.33 -1.29,-2.22 -1.95,-5.41 -1.95,-9.57l0 -20.69c0,-2.11 0.47,-3.66 1.41,-4.69 0.95,-1.04 2.2,-1.56 3.75,-1.56 1.57,0 2.85,0.52 3.82,1.57 0.96,1.04 1.45,2.6 1.45,4.68l0 16.72c0,2.41 0.21,4.45 0.61,6.1 0.4,1.64 1.14,2.93 2.2,3.86 1.05,0.93 2.49,1.4 4.31,1.4 1.76,0 3.42,-0.52 4.97,-1.57 1.56,-1.04 2.69,-2.41 3.41,-4.1 0.59,-1.47 0.88,-4.72 0.88,-9.72l0 -12.69c0,-2.08 0.48,-3.64 1.45,-4.68 0.98,-1.05 2.24,-1.57 3.8,-1.57 1.55,0 2.81,0.52 3.75,1.56 0.95,1.03 1.42,2.58 1.42,4.69l0 30.26c0,1.99 -0.45,3.48 -1.36,4.48 -0.91,1 -2.07,1.49 -3.51,1.49 -1.42,0 -2.61,-0.52 -3.54,-1.55 -0.93,-1.03 -1.4,-2.48 -1.4,-4.34zm146.97 -7.75c0,2.88 -0.7,5.35 -2.1,7.4 -1.4,2.05 -3.48,3.6 -6.22,4.66 -2.74,1.06 -6.07,1.58 -10.01,1.58 -3.74,0 -6.96,-0.57 -9.64,-1.72 -2.67,-1.14 -4.65,-2.58 -5.92,-4.3 -1.27,-1.71 -1.91,-3.44 -1.91,-5.17 0,-1.15 0.4,-2.13 1.23,-2.94 0.8,-0.83 1.84,-1.23 3.09,-1.23 1.1,0 1.93,0.28 2.52,0.81 0.59,0.54 1.15,1.28 1.69,2.26 1.07,1.86 2.35,3.25 3.84,4.17 1.49,0.92 3.52,1.38 6.1,1.38 2.09,0 3.8,-0.47 5.13,-1.4 1.35,-0.92 2.02,-2 2.02,-3.2 0,-1.84 -0.7,-3.17 -2.08,-4.02 -1.4,-0.84 -3.69,-1.65 -6.87,-2.42 -3.6,-0.88 -6.52,-1.83 -8.78,-2.8 -2.25,-0.99 -4.05,-2.29 -5.41,-3.9 -1.35,-1.6 -2.02,-3.59 -2.02,-5.93 0,-2.1 0.62,-4.07 1.86,-5.94 1.26,-1.87 3.1,-3.35 5.54,-4.46 2.43,-1.11 5.37,-1.67 8.82,-1.67 2.7,0 5.13,0.28 7.27,0.84 2.16,0.56 3.96,1.32 5.4,2.26 1.45,0.95 2.55,2 3.29,3.15 0.76,1.14 1.14,2.26 1.14,3.37 0,1.18 -0.41,2.18 -1.22,2.94 -0.79,0.77 -1.94,1.15 -3.42,1.15 -1.07,0 -1.98,-0.31 -2.74,-0.92 -0.75,-0.61 -1.61,-1.53 -2.59,-2.76 -0.78,-1.01 -1.71,-1.84 -2.78,-2.45 -1.07,-0.62 -2.52,-0.92 -4.36,-0.92 -1.88,0 -3.45,0.41 -4.71,1.21 -1.24,0.81 -1.86,1.81 -1.86,3.01 0,1.1 0.45,2 1.37,2.69 0.92,0.71 2.15,1.3 3.71,1.75 1.55,0.46 3.69,1.02 6.42,1.69 3.24,0.78 5.9,1.74 7.94,2.83 2.06,1.1 3.61,2.4 4.67,3.9 1.06,1.49 1.59,3.18 1.59,5.1zm216.06 0c0,2.88 -0.7,5.35 -2.1,7.4 -1.4,2.05 -3.47,3.6 -6.22,4.66 -2.74,1.06 -6.07,1.58 -10,1.58 -3.75,0 -6.97,-0.57 -9.64,-1.72 -2.68,-1.14 -4.66,-2.58 -5.93,-4.3 -1.27,-1.71 -1.91,-3.44 -1.91,-5.17 0,-1.15 0.4,-2.13 1.23,-2.94 0.81,-0.83 1.84,-1.23 3.09,-1.23 1.1,0 1.93,0.28 2.52,0.81 0.59,0.54 1.15,1.28 1.69,2.26 1.07,1.86 2.35,3.25 3.84,4.17 1.49,0.92 3.52,1.38 6.1,1.38 2.09,0 3.8,-0.47 5.13,-1.4 1.35,-0.92 2.02,-2 2.02,-3.2 0,-1.84 -0.7,-3.17 -2.08,-4.02 -1.4,-0.84 -3.69,-1.65 -6.87,-2.42 -3.6,-0.88 -6.52,-1.83 -8.78,-2.8 -2.25,-0.99 -4.05,-2.29 -5.41,-3.9 -1.34,-1.6 -2.02,-3.59 -2.02,-5.93 0,-2.1 0.62,-4.07 1.87,-5.94 1.25,-1.87 3.09,-3.35 5.53,-4.46 2.43,-1.11 5.37,-1.67 8.82,-1.67 2.7,0 5.13,0.28 7.27,0.84 2.16,0.56 3.96,1.32 5.4,2.26 1.45,0.95 2.55,2 3.29,3.15 0.76,1.14 1.14,2.26 1.14,3.37 0,1.18 -0.4,2.18 -1.22,2.94 -0.79,0.77 -1.94,1.15 -3.42,1.15 -1.07,0 -1.98,-0.31 -2.74,-0.92 -0.75,-0.61 -1.61,-1.53 -2.59,-2.76 -0.78,-1.01 -1.71,-1.84 -2.78,-2.45 -1.07,-0.62 -2.52,-0.92 -4.36,-0.92 -1.88,0 -3.45,0.41 -4.7,1.21 -1.25,0.81 -1.87,1.81 -1.87,3.01 0,1.1 0.45,2 1.37,2.69 0.92,0.71 2.15,1.3 3.71,1.75 1.55,0.46 3.69,1.02 6.43,1.69 3.23,0.78 5.89,1.74 7.94,2.83 2.05,1.1 3.6,2.4 4.66,3.9 1.06,1.49 1.59,3.18 1.59,5.1zm83.34 7.75l0 -1.35c-1.25,1.59 -2.56,2.92 -3.94,3.99 -1.37,1.07 -2.87,1.87 -4.51,2.39 -1.63,0.52 -3.49,0.79 -5.57,0.79 -2.54,0 -4.8,-0.53 -6.8,-1.57 -2,-1.05 -3.55,-2.49 -4.65,-4.33 -1.29,-2.22 -1.94,-5.41 -1.94,-9.57l0 -20.69c0,-2.11 0.47,-3.66 1.41,-4.69 0.94,-1.04 2.19,-1.56 3.75,-1.56 1.56,0 2.84,0.52 3.81,1.57 0.97,1.04 1.45,2.6 1.45,4.68l0 16.72c0,2.41 0.21,4.45 0.61,6.1 0.41,1.64 1.14,2.93 2.2,3.86 1.06,0.93 2.49,1.4 4.31,1.4 1.76,0 3.42,-0.52 4.98,-1.57 1.55,-1.04 2.69,-2.41 3.41,-4.1 0.58,-1.47 0.87,-4.72 0.87,-9.72l0 -12.69c0,-2.08 0.49,-3.64 1.45,-4.68 0.98,-1.05 2.25,-1.57 3.8,-1.57 1.56,0 2.81,0.52 3.75,1.56 0.96,1.03 1.42,2.58 1.42,4.69l0 30.26c0,1.99 -0.45,3.48 -1.35,4.48 -0.92,1 -2.08,1.49 -3.52,1.49 -1.42,0 -2.61,-0.52 -3.54,-1.55 -0.93,-1.03 -1.4,-2.48 -1.4,-4.34zm30.66 -30.66l0 30.2c0,2.1 -0.49,3.68 -1.49,4.75 -0.99,1.07 -2.24,1.6 -3.77,1.6 -1.53,0 -2.77,-0.55 -3.72,-1.64 -0.96,-1.1 -1.44,-2.67 -1.44,-4.71l0 -29.88c0,-2.08 0.48,-3.64 1.44,-4.68 0.95,-1.05 2.19,-1.57 3.72,-1.57 1.53,0 2.78,0.52 3.77,1.57 1,1.04 1.49,2.51 1.49,4.36zm-5.16 -10.79c-1.45,0 -2.69,-0.44 -3.72,-1.33 -1.03,-0.89 -1.54,-2.16 -1.54,-3.79 0,-1.46 0.52,-2.68 1.58,-3.63 1.06,-0.95 2.28,-1.44 3.68,-1.44 1.36,0 2.55,0.43 3.59,1.3 1.05,0.87 1.57,2.13 1.57,3.77 0,1.61 -0.51,2.86 -1.52,3.76 -1.02,0.9 -2.23,1.36 -3.64,1.36zm48 33.7c0,2.88 -0.71,5.35 -2.11,7.4 -1.39,2.05 -3.47,3.6 -6.21,4.66 -2.75,1.06 -6.08,1.58 -10.01,1.58 -3.75,0 -6.96,-0.57 -9.64,-1.72 -2.68,-1.14 -4.65,-2.58 -5.93,-4.3 -1.27,-1.71 -1.91,-3.44 -1.91,-5.17 0,-1.15 0.4,-2.13 1.23,-2.94 0.81,-0.83 1.84,-1.23 3.1,-1.23 1.09,0 1.93,0.28 2.52,0.81 0.58,0.54 1.15,1.28 1.68,2.26 1.07,1.86 2.35,3.25 3.84,4.17 1.49,0.92 3.53,1.38 6.1,1.38 2.09,0 3.8,-0.47 5.14,-1.4 1.34,-0.92 2.01,-2 2.01,-3.2 0,-1.84 -0.69,-3.17 -2.08,-4.02 -1.4,-0.84 -3.68,-1.65 -6.87,-2.42 -3.59,-0.88 -6.52,-1.83 -8.78,-2.8 -2.24,-0.99 -4.05,-2.29 -5.41,-3.9 -1.34,-1.6 -2.02,-3.59 -2.02,-5.93 0,-2.1 0.62,-4.07 1.87,-5.94 1.25,-1.87 3.09,-3.35 5.53,-4.46 2.43,-1.11 5.37,-1.67 8.82,-1.67 2.71,0 5.14,0.28 7.28,0.84 2.16,0.56 3.96,1.32 5.39,2.26 1.45,0.95 2.55,2 3.3,3.15 0.75,1.14 1.13,2.26 1.13,3.37 0,1.18 -0.4,2.18 -1.21,2.94 -0.8,0.77 -1.95,1.15 -3.43,1.15 -1.07,0 -1.98,-0.31 -2.74,-0.92 -0.74,-0.61 -1.61,-1.53 -2.59,-2.76 -0.78,-1.01 -1.71,-1.84 -2.78,-2.45 -1.07,-0.62 -2.52,-0.92 -4.36,-0.92 -1.88,0 -3.45,0.41 -4.7,1.21 -1.24,0.81 -1.87,1.81 -1.87,3.01 0,1.1 0.46,2 1.37,2.69 0.93,0.71 2.16,1.3 3.71,1.75 1.55,0.46 3.7,1.02 6.43,1.69 3.24,0.78 5.89,1.74 7.94,2.83 2.05,1.1 3.61,2.4 4.66,3.9 1.06,1.49 1.6,3.18 1.6,5.1zm49.05 -105.9c-0.95,2.61 -1.42,5.49 -1.42,8.63 0,3.12 0.47,5.96 1.41,8.55 0.93,2.57 2.32,4.8 4.13,6.69 1.82,1.89 3.97,3.35 6.45,4.36 2.47,1.01 5.27,1.52 8.39,1.52 3.13,0 5.95,-0.51 8.45,-1.51 2.5,-1 4.67,-2.43 6.46,-4.31 1.81,-1.87 3.18,-4.12 4.15,-6.73 0.95,-2.61 1.42,-5.45 1.42,-8.56 0,-3.11 -0.47,-5.97 -1.41,-8.55 -0.21,-0.59 -0.45,-1.16 -0.7,-1.71 -0.88,-1.89 -2.02,-3.55 -3.42,-5 -1.81,-1.88 -3.97,-3.34 -6.5,-4.35 -2.53,-1.01 -5.35,-1.52 -8.45,-1.52 -3.07,0 -5.87,0.51 -8.39,1.51 -2.53,1 -4.68,2.43 -6.47,4.27 -1.4,1.46 -2.54,3.16 -3.43,5.09 -0.24,0.52 -0.47,1.06 -0.67,1.62zm8.89 8.64c0,-2.72 0.41,-5.12 1.24,-7.18 0.48,-1.2 1.08,-2.23 1.8,-3.08 0.52,-0.62 1.09,-1.14 1.73,-1.58 1.52,-1.05 3.28,-1.57 5.3,-1.57 2.93,0 5.29,1.05 7.09,3.15 0.11,0.12 0.22,0.25 0.32,0.38 1.83,2.36 2.76,5.65 2.76,9.88 0,4.19 -0.93,7.47 -2.76,9.84 -1.85,2.37 -4.31,3.55 -7.41,3.55 -2.06,0 -3.85,-0.53 -5.37,-1.61 -1.51,-1.07 -2.66,-2.63 -3.48,-4.66 -0.81,-2.02 -1.22,-4.4 -1.22,-7.12zm-83.91 2.13c-1.79,2 -2.67,4.42 -2.67,7.27 0,2.1 0.54,4.05 1.61,5.85 1.08,1.81 2.62,3.22 4.61,4.27 1.99,1.06 4.31,1.59 6.94,1.59 2.87,0 5.47,-0.48 7.8,-1.45 2.3,-0.98 4.7,-2.43 7.19,-4.38 1.16,1.89 2.25,3.34 3.27,4.34 1.03,1 2.07,1.49 3.12,1.49 1.26,0 2.37,-0.44 3.37,-1.31 0.99,-0.87 1.48,-1.85 1.48,-2.91 0,-0.61 -0.31,-1.98 -0.95,-4.08 -0.64,-2.12 -0.96,-4.16 -0.96,-6.11 0.02,-2.07 0.04,-3.97 0.05,-5.67 0.01,-1.7 0.02,-3.77 0.02,-6.21 0,-1.87 -0.12,-3.57 -0.38,-5.08 -0.26,-1.6 -0.67,-3.01 -1.22,-4.21 -1.06,-2.33 -2.88,-4.03 -5.46,-5.11 -2.58,-1.08 -6.13,-1.63 -10.64,-1.63 -4.04,0 -7.41,0.56 -10.12,1.68 -2.7,1.12 -4.69,2.53 -5.97,4.26 -1.2,1.62 -1.83,3.29 -1.91,5.01 0,0.11 0,0.22 0,0.33 0,1.17 0.42,2.13 1.25,2.87 0.84,0.75 1.84,1.13 2.99,1.13 1.27,0 2.11,-0.24 2.5,-0.7 0.39,-0.48 1.05,-1.45 1.99,-2.91 0.16,-0.25 0.32,-0.49 0.49,-0.72 0.84,-1.13 1.8,-1.99 2.9,-2.59 1.31,-0.74 3.27,-1.11 5.87,-1.11 3.04,0 5.03,0.64 6,1.92 0.37,0.49 0.67,1.08 0.92,1.78 0.4,1.13 0.63,2.55 0.71,4.25 -2.15,0.64 -4.15,1.17 -5.99,1.61 -1.83,0.45 -4.05,0.94 -6.63,1.47 -2.58,0.53 -4.19,0.87 -4.83,1.02 -3.12,0.69 -5.57,2.03 -7.35,4.04zm18.25 -0.14c2.87,-0.61 5.05,-1.21 6.55,-1.76l0 1.48c0,3.6 -0.46,6.2 -1.38,7.78 -0.81,1.42 -2.07,2.58 -3.79,3.49 -1.7,0.89 -3.58,1.35 -5.6,1.35 -1.91,0 -3.45,-0.56 -4.62,-1.66 -1.18,-1.11 -1.77,-2.44 -1.77,-4.02 0,-1.53 0.5,-2.71 1.5,-3.57 1,-0.84 2.05,-1.41 3.16,-1.71 1.1,-0.29 3.09,-0.76 5.95,-1.38zm-67.02 -12.25l0 39.88c0,2.26 0.31,3.97 0.94,5.15 0.63,1.18 1.91,1.77 3.83,1.77 3.29,0 4.93,-2.29 4.93,-6.86l0 -15.61c1.81,2.31 3.71,4.07 5.69,5.25 1.99,1.19 4.45,1.79 7.38,1.79 2.43,0 4.7,-0.49 6.82,-1.47 2.12,-0.97 3.95,-2.36 5.5,-4.18 1.56,-1.82 2.79,-4.06 3.67,-6.74 0.89,-2.68 1.34,-5.61 1.34,-8.81 0,-3.85 -0.61,-7.24 -1.83,-10.17 -0.15,-0.37 -0.31,-0.73 -0.48,-1.09 -1.54,-3.17 -3.65,-5.58 -6.3,-7.23 -2.66,-1.65 -5.55,-2.47 -8.72,-2.47 -2.63,0 -4.98,0.57 -7.06,1.7 -2.07,1.13 -4.09,2.91 -6.01,5.33l0 -1.26c0,-1.89 -0.46,-3.33 -1.37,-4.34 -0.92,-1 -2.11,-1.51 -3.56,-1.51 -1.47,0 -2.64,0.5 -3.49,1.47 -0.86,0.97 -1.28,2.46 -1.28,4.43l0 4.97zm10.19 10.26c0,-4.37 0.97,-7.7 2.91,-9.96 0.09,-0.1 0.18,-0.2 0.27,-0.3 1.89,-2.05 4.18,-3.07 6.88,-3.07 1.77,0 3.39,0.52 4.86,1.57 0.59,0.42 1.13,0.92 1.62,1.5 0.72,0.85 1.32,1.86 1.81,3.03 0.83,1.96 1.24,4.31 1.24,7.05 0,2.83 -0.43,5.25 -1.31,7.26 -0.88,2 -2.05,3.49 -3.5,4.5 -1.45,1 -3.02,1.5 -4.72,1.5 -2.86,0 -5.24,-1.14 -7.18,-3.44 -1.92,-2.28 -2.88,-5.51 -2.88,-9.64zm-120.93 -25.95l-6.1 15.69 -7.98 20.52c-0.58,1.46 -0.99,2.58 -1.25,3.39 -0.24,0.81 -0.37,1.6 -0.37,2.37 0,1.31 0.54,2.49 1.62,3.53 1.07,1.04 2.32,1.56 3.72,1.56 1.65,0 2.84,-0.49 3.56,-1.47 0.73,-0.97 1.6,-2.86 2.63,-5.65l2.63 -7.14 22.4 0 2.62 7c0.36,0.86 0.77,1.86 1.27,2.99 0.49,1.11 0.94,1.96 1.36,2.5 0.44,0.55 0.97,0.98 1.58,1.29 0.63,0.32 1.39,0.48 2.26,0.48 1.5,0 2.8,-0.53 3.86,-1.61 1.06,-1.08 1.59,-2.27 1.59,-3.56 0,-1.24 -0.57,-3.23 -1.69,-5.97l-8.09 -20.23 -6.3 -15.76c-0.67,-1.8 -1.23,-3.24 -1.67,-4.32 -0.44,-1.08 -0.98,-2.09 -1.62,-3.02 -0.64,-0.94 -1.47,-1.7 -2.51,-2.3 -1.04,-0.6 -2.34,-0.9 -3.9,-0.9 -1.53,0 -2.81,0.3 -3.85,0.9 -1.04,0.6 -1.87,1.38 -2.51,2.34 -0.64,0.96 -1.25,2.16 -1.81,3.64 -0.56,1.45 -1.04,2.7 -1.45,3.73zm1.4 24.31l3.06 -8.62 5.1 -14.37 5.18 14.37 3.11 8.62 -16.45 0zm-73.87 -13.75c-1.35,1.49 -2.45,3.19 -3.3,5.13 -0.23,0.52 -0.44,1.06 -0.63,1.63 -0.9,2.62 -1.35,5.48 -1.35,8.54 0,6.52 1.82,11.68 5.48,15.49 3.65,3.8 8.77,5.71 15.36,5.71 2.88,0 5.43,-0.38 7.65,-1.14 2.22,-0.76 4.05,-1.72 5.51,-2.87 1.48,-1.15 2.57,-2.36 3.3,-3.6 0.72,-1.26 1.09,-2.35 1.09,-3.29 0,-1.06 -0.34,-1.89 -0.98,-2.46 -0.65,-0.59 -1.51,-0.89 -2.56,-0.89 -0.98,0 -1.72,0.23 -2.25,0.69 -1.28,1.22 -2.32,2.18 -3.13,2.9 -0.79,0.71 -1.66,1.38 -2.62,2 -0.95,0.62 -1.93,1.08 -2.96,1.36 -1.01,0.3 -2.12,0.44 -3.36,0.44 -1.82,0 -3.5,-0.45 -5.01,-1.37 -1.51,-0.91 -2.73,-2.27 -3.64,-4.07 -0.91,-1.81 -1.39,-3.88 -1.41,-6.25l20.07 0c2.68,0 4.76,-0.39 6.23,-1.15 1.48,-0.78 2.22,-2.48 2.22,-5.09 0,-2.23 -0.45,-4.42 -1.34,-6.58 -0.23,-0.58 -0.5,-1.15 -0.8,-1.72 -1.44,-2.73 -3.58,-4.94 -6.45,-6.65 -2.86,-1.72 -6.3,-2.58 -10.31,-2.58 -3.08,0 -5.89,0.51 -8.42,1.51 -2.52,1 -4.65,2.44 -6.39,4.31zm5.19 12.03c0.28,-2.88 1.01,-5.18 2.18,-6.9 0.25,-0.37 0.52,-0.71 0.8,-1.02 1.65,-1.78 3.74,-2.68 6.3,-2.68 2.68,0 4.84,0.89 6.48,2.64 0.3,0.32 0.58,0.67 0.83,1.06 1.13,1.71 1.81,4 2,6.9l-18.59 0zm-54.34 -12.25c-1.31,1.53 -2.36,3.31 -3.12,5.35 -1.05,2.8 -1.57,6.08 -1.57,9.83 0,3.07 0.4,5.93 1.18,8.56 0.79,2.64 1.95,4.94 3.47,6.89 1.53,1.96 3.35,3.45 5.44,4.5 2.09,1.06 4.36,1.59 6.81,1.59 1.86,0 3.57,-0.26 5.13,-0.78 1.57,-0.52 3.03,-1.28 4.37,-2.29 1.34,-0.99 2.7,-2.29 4.07,-3.89l0 1.02c0,1.9 0.47,3.37 1.38,4.39 0.91,1.03 2.07,1.55 3.47,1.55 1.43,0 2.59,-0.49 3.5,-1.48 0.9,-0.99 1.35,-2.48 1.35,-4.46l0 -25.43 0 -20.36c0,-1.95 -0.42,-3.43 -1.26,-4.43 -0.84,-1 -2.04,-1.51 -3.59,-1.51 -1.55,0 -2.74,0.55 -3.59,1.64 -0.83,1.09 -1.26,2.7 -1.26,4.83l0 15.34c-1.92,-2.14 -3.91,-3.73 -5.93,-4.75 -2.03,-1.03 -4.52,-1.55 -7.48,-1.55 -5.11,0 -9.24,1.82 -12.37,5.44zm6.92 22.73c-0.86,-1.98 -1.3,-4.38 -1.3,-7.19 0,-2.65 0.41,-4.99 1.22,-7.02 0.5,-1.23 1.13,-2.29 1.87,-3.17 0.48,-0.56 1,-1.05 1.57,-1.46 1.47,-1.08 3.15,-1.61 5.02,-1.61 1.81,0 3.47,0.52 4.98,1.57 0.61,0.42 1.17,0.92 1.68,1.5 0.75,0.85 1.4,1.87 1.93,3.07 0.88,1.99 1.33,4.36 1.33,7.12 0,2.94 -0.45,5.38 -1.33,7.36 -0.89,1.96 -2.08,3.42 -3.57,4.36 -1.49,0.95 -3.13,1.43 -4.94,1.43 -1.77,0 -3.41,-0.5 -4.91,-1.5 -1.51,-1.01 -2.69,-2.48 -3.55,-4.46zm-65.66 -9.03c-3.12,0.69 -5.57,2.03 -7.35,4.04 -1.78,2 -2.67,4.42 -2.67,7.27 0,2.1 0.54,4.05 1.62,5.85 1.08,1.81 2.61,3.22 4.6,4.27 1.99,1.06 4.31,1.59 6.94,1.59 2.87,0 5.48,-0.48 7.8,-1.45 2.31,-0.98 4.71,-2.43 7.19,-4.38 1.16,1.89 2.25,3.34 3.28,4.34 1.02,1 2.06,1.49 3.11,1.49 1.26,0 2.38,-0.44 3.38,-1.31 0.98,-0.87 1.47,-1.85 1.47,-2.91 0,-0.61 -0.31,-1.98 -0.95,-4.08 -0.64,-2.12 -0.96,-4.16 -0.96,-6.11 0.03,-2.07 0.04,-3.97 0.05,-5.67 0.01,-1.7 0.03,-3.77 0.03,-6.21 0,-1.87 -0.13,-3.57 -0.38,-5.08 -0.27,-1.6 -0.68,-3.01 -1.23,-4.21 -1.06,-2.33 -2.88,-4.03 -5.46,-5.11 -2.58,-1.08 -6.13,-1.63 -10.63,-1.63 -4.04,0 -7.42,0.56 -10.12,1.68 -2.71,1.12 -4.7,2.53 -5.98,4.26 -1.19,1.62 -1.83,3.29 -1.9,5.01 -0.01,0.11 -0.01,0.22 -0.01,0.33 0,1.17 0.42,2.13 1.25,2.87 0.84,0.75 1.84,1.13 2.99,1.13 1.27,0 2.11,-0.24 2.51,-0.7 0.38,-0.48 1.05,-1.45 1.98,-2.91 0.16,-0.25 0.33,-0.49 0.5,-0.72 0.83,-1.13 1.79,-1.99 2.89,-2.59 1.31,-0.74 3.27,-1.11 5.87,-1.11 3.04,0 5.03,0.64 6.01,1.92 0.36,0.49 0.67,1.08 0.91,1.78 0.4,1.13 0.64,2.55 0.72,4.25 -2.16,0.64 -4.16,1.17 -5.99,1.61 -1.84,0.45 -4.06,0.94 -6.64,1.47 -2.57,0.53 -4.19,0.87 -4.83,1.02zm10.9 3.9c2.87,-0.61 5.05,-1.21 6.56,-1.76l0 1.48c0,3.6 -0.47,6.2 -1.39,7.78 -0.81,1.42 -2.07,2.58 -3.78,3.49 -1.71,0.89 -3.58,1.35 -5.61,1.35 -1.91,0 -3.45,-0.56 -4.62,-1.66 -1.18,-1.11 -1.77,-2.44 -1.77,-4.02 0,-1.53 0.5,-2.71 1.5,-3.57 1,-0.84 2.06,-1.41 3.16,-1.71 1.1,-0.29 3.09,-0.76 5.95,-1.38zm-105.45 -11.87c1.83,2.36 2.75,5.65 2.75,9.88 0,4.19 -0.92,7.47 -2.75,9.84 -1.85,2.37 -4.31,3.55 -7.42,3.55 -2.05,0 -3.85,-0.53 -5.36,-1.61 -1.51,-1.07 -2.67,-2.63 -3.49,-4.66 -0.8,-2.02 -1.22,-4.4 -1.22,-7.12 0,-2.72 0.42,-5.12 1.25,-7.18 0.48,-1.2 1.08,-2.23 1.8,-3.08 0.51,-0.62 1.09,-1.14 1.72,-1.58 1.53,-1.05 3.29,-1.57 5.3,-1.57 2.93,0 5.29,1.05 7.1,3.15 0.11,0.12 0.21,0.25 0.32,0.38zm-25.7 -0.38c-0.25,0.52 -0.47,1.06 -0.67,1.62 -0.95,2.61 -1.43,5.49 -1.43,8.63 0,3.12 0.48,5.96 1.41,8.55 0.94,2.57 2.32,4.8 4.13,6.69 1.83,1.89 3.98,3.35 6.45,4.36 2.48,1.01 5.28,1.52 8.39,1.52 3.13,0 5.95,-0.51 8.46,-1.51 2.5,-1 4.66,-2.43 6.46,-4.31 1.81,-1.87 3.18,-4.12 4.14,-6.73 0.95,-2.61 1.43,-5.45 1.43,-8.56 0,-3.11 -0.48,-5.97 -1.41,-8.55 -0.22,-0.59 -0.45,-1.16 -0.71,-1.71 -0.88,-1.89 -2.01,-3.55 -3.41,-5 -1.81,-1.88 -3.98,-3.34 -6.5,-4.35 -2.53,-1.01 -5.35,-1.52 -8.46,-1.52 -3.06,0 -5.86,0.51 -8.39,1.51 -2.52,1 -4.68,2.43 -6.46,4.27 -1.4,1.46 -2.54,3.16 -3.43,5.09zm-67.85 -3.7c3.04,0 5.03,0.64 6.01,1.92 0.36,0.49 0.67,1.08 0.91,1.78 0.4,1.13 0.63,2.55 0.71,4.25 -2.15,0.64 -4.15,1.17 -5.98,1.61 -1.84,0.45 -4.06,0.94 -6.64,1.47 -2.57,0.53 -4.19,0.87 -4.83,1.02 -3.12,0.69 -5.57,2.03 -7.35,4.04 -1.78,2 -2.67,4.42 -2.67,7.27 0,2.1 0.54,4.05 1.62,5.85 1.08,1.81 2.61,3.22 4.6,4.27 1.99,1.06 4.31,1.59 6.94,1.59 2.87,0 5.48,-0.48 7.8,-1.45 2.31,-0.98 4.71,-2.43 7.2,-4.38 1.15,1.89 2.24,3.34 3.27,4.34 1.02,1 2.06,1.49 3.11,1.49 1.26,0 2.38,-0.44 3.38,-1.31 0.98,-0.87 1.47,-1.85 1.47,-2.91 0,-0.61 -0.31,-1.98 -0.95,-4.08 -0.64,-2.12 -0.96,-4.16 -0.96,-6.11 0.03,-2.07 0.04,-3.97 0.05,-5.67 0.01,-1.7 0.03,-3.77 0.03,-6.21 0,-1.87 -0.13,-3.57 -0.38,-5.08 -0.27,-1.6 -0.68,-3.01 -1.23,-4.21 -1.06,-2.33 -2.88,-4.03 -5.46,-5.11 -2.58,-1.08 -6.13,-1.63 -10.63,-1.63 -4.04,0 -7.42,0.56 -10.12,1.68 -2.71,1.12 -4.7,2.53 -5.98,4.26 -1.19,1.62 -1.83,3.29 -1.9,5.01 -0.01,0.11 -0.01,0.22 -0.01,0.33 0,1.17 0.42,2.13 1.26,2.87 0.83,0.75 1.83,1.13 2.98,1.13 1.27,0 2.11,-0.24 2.51,-0.7 0.38,-0.48 1.05,-1.45 1.98,-2.91 0.16,-0.25 0.33,-0.49 0.5,-0.72 0.83,-1.13 1.79,-1.99 2.89,-2.59 1.31,-0.74 3.27,-1.11 5.87,-1.11zm1.08 15.95c2.87,-0.61 5.05,-1.21 6.55,-1.76l0 1.48c0,3.6 -0.46,6.2 -1.38,7.78 -0.81,1.42 -2.07,2.58 -3.78,3.49 -1.71,0.89 -3.58,1.35 -5.61,1.35 -1.91,0 -3.45,-0.56 -4.62,-1.66 -1.18,-1.11 -1.77,-2.44 -1.77,-4.02 0,-1.53 0.5,-2.71 1.5,-3.57 1.01,-0.84 2.06,-1.41 3.16,-1.71 1.1,-0.29 3.09,-0.76 5.95,-1.38zm-108.8 4.86l2.62 7c0.37,0.86 0.78,1.86 1.28,2.99 0.48,1.11 0.93,1.96 1.36,2.5 0.43,0.55 0.96,0.98 1.57,1.29 0.63,0.32 1.39,0.48 2.26,0.48 1.5,0 2.8,-0.53 3.86,-1.61 1.07,-1.08 1.59,-2.27 1.59,-3.56 0,-1.24 -0.56,-3.23 -1.69,-5.97l-8.09 -20.23 -6.3 -15.76c-0.67,-1.8 -1.23,-3.24 -1.67,-4.32 -0.44,-1.08 -0.98,-2.09 -1.62,-3.02 -0.64,-0.94 -1.47,-1.7 -2.51,-2.3 -1.04,-0.6 -2.33,-0.9 -3.9,-0.9 -1.53,0 -2.81,0.3 -3.85,0.9 -1.04,0.6 -1.87,1.38 -2.51,2.34 -0.64,0.96 -1.24,2.16 -1.81,3.64 -0.56,1.45 -1.04,2.7 -1.45,3.73l-6.1 15.69 -7.98 20.52c-0.58,1.46 -0.99,2.58 -1.25,3.39 -0.24,0.81 -0.37,1.6 -0.37,2.37 0,1.31 0.54,2.49 1.62,3.53 1.08,1.04 2.32,1.56 3.72,1.56 1.65,0 2.84,-0.49 3.56,-1.47 0.73,-0.97 1.61,-2.86 2.63,-5.65l2.63 -7.14 22.4 0zm-3 -8.49l-16.46 0 3.06 -8.62 5.1 -14.37 5.18 14.37 3.12 8.62zm-138.64 -13.63c-1.19,1.62 -1.83,3.29 -1.91,5.01 0,0.11 0,0.22 0,0.33 0,1.17 0.42,2.13 1.25,2.87 0.84,0.75 1.84,1.13 2.99,1.13 1.27,0 2.11,-0.24 2.5,-0.7 0.39,-0.48 1.06,-1.45 1.99,-2.91 0.16,-0.25 0.32,-0.49 0.49,-0.72 0.84,-1.13 1.8,-1.99 2.9,-2.59 1.31,-0.74 3.27,-1.11 5.87,-1.11 3.04,0 5.03,0.64 6,1.92 0.37,0.49 0.68,1.08 0.92,1.78 0.4,1.13 0.63,2.55 0.71,4.25 -2.15,0.64 -4.15,1.17 -5.99,1.61 -1.83,0.45 -4.05,0.94 -6.63,1.47 -2.58,0.53 -4.19,0.87 -4.83,1.02 -3.12,0.69 -5.57,2.03 -7.35,4.04 -1.78,2 -2.67,4.42 -2.67,7.27 0,2.1 0.54,4.05 1.62,5.85 1.07,1.81 2.61,3.22 4.6,4.27 1.99,1.06 4.31,1.59 6.94,1.59 2.87,0 5.48,-0.48 7.8,-1.45 2.31,-0.98 4.7,-2.43 7.19,-4.38 1.16,1.89 2.25,3.34 3.27,4.34 1.03,1 2.07,1.49 3.12,1.49 1.26,0 2.37,-0.44 3.37,-1.31 0.99,-0.87 1.48,-1.85 1.48,-2.91 0,-0.61 -0.31,-1.98 -0.95,-4.08 -0.64,-2.12 -0.96,-4.16 -0.96,-6.11 0.02,-2.07 0.04,-3.97 0.05,-5.67 0.01,-1.7 0.03,-3.77 0.03,-6.21 0,-1.87 -0.13,-3.57 -0.39,-5.08 -0.26,-1.6 -0.67,-3.01 -1.22,-4.21 -1.06,-2.33 -2.88,-4.03 -5.46,-5.11 -2.58,-1.08 -6.13,-1.63 -10.64,-1.63 -4.03,0 -7.41,0.56 -10.11,1.68 -2.71,1.12 -4.7,2.53 -5.98,4.26zm17.16 17.26c2.87,-0.61 5.05,-1.21 6.55,-1.76l0 1.48c0,3.6 -0.46,6.2 -1.38,7.78 -0.81,1.42 -2.07,2.58 -3.78,3.49 -1.71,0.89 -3.58,1.35 -5.61,1.35 -1.91,0 -3.45,-0.56 -4.62,-1.66 -1.18,-1.11 -1.77,-2.44 -1.77,-4.02 0,-1.53 0.5,-2.71 1.5,-3.57 1,-0.84 2.06,-1.41 3.16,-1.71 1.1,-0.29 3.09,-0.76 5.95,-1.38zm-92.53 -15.95c3.04,0 5.03,0.64 6,1.92 0.37,0.49 0.67,1.08 0.92,1.78 0.39,1.13 0.63,2.55 0.71,4.25 -2.16,0.64 -4.15,1.17 -5.99,1.61 -1.83,0.45 -4.05,0.94 -6.63,1.47 -2.58,0.53 -4.19,0.87 -4.84,1.02 -3.11,0.69 -5.56,2.03 -7.35,4.04 -1.78,2 -2.66,4.42 -2.66,7.27 0,2.1 0.54,4.05 1.61,5.85 1.08,1.81 2.62,3.22 4.61,4.27 1.98,1.06 4.31,1.59 6.94,1.59 2.87,0 5.47,-0.48 7.8,-1.45 2.3,-0.98 4.7,-2.43 7.19,-4.38 1.15,1.89 2.25,3.34 3.27,4.34 1.03,1 2.07,1.49 3.12,1.49 1.25,0 2.37,-0.44 3.37,-1.31 0.99,-0.87 1.48,-1.85 1.48,-2.91 0,-0.61 -0.31,-1.98 -0.95,-4.08 -0.64,-2.12 -0.96,-4.16 -0.96,-6.11 0.02,-2.07 0.03,-3.97 0.05,-5.67 0.01,-1.7 0.02,-3.77 0.02,-6.21 0,-1.87 -0.12,-3.57 -0.38,-5.08 -0.27,-1.6 -0.67,-3.01 -1.22,-4.21 -1.07,-2.33 -2.89,-4.03 -5.47,-5.11 -2.57,-1.08 -6.13,-1.63 -10.63,-1.63 -4.04,0 -7.41,0.56 -10.12,1.68 -2.7,1.12 -4.69,2.53 -5.98,4.26 -1.19,1.62 -1.83,3.29 -1.9,5.01 0,0.11 -0.01,0.22 -0.01,0.33 0,1.17 0.43,2.13 1.26,2.87 0.83,0.75 1.83,1.13 2.99,1.13 1.27,0 2.1,-0.24 2.5,-0.7 0.39,-0.48 1.05,-1.45 1.99,-2.91 0.16,-0.25 0.32,-0.49 0.49,-0.72 0.83,-1.13 1.8,-1.99 2.89,-2.59 1.31,-0.74 3.28,-1.11 5.88,-1.11zm1.08 15.95c2.87,-0.61 5.05,-1.21 6.55,-1.76l0 1.48c0,3.6 -0.46,6.2 -1.38,7.78 -0.81,1.42 -2.07,2.58 -3.79,3.49 -1.7,0.89 -3.58,1.35 -5.6,1.35 -1.92,0 -3.45,-0.56 -4.62,-1.66 -1.18,-1.11 -1.77,-2.44 -1.77,-4.02 0,-1.53 0.5,-2.71 1.5,-3.57 1,-0.84 2.05,-1.41 3.16,-1.71 1.1,-0.29 3.09,-0.76 5.95,-1.38zm-60.47 -2.06c0,-2.65 0.41,-4.99 1.22,-7.02 0.5,-1.23 1.13,-2.29 1.87,-3.17 0.48,-0.56 1,-1.05 1.57,-1.46 1.47,-1.08 3.15,-1.61 5.02,-1.61 1.81,0 3.47,0.52 4.98,1.57 0.61,0.42 1.17,0.92 1.68,1.5 0.75,0.85 1.4,1.87 1.92,3.07 0.89,1.99 1.34,4.36 1.34,7.12 0,2.94 -0.45,5.38 -1.34,7.36 -0.88,1.96 -2.07,3.42 -3.56,4.36 -1.49,0.95 -3.13,1.43 -4.94,1.43 -1.77,0 -3.41,-0.5 -4.91,-1.5 -1.52,-1.01 -2.69,-2.48 -3.55,-4.46 -0.86,-1.98 -1.3,-4.38 -1.3,-7.19zm29.86 15.24l0 -25.43 0 -20.36c0,-1.95 -0.42,-3.43 -1.26,-4.43 -0.84,-1 -2.04,-1.51 -3.59,-1.51 -1.55,0 -2.74,0.55 -3.59,1.64 -0.83,1.09 -1.26,2.7 -1.26,4.83l0 15.34c-1.92,-2.14 -3.91,-3.73 -5.94,-4.75 -2.02,-1.03 -4.51,-1.55 -7.47,-1.55 -5.11,0 -9.24,1.82 -12.37,5.44 -1.32,1.53 -2.36,3.31 -3.12,5.35 -1.05,2.8 -1.57,6.08 -1.57,9.83 0,3.07 0.4,5.93 1.18,8.56 0.79,2.64 1.95,4.94 3.47,6.89 1.53,1.96 3.35,3.45 5.44,4.5 2.09,1.06 4.36,1.59 6.81,1.59 1.86,0 3.57,-0.26 5.13,-0.78 1.57,-0.52 3.03,-1.28 4.36,-2.29 1.35,-0.99 2.71,-2.29 4.08,-3.89l0 1.02c0,1.9 0.46,3.37 1.37,4.39 0.92,1.03 2.08,1.55 3.48,1.55 1.43,0 2.59,-0.49 3.5,-1.48 0.9,-0.99 1.35,-2.48 1.35,-4.46zm158.17 -8.05c-0.81,-2.02 -1.22,-4.4 -1.22,-7.12 0,-2.72 0.41,-5.12 1.24,-7.18 0.48,-1.2 1.08,-2.23 1.8,-3.08 0.52,-0.62 1.09,-1.14 1.73,-1.58 1.52,-1.05 3.28,-1.57 5.3,-1.57 2.93,0 5.28,1.05 7.09,3.15 0.11,0.12 0.22,0.25 0.32,0.38 1.83,2.36 2.76,5.65 2.76,9.88 0,4.19 -0.93,7.47 -2.76,9.84 -1.85,2.37 -4.31,3.55 -7.41,3.55 -2.06,0 -3.85,-0.53 -5.37,-1.61 -1.51,-1.07 -2.66,-2.63 -3.48,-4.66zm27.9 1.44c0.95,-2.61 1.43,-5.45 1.43,-8.56 0,-3.11 -0.48,-5.97 -1.41,-8.55 -0.21,-0.59 -0.45,-1.16 -0.7,-1.71 -0.88,-1.89 -2.02,-3.55 -3.42,-5 -1.81,-1.88 -3.97,-3.34 -6.5,-4.35 -2.53,-1.01 -5.35,-1.52 -8.45,-1.52 -3.07,0 -5.87,0.51 -8.39,1.51 -2.53,1 -4.68,2.43 -6.47,4.27 -1.4,1.46 -2.54,3.16 -3.43,5.09 -0.24,0.52 -0.47,1.06 -0.67,1.62 -0.95,2.61 -1.42,5.49 -1.42,8.63 0,3.12 0.47,5.96 1.41,8.55 0.93,2.57 2.32,4.8 4.13,6.69 1.82,1.89 3.97,3.35 6.45,4.36 2.47,1.01 5.27,1.52 8.39,1.52 3.13,0 5.95,-0.51 8.45,-1.51 2.5,-1 4.67,-2.43 6.46,-4.31 1.81,-1.87 3.18,-4.12 4.14,-6.73zm613.62 -7.8l0 13.8c0,2.19 -0.49,3.82 -1.46,4.91 -0.98,1.09 -2.27,1.64 -3.86,1.64 -1.55,0 -2.81,-0.55 -3.78,-1.64 -0.96,-1.09 -1.44,-2.72 -1.44,-4.91l0 -16.54c0,-2.63 -0.09,-4.65 -0.27,-6.1 -0.17,-1.43 -0.64,-2.63 -1.43,-3.56 -0.78,-0.92 -2,-1.38 -3.69,-1.38 -3.36,0 -5.57,1.17 -6.63,3.51 -1.06,2.32 -1.6,5.67 -1.6,10.03l0 14.04c0,2.16 -0.49,3.8 -1.45,4.9 -0.96,1.1 -2.24,1.65 -3.8,1.65 -1.55,0 -2.82,-0.55 -3.81,-1.65 -0.99,-1.1 -1.49,-2.74 -1.49,-4.9l0 -29.71c0,-1.95 0.45,-3.45 1.34,-4.46 0.88,-1.01 2.05,-1.52 3.5,-1.52 1.41,0 2.58,0.48 3.51,1.43 0.94,0.95 1.41,2.26 1.41,3.94l0 0.98c1.77,-2.15 3.68,-3.74 5.71,-4.75 2.03,-1.01 4.28,-1.52 6.76,-1.52 2.59,0 4.8,0.52 6.66,1.56 1.86,1.04 3.38,2.61 4.58,4.71 1.73,-2.13 3.59,-3.7 5.56,-4.72 1.98,-1.03 4.17,-1.55 6.58,-1.55 2.81,0 5.22,0.56 7.25,1.68 2.03,1.11 3.55,2.71 4.55,4.79 0.88,1.87 1.31,4.83 1.31,8.86l0 20.28c0,2.19 -0.49,3.82 -1.46,4.91 -0.98,1.09 -2.27,1.64 -3.86,1.64 -1.55,0 -2.82,-0.55 -3.81,-1.65 -0.99,-1.1 -1.49,-2.74 -1.49,-4.9l0 -17.47c0,-2.23 -0.09,-4.01 -0.28,-5.36 -0.19,-1.34 -0.69,-2.47 -1.53,-3.39 -0.82,-0.91 -2.08,-1.36 -3.76,-1.36 -1.35,0 -2.64,0.4 -3.86,1.22 -1.2,0.8 -2.15,1.89 -2.83,3.27 -0.76,1.74 -1.13,4.85 -1.13,9.29zm137.99 5.36l0 8.68c0,2.1 -0.49,3.67 -1.47,4.72 -0.97,1.06 -2.2,1.59 -3.7,1.59 -1.48,0 -2.7,-0.53 -3.65,-1.6 -0.95,-1.06 -1.42,-2.63 -1.42,-4.71l0 -28.93c0,-4.66 1.67,-7 4.99,-7 1.69,0 2.92,0.55 3.67,1.64 0.75,1.09 1.17,2.71 1.24,4.84 1.22,-2.13 2.48,-3.75 3.77,-4.84 1.3,-1.09 3.02,-1.64 5.17,-1.64 2.16,0 4.25,0.55 6.27,1.64 2.03,1.09 3.04,2.54 3.04,4.35 0,1.27 -0.42,2.31 -1.29,3.14 -0.86,0.84 -1.8,1.24 -2.8,1.24 -0.37,0 -1.28,-0.24 -2.72,-0.7 -1.45,-0.47 -2.72,-0.7 -3.82,-0.7 -1.5,0 -2.72,0.4 -3.68,1.19 -0.95,0.8 -1.69,1.99 -2.22,3.56 -0.52,1.57 -0.88,3.44 -1.09,5.61 -0.19,2.17 -0.29,4.8 -0.29,7.92zm-1078.1 -33.02l-21.98 0 0 14.27 18.38 0c1.69,0 2.97,0.39 3.81,1.15 0.83,0.78 1.25,1.82 1.25,3.11 0,1.29 -0.42,2.32 -1.26,3.09 -0.86,0.76 -2.14,1.14 -3.8,1.14l-18.38 0 0 18.37c0,2.33 -0.53,4.06 -1.57,5.19 -1.04,1.13 -2.37,1.69 -3.99,1.69 -1.65,0 -3,-0.57 -4.04,-1.72 -1.04,-1.14 -1.56,-2.87 -1.56,-5.16l0 -42.93c0,-1.62 0.24,-2.95 0.72,-3.97 0.47,-1.03 1.22,-1.78 2.23,-2.25 1.01,-0.47 2.31,-0.7 3.88,-0.7l26.31 0c1.79,0 3.11,0.4 3.97,1.19 0.86,0.81 1.29,1.86 1.29,3.15 0,1.32 -0.43,2.39 -1.29,3.19 -0.86,0.79 -2.18,1.19 -3.97,1.19zm37.89 42.15l0 -1.34c-1.23,1.58 -2.52,2.9 -3.87,3.97 -1.35,1.06 -2.83,1.85 -4.43,2.37 -1.6,0.52 -3.42,0.78 -5.48,0.78 -2.48,0 -4.7,-0.52 -6.67,-1.56 -1.96,-1.04 -3.49,-2.46 -4.56,-4.3 -1.27,-2.21 -1.91,-5.37 -1.91,-9.52l0 -20.57c0,-2.09 0.46,-3.64 1.38,-4.66 0.92,-1.03 2.16,-1.55 3.68,-1.55 1.54,0 2.8,0.52 3.75,1.56 0.95,1.04 1.42,2.59 1.42,4.65l0 16.63c0,2.4 0.21,4.42 0.6,6.06 0.4,1.64 1.12,2.92 2.16,3.85 1.04,0.92 2.45,1.38 4.23,1.38 1.73,0 3.36,-0.51 4.89,-1.55 1.53,-1.04 2.64,-2.41 3.35,-4.08 0.57,-1.47 0.86,-4.69 0.86,-9.67l0 -12.62c0,-2.06 0.47,-3.61 1.42,-4.65 0.96,-1.04 2.2,-1.56 3.73,-1.56 1.53,0 2.76,0.52 3.68,1.55 0.94,1.02 1.4,2.57 1.4,4.66l0 30.09c0,1.98 -0.45,3.46 -1.33,4.46 -0.9,0.99 -2.04,1.48 -3.45,1.48 -1.4,0 -2.57,-0.52 -3.48,-1.55 -0.91,-1.02 -1.37,-2.46 -1.37,-4.31zm29.15 -30.64l0 1.26c1.81,-2.41 3.79,-4.18 5.93,-5.31 2.14,-1.13 4.6,-1.69 7.39,-1.69 2.7,0 5.12,0.6 7.26,1.8 2.13,1.18 3.72,2.87 4.77,5.05 0.68,1.27 1.11,2.63 1.32,4.11 0.19,1.47 0.29,3.34 0.29,5.63l0 19.34c0,2.08 -0.47,3.65 -1.41,4.71 -0.93,1.07 -2.16,1.6 -3.67,1.6 -1.52,0 -2.77,-0.55 -3.73,-1.64 -0.95,-1.09 -1.42,-2.65 -1.42,-4.67l0 -17.33c0,-3.41 -0.48,-6.04 -1.41,-7.86 -0.94,-1.8 -2.81,-2.71 -5.62,-2.71 -1.82,0 -3.49,0.54 -5,1.65 -1.5,1.1 -2.61,2.62 -3.3,4.56 -0.5,1.54 -0.76,4.43 -0.76,8.67l0 13.02c0,2.1 -0.48,3.67 -1.44,4.72 -0.97,1.06 -2.21,1.59 -3.72,1.59 -1.48,0 -2.7,-0.55 -3.65,-1.64 -0.95,-1.09 -1.42,-2.65 -1.42,-4.67l0 -30.03c0,-1.97 0.42,-3.46 1.27,-4.43 0.86,-0.97 2.01,-1.47 3.49,-1.47 0.9,0 1.72,0.22 2.43,0.65 0.74,0.43 1.31,1.08 1.75,1.94 0.43,0.85 0.65,1.92 0.65,3.15zm150.33 36.5l-0.16 0.78c2.67,0.23 4.64,0.9 5.93,2.01 1.29,1.12 1.94,2.57 1.94,4.38 0,1.49 -0.49,2.8 -1.45,3.92 -0.97,1.13 -2.39,2.02 -4.26,2.63 -1.87,0.62 -4.16,0.93 -6.84,0.93 -4.6,0 -6.91,-0.88 -6.91,-2.65 0,-0.48 0.18,-0.89 0.53,-1.26 0.36,-0.35 0.77,-0.52 1.24,-0.52 0.1,0 0.65,0.04 1.65,0.15 1.01,0.1 1.91,0.15 2.74,0.15 4.5,0 6.76,-1.09 6.76,-3.28 0,-0.79 -0.35,-1.45 -1.03,-2.01 -0.69,-0.54 -1.55,-0.81 -2.58,-0.81 -0.4,0 -0.97,0.06 -1.72,0.18 -0.75,0.1 -1.31,0.17 -1.65,0.17 -0.63,0 -1.12,-0.24 -1.48,-0.7 -0.37,-0.49 -0.55,-0.98 -0.55,-1.51 0,-1.22 1.77,-2.11 5.32,-2.64 -6.06,-0.32 -10.7,-2.35 -13.94,-6.06 -3.23,-3.72 -4.85,-8.59 -4.85,-14.6 0,-4.26 0.82,-8.03 2.45,-11.3 1.63,-3.28 3.99,-5.81 7.07,-7.59 3.09,-1.79 6.77,-2.69 11.06,-2.69 2.65,0 5.09,0.39 7.31,1.19 2.2,0.79 4.09,1.8 5.63,3.05 1.54,1.25 2.72,2.57 3.53,3.97 0.82,1.42 1.23,2.73 1.23,3.95 0,1.25 -0.46,2.3 -1.37,3.17 -0.93,0.86 -2.03,1.29 -3.34,1.29 -1.32,0 -2.45,-0.64 -3.37,-1.94 -1.55,-2.27 -2.99,-3.96 -4.29,-5.04 -1.31,-1.08 -3.13,-1.61 -5.49,-1.61 -3.02,0 -5.47,1.2 -7.32,3.6 -1.86,2.39 -2.78,5.66 -2.78,9.82 0,1.95 0.24,3.74 0.71,5.38 0.48,1.63 1.16,3.03 2.07,4.18 0.9,1.15 1.99,2.03 3.26,2.62 1.28,0.6 2.68,0.9 4.2,0.9 2.16,0 3.85,-0.42 5.1,-1.26 1.23,-0.83 2.41,-2.11 3.52,-3.79 1.12,-1.71 1.98,-2.89 2.58,-3.54 0.6,-0.66 1.49,-1 2.67,-1 1.22,0 2.26,0.48 3.09,1.42 0.85,0.93 1.27,1.97 1.27,3.12 0,1.68 -0.68,3.51 -2.01,5.46 -1.35,1.95 -3.34,3.64 -6.01,5.04 -2.65,1.41 -5.81,2.18 -9.46,2.34zm38.1 -52.44c-1.27,0 -2.15,0.87 -2.59,2.6 -0.45,1.49 -1.13,2.23 -2.03,2.23 -0.55,0 -1.05,-0.26 -1.49,-0.78 -0.44,-0.52 -0.65,-1.25 -0.65,-2.18 0,-1.28 0.27,-2.49 0.82,-3.68 0.55,-1.18 1.32,-2.11 2.32,-2.8 0.99,-0.7 2.04,-1.05 3.17,-1.05 1.12,0 2.18,0.16 3.14,0.49 0.96,0.32 2.25,0.87 3.86,1.62 1.62,0.74 2.73,1.22 3.34,1.44 0.59,0.21 1.25,0.33 1.98,0.33 0.74,0 1.3,-0.18 1.71,-0.56 0.41,-0.36 0.73,-1.03 0.96,-2 0.4,-1.47 1.08,-2.2 2.03,-2.2 0.57,0 1.08,0.26 1.5,0.8 0.42,0.53 0.64,1.26 0.64,2.17 0,1.41 -0.53,3.02 -1.59,4.81 -1.06,1.78 -2.72,2.68 -4.95,2.68 -0.85,0 -1.72,-0.14 -2.63,-0.44 -0.9,-0.29 -2.14,-0.79 -3.72,-1.49 -1.58,-0.72 -2.75,-1.23 -3.53,-1.54 -0.78,-0.3 -1.54,-0.45 -2.29,-0.45zm187.6 32.09l0 13.8c0,2.19 -0.49,3.82 -1.46,4.91 -0.98,1.09 -2.27,1.64 -3.86,1.64 -1.55,0 -2.81,-0.55 -3.77,-1.64 -0.97,-1.09 -1.45,-2.72 -1.45,-4.91l0 -16.54c0,-2.63 -0.09,-4.65 -0.27,-6.1 -0.17,-1.43 -0.64,-2.63 -1.43,-3.56 -0.78,-0.92 -2,-1.38 -3.69,-1.38 -3.36,0 -5.57,1.17 -6.63,3.51 -1.06,2.32 -1.6,5.67 -1.6,10.03l0 14.04c0,2.16 -0.49,3.8 -1.45,4.9 -0.96,1.1 -2.23,1.65 -3.8,1.65 -1.55,0 -2.82,-0.55 -3.81,-1.65 -0.99,-1.1 -1.49,-2.74 -1.49,-4.9l0 -29.71c0,-1.95 0.45,-3.45 1.34,-4.46 0.88,-1.01 2.05,-1.52 3.5,-1.52 1.41,0 2.58,0.48 3.51,1.43 0.94,0.95 1.41,2.26 1.41,3.94l0 0.98c1.78,-2.15 3.69,-3.74 5.71,-4.75 2.03,-1.01 4.29,-1.52 6.76,-1.52 2.59,0 4.8,0.52 6.66,1.56 1.86,1.04 3.38,2.61 4.58,4.71 1.73,-2.13 3.59,-3.7 5.56,-4.72 1.98,-1.03 4.17,-1.55 6.58,-1.55 2.81,0 5.22,0.56 7.25,1.68 2.03,1.11 3.55,2.71 4.55,4.79 0.88,1.87 1.31,4.83 1.31,8.86l0 20.28c0,2.19 -0.49,3.82 -1.46,4.91 -0.98,1.09 -2.27,1.64 -3.86,1.64 -1.55,0 -2.82,-0.55 -3.81,-1.65 -0.99,-1.1 -1.49,-2.74 -1.49,-4.9l0 -17.47c0,-2.23 -0.09,-4.01 -0.28,-5.36 -0.19,-1.34 -0.69,-2.47 -1.53,-3.39 -0.82,-0.91 -2.08,-1.36 -3.75,-1.36 -1.36,0 -2.65,0.4 -3.87,1.22 -1.2,0.8 -2.15,1.89 -2.83,3.27 -0.76,1.74 -1.13,4.85 -1.13,9.29zm107.59 -9.96l-18.79 21.27 20.1 0c1.62,0 2.86,0.39 3.68,1.16 0.83,0.77 1.24,1.78 1.24,2.98 0,1.17 -0.41,2.12 -1.22,2.86 -0.82,0.74 -2.05,1.11 -3.7,1.11l-27.81 0c-1.95,0 -3.41,-0.43 -4.37,-1.3 -0.97,-0.86 -1.45,-2.04 -1.45,-3.54 0,-0.88 0.33,-1.78 1.01,-2.68 0.68,-0.9 2.08,-2.55 4.21,-4.97 2.25,-2.53 4.31,-4.83 6.14,-6.89 1.85,-2.06 3.55,-3.98 5.13,-5.77 1.58,-1.78 2.89,-3.3 3.92,-4.54 1.04,-1.25 1.88,-2.32 2.51,-3.2l-15.25 0c-2.11,0 -3.7,-0.19 -4.77,-0.57 -1.08,-0.38 -1.62,-1.38 -1.62,-3 0,-1.19 0.4,-2.15 1.22,-2.85 0.81,-0.71 1.97,-1.06 3.47,-1.06l23.57 0c2.18,0 3.84,0.32 5.01,0.97 1.17,0.64 1.74,1.81 1.74,3.47 0,0.56 -0.11,1.14 -0.33,1.73 -0.23,0.59 -0.47,1.09 -0.76,1.46 -0.27,0.38 -0.65,0.85 -1.12,1.4 -0.48,0.54 -1.07,1.19 -1.76,1.96zm32.08 -19.03l-3.76 -4.44 -3.76 4.44c-1.05,1.27 -1.76,2.04 -2.14,2.32 -0.37,0.28 -1.08,0.42 -2.11,0.42l-3 0c-1.02,0 -1.54,-0.18 -1.54,-0.53 0,-0.28 0.39,-0.91 1.17,-1.9l4.17 -5.07c0.35,-0.42 0.74,-0.92 1.19,-1.49 0.47,-0.57 0.85,-0.97 1.2,-1.22 0.33,-0.25 0.83,-0.43 1.47,-0.57 0.66,-0.14 1.41,-0.21 2.26,-0.21l2.1 0c1.66,0 2.79,0.21 3.4,0.61 0.62,0.4 1.53,1.37 2.72,2.88l4.32 5.13c0.73,0.98 1.09,1.55 1.09,1.72 0,0.43 -0.56,0.65 -1.69,0.65l-2.85 0c-0.75,0 -1.34,-0.1 -1.78,-0.33 -0.45,-0.2 -0.86,-0.54 -1.26,-1 -0.41,-0.46 -0.8,-0.93 -1.2,-1.41zm34.32 12.84l0 1.26c1.81,-2.41 3.78,-4.18 5.92,-5.31 2.14,-1.13 4.61,-1.69 7.39,-1.69 2.71,0 5.12,0.6 7.26,1.8 2.13,1.18 3.72,2.87 4.77,5.05 0.68,1.27 1.12,2.63 1.32,4.11 0.2,1.47 0.3,3.34 0.3,5.63l0 19.34c0,2.08 -0.48,3.65 -1.41,4.71 -0.94,1.07 -2.17,1.6 -3.67,1.6 -1.53,0 -2.77,-0.55 -3.73,-1.64 -0.95,-1.09 -1.43,-2.65 -1.43,-4.67l0 -17.33c0,-3.41 -0.47,-6.04 -1.41,-7.86 -0.93,-1.8 -2.81,-2.71 -5.62,-2.71 -1.82,0 -3.48,0.54 -5,1.65 -1.5,1.1 -2.6,2.62 -3.29,4.56 -0.5,1.54 -0.76,4.43 -0.76,8.67l0 13.02c0,2.1 -0.49,3.67 -1.45,4.72 -0.96,1.06 -2.21,1.59 -3.72,1.59 -1.47,0 -2.69,-0.55 -3.64,-1.64 -0.95,-1.09 -1.43,-2.65 -1.43,-4.67l0 -30.03c0,-1.97 0.43,-3.46 1.27,-4.43 0.86,-0.97 2.02,-1.47 3.49,-1.47 0.9,0 1.72,0.22 2.44,0.65 0.73,0.43 1.31,1.08 1.74,1.94 0.44,0.85 0.66,1.92 0.66,3.15zm47.43 0.16l0 30.03c0,2.08 -0.49,3.65 -1.46,4.71 -0.98,1.07 -2.21,1.6 -3.71,1.6 -1.5,0 -2.72,-0.55 -3.65,-1.64 -0.94,-1.09 -1.42,-2.65 -1.42,-4.67l0 -29.72c0,-2.06 0.48,-3.61 1.42,-4.65 0.93,-1.04 2.15,-1.56 3.65,-1.56 1.5,0 2.73,0.52 3.71,1.56 0.97,1.04 1.46,2.49 1.46,4.34zm-5.07 -10.73c-1.42,0 -2.64,-0.44 -3.65,-1.32 -1.02,-0.89 -1.52,-2.15 -1.52,-3.77 0,-1.45 0.52,-2.66 1.56,-3.61 1.04,-0.95 2.24,-1.43 3.61,-1.43 1.34,0 2.5,0.43 3.53,1.29 1.03,0.87 1.54,2.11 1.54,3.75 0,1.6 -0.5,2.85 -1.5,3.74 -1,0.9 -2.18,1.35 -3.57,1.35z"/>
   <path class="fil3" d="M384.47 572.46c40.66,-20.24 103.94,-32.52 189.86,-36.84 86.98,-8.17 147.43,-47.6 181.35,-118.3 33.6,-72 59.1,-186.53 76.5,-343.58 -38.21,66.8 -110.7,118.28 -217.48,154.43 -39.55,13.81 -106.38,28.68 -200.48,44.63 -101.06,24.13 -176.15,59.08 -225.28,104.85 -61.23,59.22 -91.93,129.82 -92.09,211.81 5.97,80.99 25.1,146.16 57.38,195.52 57.04,80.4 135.2,139.2 234.48,176.39 -32.83,-21.15 -59.13,-46.91 -78.9,-77.27 -2.33,-3.58 -4.56,-7.22 -6.71,-10.92 -20.83,-35.91 -33.14,-77.82 -36.93,-125.74 0.52,-81.42 39.96,-139.74 118.3,-174.98z"/>
   <path class="fil4" d="M458.86 652.51c-55.1,-6.36 -101.38,5.68 -138.85,36.13 -22.61,20.24 -35.36,44.33 -38.25,72.25 -0.5,10.69 2.57,23.91 9.21,39.68 0.17,15.76 4.22,39.97 12.13,72.61 2.15,3.7 4.38,7.34 6.71,10.92 -3.49,-69.12 6.76,-120.34 30.75,-153.67 31.79,-38.83 71.23,-64.81 118.3,-77.92z"/>
   <path class="fil5" d="M485.78 661.72c-48.33,11.19 -84.22,28.42 -107.68,51.71 -40.12,41.89 -57.12,80.15 -51,114.76 61.19,2.87 104.87,-15.08 131.05,-53.84 17.75,-31.78 47.03,-67.44 87.85,-106.97 -15.53,-6.73 -35.6,-8.62 -60.22,-5.66z"/>
   <path class="fil6" d="M290.91 839.77c-6.12,-16.95 -14.64,-44.43 -18.55,-67.48 -3.06,-18.06 -1.63,-28.93 0.05,-48.18 8.9,-65.15 39.59,-110.17 116.61,-148.06 51.04,-20.76 114.58,-31.87 186.72,-34.05 65.16,-4.83 124.03,-37.11 162.82,-83.73 25.06,-32.01 40.2,-79.9 57.64,-150.35l-3.43 0c-11.01,43.55 -23.38,80.02 -37.09,109.4 -33.92,70.7 -94.37,110.13 -181.35,118.3 -85.92,4.32 -149.2,16.6 -189.86,36.84 -78.34,35.24 -117.78,93.56 -118.3,174.98 1.36,17.15 3.81,33.54 7.35,49.16 3.87,17.09 9.06,33.25 15.55,48.5 3.92,9.24 8.64,18.87 13.94,27.92 -1.01,-4.15 -2,-8.62 -2.88,-12.5 -3.36,-6.73 -6.62,-13.57 -9.22,-20.75zm541.27 -766.03c-10.3,92.96 -23.44,171.02 -39.41,234.18l3.43 0c4.23,-17.06 8.24,-35.35 12.03,-54.9 12.76,-69.52 19.33,-132.35 23.95,-179.28zm-443.47 887.63c-32.87,-23.53 -59.61,-51.21 -79.19,-83.76 0.08,2.06 0.19,4.4 0.29,6.49 2,3.13 4.07,5.99 6.22,9.09 7.32,10.22 15.43,19.87 24.32,28.98 14.31,14.5 30.28,27.37 48.36,39.2zm-78.9 -77.27c-0.1,-2.09 -0.21,-4.43 -0.29,-6.49 -3.34,-5.55 -6.47,-11.25 -9.39,-17.09 0.88,3.88 1.87,8.35 2.88,12.5 2.02,3.93 4.33,7.44 6.8,11.08z"/>
   <path class="fil7" d="M546 667.38c-40.82,39.53 -70.1,75.19 -87.85,106.97 -26.18,38.76 -69.86,56.71 -131.05,53.84 20.28,3.75 42.16,2.21 65.62,-4.62 25.67,-8.03 45.27,-20.19 58.79,-36.49 5.11,-5.63 9.18,-11.42 12.22,-17.35 6.2,-10.44 16.41,-24.85 30.64,-43.22 13.94,-15.48 31.14,-35.19 51.63,-59.13z"/>
   <path class="fil7" d="M312.35 882.21c-0.96,-35.41 2.16,-68.77 9.35,-100.09 11.23,-36.39 29.42,-63.66 54.55,-81.82 23.14,-18.79 50.68,-34.71 82.61,-47.79 -47.07,13.11 -86.51,39.09 -118.3,77.92 -23.24,32.28 -33.58,81.34 -31.04,147.18 0.93,1.54 1.87,3.08 2.83,4.6z"/>
  </g>
 </g>
</svg>
